<svg xmlns="http://www.w3.org/2000/svg" viewBox="0 0 3000 3000" xmlns:xlink="http://www.w3.org/1999/xlink"><g clip-path="url(#kittyClipPath)"><g id="tailFur"><clipPath id="tailFurClipPath"><path fill="none" d="M2518.1 1775.9c67.6-29 132.5 39.9 146.6 73.7 48 115.1-49.4 194.9-49.4 194.9-36.6 34.8-88.5 67.7-157.3 88.8-175.3 53.8-339.2-38.4-422.2-99l-34.7-24.9-36.1 140.1 220.6 76.5a852.5 852.5 0 0 0 229 11.7c98.1-8.4 186.9-29.1 266-104.6 93.6-89.2 148.9-239.5 82.8-373.6-44.5-90.3-152-191.5-273.6-171.9-89 14.4-190.9 94.4-182.7 186.5 5.8 64 64.6 132.1 133.1 133.9 48.3 1.2 112.1-30.2 112.1-73.4-.1-34.5-40.8-73.1-100.9-79.4"></path></clipPath><g clip-path="url(#tailFurClipPath)"><path fill="#5ab0f1" d="M1904 1437.5h939v808.41h-939z"></path><path fill="#44e192" d="M2275 2008s130.2 50.7 154.5 146.4c13.7 53.8 37.8 49.3 56.2 34.9a75.5 75.5 0 0 0 28.5-52.6c4.3-45.5 5-140.8-59.9-166.9-86-34.6-179.3 38.2-179.3 38.2zm-406.4 58.5c87.7 87.9 150.5 140.4 163.2 179.8 2.8 8.9 13.5 44.1 45 67.2 7 5.2 32.6 23.9 54.7 17.1 42.2-12.9 43.4-109.9 43.4-121.2.1-14.8.6-186.7-107.4-216.2-56.3-15.5-151.9 20.1-198.9 73.3zm675.5-148.9c-33.6 14.1-75.4-86.5-157.6-87.2-36.3-.3-63.2 19.1-72.5 6.9s5.7-38.1 20.8-53.8c22.9-23.8 53.4-27.7 65.8-29.1 57.3-6.5 141 20.3 158.8 84 8.1 28.8 4.4 71-15.3 79.2z"></path><path fill="#44e192" d="M2570.3 2067.6c-15.7-5.9-13.7-32.9-21.3-135.7-3.2-42.5-4.8-55.2 1.6-58.1 12.4-5.7 45.3 29.9 60.8 68.8 3.5 8.9 29.5 76.7-5.7 110.8-2.1 1.9-20.6 19.8-35.4 14.2zm85 6.5c-11 .4-15.4 17.7-41.7 80.2-10.9 25.9-14.5 33.4-11.2 36.6 6.5 6.2 34.5-9.1 52.3-30.2 4.1-4.8 34.5-41.7 19.6-70.3-.8-1.6-8.6-16.7-19-16.3zm88.3-399.3c-8.1 11.1-26.7 2.5-82.6-.2-34.2-1.7-45.8.7-47.6-4.7-3.1-9.1 25.5-29.9 55.2-38.2 13-3.6 50.4-14.1 68.5 7 8.2 9.5 13.4 26.7 6.5 36.1zm-488.7 529.3c13.7 1 16.4 21.2 44 69.9 16.9 29.8 25.1 38.3 21.6 42.7-6 7.5-38.9-5.5-61.8-26.2-10.1-9.1-38.9-35-30.8-61.6 3.7-12 15.4-25.6 27-24.8zm126.5 57c7.8 12.6 16.3 7.9 80.8 10.5 27.9 1.1 34.6 2.4 38.2-2.7 8.9-12.8-11.5-36.1-44.2-51.5-18-8.5-49-14.4-67.6 1.9-9.6 8.4-13.3 20.4-14.4 24-2.2 6.7.6 7.1 7.2 17.8zm136.3-629.2c.6-11-16.2-17-76-48.8-24.8-13.2-32-17.5-35.4-14.5-6.7 6 6 35.2 25.3 54.8 4.4 4.5 38.4 38.1 68.2 25.9 1.7-.6 17.4-7 17.9-17.4z"></path><path fill="#44e192" d="M2619 1869.1c-33.8-1.9-72.5 67.9-74.8 131.9s30.4 123.1 47.5 120.9c13.3-1.8 5.2-39.9 34.2-101 21.7-45.8 40.5-54.7 39.8-83.8-.7-31.4-23.4-66.7-46.7-68z"></path><path fill="#44e192" d="M2619.5 1923.8c-7.2 14.6 45.3 33.5 70 94.6 19.7 49 7 89 23 93.7 12.6 3.7 31.2-18 39.3-35.9 12.2-27.2 3.8-53.9-1.8-71.6-5.1-16-15.6-47.8-46.8-68.8s-77.3-24.8-83.7-12zm-200.9-243.4c-4.6 44.2-70.2 69.9-119.1 64-9.6-1.2-78.5-16.3-57.9-29.3 62.2-39.5 77.7-59.3 93.4-105.6 12-2.7 24.1-2.6 35.4 1.2 27.9 9.3 51.1 41.1 48.2 69.7zm-147.3 396.3c15.2 18.4.3 53.3-20.4 69.8-4 3.2-21.5 17.1-33.1 11.1-19.2-9.9-22.1-73.2 8.6-88.8 14.1-7.1 35-4 44.9 7.9zm65.3 56.8a36.6 36.6 0 0 1 41 31.7c2.6 20.1-18.1 58.3-38.2 60.9s-31.9-31.5-34.5-51.6a36.6 36.6 0 0 1 31.7-41zm76.3 122.1a15.2 15.2 0 0 1 17 13.2c1.1 8.3-7.7 25.4-16 26.4s-13.1-14.3-14.2-22.6a15.2 15.2 0 0 1 13.2-17zm145.1-628.7a26.2 26.2 0 0 1 29.3 22.6c1.8 14.3-13.2 43.7-27.5 45.5s-22.6-24.6-24.4-38.9a26.2 26.2 0 0 1 22.6-29.2z"></path><circle cx="2536.6" cy="2226.7" r="27" fill="#44e192" transform="rotate(-7.3 2524.17 2216.666)"></circle><path fill="#44e192" d="M2749.5 1922.7a16.3 16.3 0 0 1 4.1 32.3c-8.9 1.1-23.5-10.4-24.6-19.3s11.6-11.8 20.5-13zM2559 1577.8a16.3 16.3 0 0 1 4.1 32.3c-8.9 1.1-23.5-10.4-24.6-19.3s11.6-11.9 20.5-13zm-349.8 594.3a11.8 11.8 0 0 1 3 23.5c-6.5.8-17-7.5-17.9-14s8.4-8.7 14.9-9.5zm217.8 2.9a11.8 11.8 0 1 1-13.9 19.2c-5.3-3.8-7.3-17.2-3.4-22.5s12-.6 17.3 3.3zm158.7-476.3c25.1-3.2 49.6 34.4 52.8 59.5a45.8 45.8 0 0 1-90.8 11.6c-3.2-25.1 13-67.9 38-71.1zm95.3 125.6a25.2 25.2 0 0 1 28.2 21.8c1.8 13.8-20.7 41.9-34.6 43.7s-13.7-23.5-15.5-37.3a25.2 25.2 0 0 1 21.9-28.2zm-208.7-143.1a25.2 25.2 0 0 1 28.2 21.8c1.8 13.8-20.7 41.9-34.6 43.7s-13.7-23.5-15.5-37.3a25.2 25.2 0 0 1 21.9-28.2zm75.1 452.1c12.6-1.6 31.9-.6 33.5 12s-15.1 32-27.7 33.6a23 23 0 0 1-5.8-45.6zm233-285.1c-34.1 5.2-28 56.5 6.4 53.2a97.9 97.9 0 0 0 24.8-6.1c69.3-26 111.6 6.4 124.6-6.6l13-13s-81.6-40.9-168.8-27.5zm-67.8-33.9s-45.2-41.4 14.3-72.8 93.5-33 121.7-73.3l75.7-15.3s-33.1 134.7-211.7 161.4z"></path><defs><linearGradient id="tailShadowGradient" x1="2364.15" y1="2291.47" x2="2364.15" y2="2013.47" gradientUnits="userSpaceOnUse"><stop offset="0" stop-color="gray"></stop><stop offset=".27" stop-color="#7d7d7d"></stop><stop offset=".46" stop-color="#747474"></stop><stop offset=".64" stop-color="#646464"></stop><stop offset=".8" stop-color="#4d4d4d"></stop><stop offset=".95" stop-color="#303030"></stop><stop offset="1" stop-color="#242424"></stop></linearGradient><linearGradient id="tailShadowGradient2" x1="2579.15" y1="1935.2" x2="2579.15" y2="1441.6" gradientUnits="userSpaceOnUse"><stop offset="0" stop-color="#fff" stop-opacity="0"></stop><stop offset=".72" stop-color="#fff"></stop></linearGradient><linearGradient id="tailShadowGradient3" x1="2583.8" y1="2124.84" x2="2583.8" y2="1726.66" href="#tailShadowGradient" xlink:href="#tailShadowGradient"></linearGradient></defs><g clip-path="url(#tailShadowClipPath)" style="mix-blend-mode:overlay"><path d="M2307.1 1774.1s77.1-188.9 277.1-114.6 203.7 275.7 203.7 275.7l134.3-263.7-234-212.5-344-17.4-108 123.9z" opacity=".35" fill="url(#tailShadowGradient2)" style="mix-blend-mode:overlay"></path></g><g clip-path="url(#tailShadowClipPath)" style="mix-blend-mode:multiply"><path d="M2135.9 2084.1c107 52 71.6 104 199.2 113.8 208.3 32.6 329.5-41.9 390.8-121l100.2-44.4-96 259-828-9.1 54-268.9s122.5 42.7 179.8 70.6z" opacity=".25" fill="url(#tailShadowGradient)" style="mix-blend-mode:multiply"></path><path d="M2519.6 1734.3c8.4-2.3 109.1-43.4 164.5 92.2 57.5 140.6-26.3 224.4-201.1 298.4l96.1-317.4s-20.1-11.2-61-31.6-52.7-18.9-52.7-18.9 20.5-10.4 54.2-22.7z" opacity=".25" fill="url(#tailShadowGradient3)" style="mix-blend-mode:multiply"></path></g></g></g><g id="tail"><path d="M2515.9 1770l5.8-2.2 1.6-.5 1.6-.5 3.3-1 3.3-.8 3.2-.7 3.3-.6 3.3-.5a92.5 92.5 0 0 1 26.4.8 110 110 0 0 1 25 7.6 138.2 138.2 0 0 1 22.6 12.5 169 169 0 0 1 20 16 181.2 181.2 0 0 1 17.5 18.7 139.6 139.6 0 0 1 14.5 21.4l1.5 3 1.4 3.1.3.8v.9l.6 1.4 1.1 2.9 2.2 5.8 2 6.2 1 3.1c.3 1 .7 2.1.9 3.1l1.5 6.2.8 3.1.6 3.2 1.1 6.3c.4 2.1.5 4.2.8 6.4l.4 3.2.2 1.6v1.6l.3 6.4v6.4a154.3 154.3 0 0 1-2.3 25.6l-1.2 6.3c-.5 2.1-1 4.2-1.5 6.2s-.5 2.1-.8 3.1l-.9 3.1-.9 3.1-.5 1.5-.5 1.5-2.1 6-2.4 5.9c-.8 2-1.7 3.9-2.6 5.8l-1.3 2.9-1.4 2.9a193.8 193.8 0 0 1-12.9 22 213.5 213.5 0 0 1-15.5 20.2c-2.8 3.2-5.6 6.3-8.6 9.4l-4.6 4.5-2.4 2.2-2.6 2.2.3-.3a366.6 366.6 0 0 1-68.8 51 404.9 404.9 0 0 1-38.1 19.4q-19.5 8.7-39.8 15.6l-10.2 3.3-2.5.8h-.8l-.6.2-1.3.4-5.1 1.4-10.2 2.8-10.5 2.5-5.3 1.2-5.3 1-10.5 2-10.6 1.5-5.3.7-5.3.6-10.7 1-10.7.6c-7.1.5-14.3.4-21.4.5l-10.7-.3-5.4-.2-5.3-.3-10.7-.7-10.6-1.1-5.3-.6-5.3-.7-10.6-1.5c-7-1.3-14.1-2.4-21-4-14-2.8-27.7-6.5-41.4-10.6l-10.2-3.2-10.1-3.4c-3.4-1.1-6.7-2.4-10-3.6s-6.7-2.4-10-3.8l-9.9-4-9.8-4.2-9.7-4.4-9.7-4.5c-12.8-6.1-25.4-12.7-37.8-19.6s-24.5-14.3-36.5-21.9-23.6-15.7-35-24l-34.2-24.6 9.7-3.5-35.8 140.3-4-7.5 220.6 76.5-.9-.2a866.3 866.3 0 0 0 126.3 14q31.8 1.1 63.6-.1c21.2-.8 42.3-2.5 63.4-4.9a628.3 628.3 0 0 0 62.5-10 412.3 412.3 0 0 0 60.4-18 344.9 344.9 0 0 0 56.3-27.9 331.7 331.7 0 0 0 50.1-37.9l5.8-5.3.7-.7.4-.3.3-.3 1.4-1.4 2.8-2.8c3.9-3.7 7.4-7.5 11-11.3l1.3-1.4 1.3-1.5 2.6-2.9c1.7-2 3.5-3.9 5.2-5.9 3.3-4.1 6.8-8 9.9-12.2l4.8-6.2 4.6-6.4 2.3-3.2 2.2-3.3 4.4-6.5c5.6-8.9 11.1-17.8 16-27.1 2.5-4.6 4.8-9.3 7.1-14 1.2-2.3 2.2-4.8 3.3-7.1s2.2-4.8 3.2-7.2l3-7.3 1.5-3.6 1.4-3.7 2.7-7.4 2.4-7.5c1.7-5 3-10 4.5-15.1.4-1.3.7-2.5 1-3.8l.9-3.8c.6-2.5 1.3-5.1 1.8-7.6l1.6-7.7c.2-1.3.6-2.6.7-3.9l.6-3.9 1.2-7.7.9-7.8a282.3 282.3 0 0 0 .3-62.5l-.4-3.9c-.1-1.3-.4-2.6-.5-3.9l-1.1-7.7-.3-1.9-.4-1.9-.8-3.8c-.5-2.6-.9-5.1-1.5-7.7l-1.9-7.6-.9-3.8-1.1-3.8-2.2-7.5c-.3-1.3-.8-2.5-1.2-3.7l-1.3-3.7c-13.7-39.4-36.7-75.5-64.5-106.9-7-7.8-14.4-15.3-22-22.5s-15.7-13.9-23.9-20.4-16.9-12.3-25.8-17.8l-6.7-4-3.4-2-3.5-1.8c-2.3-1.2-4.6-2.5-6.9-3.6l-7-3.4-3.6-1.6-3.6-1.5-3.6-1.5-3.6-1.4-7.3-2.7-7.4-2.4c-2.5-.8-5-1.4-7.5-2.1s-5-1.4-7.5-1.9l-7.6-1.6-7.7-1.2a183.9 183.9 0 0 0-30.9-1.9h-3.9l-3.9.3-7.7.6-7.7 1-1.9.3h-.8l-1 .2-3.9.7-3.9.7-3.7.9-3.7.8-3.8 1c-2.5.7-5 1.3-7.5 2.1s-5 1.5-7.4 2.4a238.4 238.4 0 0 0-28.8 12 265.3 265.3 0 0 0-27.2 15.4l-6.5 4.3-6.4 4.5-6.2 4.8c-2.1 1.6-4 3.3-6 5a224.5 224.5 0 0 0-22.3 21.7 177.5 177.5 0 0 0-18.6 24.7c-10.9 17.4-18.4 36.9-20.4 57.1-.2 2.5-.6 5-.5 7.6v7.6l.2 3.8v3.7l.5 4c.2 1.3.4 2.5.6 3.7s1 4.9 1.5 7.4.6 2.5.9 3.7.6 2.5 1 3.7 1.5 4.9 2.4 7.3l1.3 3.6 1.5 3.6a154.6 154.6 0 0 0 14.6 27 157 157 0 0 0 19.6 23.7c3.6 3.7 7.4 7 11.4 10.3a147.3 147.3 0 0 0 12.4 9 140.1 140.1 0 0 0 13.2 7.6 124 124 0 0 0 14 5.9 116.7 116.7 0 0 0 14.5 4 105 105 0 0 0 14.9 1.9h11.3l3.8-.3a138.1 138.1 0 0 0 15.1-2.2 144.7 144.7 0 0 0 14.8-3.8 136.8 136.8 0 0 0 14.4-5.3 118.7 118.7 0 0 0 26.2-15.3c7.9-6.1 14.7-13.6 19-22.1a42.5 42.5 0 0 0 4.2-13.3v-7.1a7.8 7.8 0 0 0-.1-.9v-.8c-.1-.6-.1-1.1-.2-1.7s-.3-2.3-.6-3.5a55 55 0 0 0-5.1-13.6 71.7 71.7 0 0 0-8.3-12.4 102 102 0 0 0-22.9-20.1 132.7 132.7 0 0 0-27.8-13.7q-7.4-2.6-15-4.5c-5.1-1.2-10.2-2.2-15.4-3a2.5 2.5 0 0 1 .6-5c21.6 1.5 43.2 7.6 62.3 18.9a106.8 106.8 0 0 1 25.9 21 81.9 81.9 0 0 1 10 13.8 65.5 65.5 0 0 1 6.5 16.1c.4 1.4.6 2.9.9 4.3s.4 3.2.6 4.6v8.8a52.1 52.1 0 0 1-4.9 17.2 68.6 68.6 0 0 1-9.6 14.7 89.8 89.8 0 0 1-12.3 11.9 128.7 128.7 0 0 1-28.7 17.4 154.4 154.4 0 0 1-31.7 10.3 151.2 151.2 0 0 1-16.6 2.5l-4.2.3-4.3.2h-8.4a118.3 118.3 0 0 1-16.8-2.1 124 124 0 0 1-16.3-4.6 137.3 137.3 0 0 1-15.5-6.6 147.7 147.7 0 0 1-14.5-8.4 160.3 160.3 0 0 1-13.4-9.9c-4.2-3.6-8.4-7.3-12.3-11.3a171.7 171.7 0 0 1-21-25.7 167.3 167.3 0 0 1-15.7-29.3l-1.6-3.9-1.4-3.9c-1-2.6-1.7-5.3-2.6-7.9s-.7-2.7-1.1-4-.7-2.7-1-4.1-1.2-5.4-1.6-8.3-.5-2.9-.7-4.2l-.5-4v-4.5l-.2-4.2v-8.4c0-2.8.3-5.6.6-8.4a135 135 0 0 1 7.6-32.6 161.5 161.5 0 0 1 14.7-29.9 190 190 0 0 1 19.9-26.4 236.9 236.9 0 0 1 23.6-22.9c2.1-1.7 4.2-3.5 6.3-5.2l6.5-5 6.7-4.8 6.8-4.6a277.8 277.8 0 0 1 28.5-16.2 250.9 250.9 0 0 1 30.3-12.6c2.6-1 5.2-1.7 7.8-2.5s5.3-1.5 7.9-2.3l4-1.1 4.1-.9 4.1-.9 4-.7 3.9-.7 1-.2h1.2l2-.3 8.2-1.1 8.2-.6 4.1-.3h4.1a196.3 196.3 0 0 1 32.9 2l8.2 1.3 8.1 1.7c2.7.5 5.3 1.3 8 2s5.3 1.3 7.9 2.2l7.8 2.5 7.7 2.8 3.8 1.5 3.8 1.6 3.8 1.6 3.7 1.7 7.4 3.5c2.5 1.2 4.8 2.5 7.3 3.8l3.6 1.9 3.5 2.1 7.1 4.1c9.3 5.7 18.2 12 26.9 18.6s16.9 13.7 24.8 21.2 15.5 15.2 22.7 23.3 14.1 16.5 20.6 25.2 12.6 17.7 18.3 27c2.8 4.7 5.6 9.3 8.2 14.2l2 3.6 1.8 3.6 1.8 3.6.5.9.3.5.2.5.9 1.9 3.4 7.4c.6 1.2 1.2 2.5 1.7 3.7l1.5 3.8 3.1 7.6c1 2.5 1.8 5.1 2.7 7.7l1.4 3.9c.5 1.3.9 2.6 1.3 3.9l2.3 7.8 1.2 3.9 1 4 1.9 8c.6 2.7 1.1 5.4 1.6 8l.8 4 .4 2 .3 2 1.2 8.1c.2 1.4.4 2.7.6 4.1l.4 4.1a294.8 294.8 0 0 1-.3 65.3l-1 8.1-1.3 8.1-.6 4c-.2 1.3-.5 2.7-.8 4l-1.6 8c-.5 2.7-1.3 5.3-1.9 7.9l-1 4c-.3 1.3-.6 2.6-1 3.9-1.5 5.2-2.9 10.5-4.6 15.6l-2.5 7.7-2.8 7.7-1.4 3.8-1.5 3.8-3.1 7.5c-1.1 2.5-2.2 5-3.3 7.4s-2.2 5-3.4 7.4c-2.4 4.9-4.7 9.8-7.4 14.5-5 9.6-10.7 18.9-16.5 28.1l-4.5 6.8-2.3 3.4-2.4 3.3-4.8 6.6-5 6.5c-3.3 4.3-6.8 8.5-10.2 12.7-1.7 2.1-3.6 4.1-5.4 6.1l-2.7 3-1.4 1.5-1.4 1.5c-3.8 4-7.5 8-11.3 11.7l-2.8 2.8-1.4 1.4-.4.4-.4.3-.8.7-6 5.5a344.1 344.1 0 0 1-51.9 39.3 357.4 357.4 0 0 1-58.3 28.9 424.8 424.8 0 0 1-62.2 18.6 640.4 640.4 0 0 1-63.9 10.3c-21.3 2.4-42.8 4.1-64.3 5s-43 .9-64.5.1a878.7 878.7 0 0 1-128.1-14.2h-.5l-.4-.2-220.6-76.5-5.4-1.9 1.4-5.6 36.2-140.2 2.3-8.8 7.4 5.3 34.2 24.6c11.3 8.3 22.8 16.1 34.5 23.7s23.7 14.7 35.8 21.5 24.5 13.3 37 19.3l9.5 4.4 9.5 4.3 9.6 4.1 9.7 3.9c3.2 1.3 6.5 2.5 9.7 3.7s6.5 2.5 9.8 3.5l9.9 3.4 9.9 3.1c13.3 4 26.7 7.6 40.3 10.4 6.8 1.5 13.6 2.6 20.4 3.9l10.3 1.5 5.1.7 5.2.5 10.3 1.1 10.4.7 5.2.3 5.2.2 10.4.3c6.9-.1 13.8 0 20.7-.5l10.4-.6 10.3-1 5.2-.5 5.1-.7 10.3-1.5 10.2-1.9 5.1-.9 5-1.2 10-2.3 10.1-2.8 5.1-1.4 1.3-.4.6-.2h.5l2.5-.8 9.9-3.2q19.7-6.7 38.7-15.2a392.4 392.4 0 0 0 37-18.8 354.1 354.1 0 0 0 65.7-49.9h.1l.2-.2 2.1-1.8 2.2-2 4.2-4.2c2.8-2.8 5.5-5.8 8.1-8.8a201 201 0 0 0 14.5-19 181.3 181.3 0 0 0 12.1-20.6l1.3-2.7 1.2-2.7c.8-1.8 1.7-3.6 2.4-5.5l2.2-5.5 2-5.6.5-1.4.4-1.4.9-2.8.9-2.8c.3-.9.5-1.9.7-2.9s1-3.8 1.4-5.8l1.1-5.8a141.8 141.8 0 0 0 2.1-23.6v-6l-.3-5.9v-1.5l-.2-1.5-.3-2.9c-.2-2-.4-3.9-.7-5.9l-1-5.8-.5-2.9-.7-2.9-1.4-5.8c-.2-1-.5-1.9-.8-2.8l-.9-2.8-1.7-5.6-2.2-5.8-1.1-2.9-.6-1.4v-.7l-.3-.6-1.2-2.6-1.3-2.5a127.3 127.3 0 0 0-13.2-19.4 164.1 164.1 0 0 0-34.8-32.2c-13-8.8-27.6-15.5-42.7-18.1a79.9 79.9 0 0 0-22.8-.7l-2.8.4-2.8.5-2.8.6-2.7.7-2.6.8-1.3.4-1.4.5-5.8 2.2a6.3 6.3 0 0 1-4.8-11.8z" fill="#31323d"></path></g></g><g clip-path="url(#kittyClipPath)"><g id="bodyFur" style="isolation:isolate"><clipPath id="furClipPath"><path fill="none" d="M1852.5 1272.5c52-29.9 35-77 6.3-107-6.2-6.5-31.1-16.8-31.1-16.8l-43.4-81.3 23.9-11.2c72.7-45.6 87.2-92.1 82-118.1s-37.4-38.6-37.4-38.6l.2-7.6c27-17.8 43.5-36.4 56.6-70.6l3.8-17-6.5-18.1c-83.9-43.2-182.6-.4-288.9 74.5l-11-6.7c-18.2-9.1-38.4-18.6-58.6-22.9 47.9-36.3 46.4-135-2.2-142.6-14.5-2.3-41.4 3-51.8 26.1 1.8-11.8.7-16.9-3.7-29.3s-25.2-33.3-39.2-41.2a69.5 69.5 0 0 0-25.8-8.1c-18-.2-33.5-2.2-43.7 4-12.3 7.6-49.8 28.8-58.7 79.2-.2 1.2-14.5-16.3-35.3-6.3-22.7 10.9-24.7 18.8-32.2 26.3-12.7 12.7-19.9 77.3 10.2 88 4.6 1.7 8.1 5.9 11.1 10a237.4 237.4 0 0 0-65.6 29.2l-8.3-5.7c-132.3-100.8-236.4-77.2-236.4-77.2s-53.3 3.3-36.7 54.5 65.8 76.8 65.8 76.8c-18.9.6-67.8 23.4-37.5 83.6 31.6 62.7 77.2 80.6 107.6 88.5-6.4 19.1-11.9 34.8-19.8 57.2-71 .2-97.1 49.6-97.1 81.4 0 54.3 55.8 47.6 55.8 47.6-17.3 35.5-.7 65.7 38.7 73.4 0 0-35.7 189.2-37.6 196.9l-86.8 456.2a248.6 248.6 0 0 0 12.7 117.6l-.6.2c-38.1 9.1-130.5 43.4-184.5 78.3-26.5 17.1-10.1 55.9 23.2 55.3l266.9-5.2c4.5 2.7 9.1 5.4 13.8 7.9v3.3c.4 23.3-6.6 42.4-29.9 43.5-15.6.8-28.2 9.9-30.7 21.1-4.7 21.5 5.9 38.9 27.3 40.4l84.3 5c26.4 1.6 51.8-11.3 65.3-34.1a72.2 72.2 0 0 0 8.8-23.9l5-26.6h533.6l3.4 20.7a71.6 71.6 0 0 0 43.2 54.3 52.6 52.6 0 0 0 22.2 3.9l91.9-3c22-2.2 30.1-15.7 27.8-36.9-.7-7-6.2-24.5-24.4-25.6-15.8-.8-25.3-8.6-28.1-21.9a243.5 243.5 0 0 0 65.3-28l261.5 5.1c33.3.6 49.3-37.5 23.2-55.3-43-29.4-132.4-61.7-179.8-75.5l-.8-.3a247.8 247.8 0 0 0 6.4-155.8l-134.6-437.7-4.4-14.7c-3.6-11.7-5.5-17.7-9.2-29.6l-2.2-7.2-40.3-131.3c6.9-11.7 22.5-39.5.6-65.1.1 0-3.9 5.7 16.4-6z"></path></clipPath><g clip-path="url(#furClipPath)"><defs><linearGradient id="bodyFur__a" x1="1713.27" x2="1713.27" y1="794.55" y2="927.94" gradientUnits="userSpaceOnUse"><stop offset="0" stop-color="gray"></stop><stop offset=".14" stop-color="#797979"></stop><stop offset=".35" stop-color="#646464"></stop><stop offset=".6" stop-color="#434343"></stop><stop offset=".89" stop-color="#141414"></stop><stop offset="1"></stop></linearGradient><linearGradient id="bodyFur__b" x1="1041.15" x2="1175.15" y1="888.73" y2="888.73" href="#bodyFur__a" xlink:href="#bodyFur__a"></linearGradient></defs><g style="isolation:isolate"><path fill="#5ab0f1" d="M724.1 562.8h1509.4v1824.09H724.1z"></path><path style="mix-blend-mode:multiply" fill="url(#bodyFur__a)" d="M1781.2 799.5s-38-26-102.1 41.4l-33.7 40.5 56.1 46.5z" opacity=".4"></path><path style="mix-blend-mode:multiply" fill="url(#bodyFur__b)" d="M1041.2 839.5s27.5-19 71.6-.8a122.2 122.2 0 0 1 47.5 35.1l14.8 17.9-37.7 54.9z" opacity=".4"></path><path fill="#b1aeb9" d="M1181.5 2294.7c-5.6-14.6 3.2-56.8 20.7-141.2 10.4-50.5 18.8-83.5 24-105 38.7-162 16.1-179.6 50-276 23.1-65.9 47.1-131.2 111-162 7.6-3.7 65.8-30.8 125-7 57.6 23.1 81.2 80.6 105.3 141.9 29.1 74.1 19.9 99.7 53 285.3 6.9 38.6 13.7 77.2 20.7 115.8 4 22.6 7.9 45.3 12 68 9.4 53.2 9.6 54.1 9.3 56.2-9.7 78.5-486.6 140.6-531 24z"></path><path fill="#44e192" d="M1961.8 1478.2s-63.6 117.3-161.6 129.3c-55.2 6.7-53.6 31.2-41.8 51.3a75.5 75.5 0 0 0 48.6 34.9c44.6 10.1 143.1 22.8 177.2-38.2 45.2-81.1-22.4-177.3-22.4-177.3zM934.2 1660.8c33.1-10.3 66.7-38.4 66.7-38.4 21.3 16.6 46.2 29.4 76.2 32.5 47.6 4.8 85.2-17.2 96 0 9.7 15.7-12.3 49.2-34 68-33.1 28.4-73.6 29.7-90 30-25.7.4-54.8-4.5-82.7-14.4-54.8-19.6-59.1-69.3-32.2-77.7zM1868.5 1758c7.8-14.8 34.3-9.4 137.3-4 42.6 2.3 55.3 2.2 57.4 8.9 4.1 13.1-35.3 41.2-75.9 51.6-9.3 2.4-79.9 19.5-109.2-19.7-1.6-2.2-17-22.8-9.6-36.8zM1271.8 837.6a33.6 33.6 0 0 1 13.7 11.7c-1.1 21.7-.1 47.8 13.5 73.3 4.8 9.1 15.9 27.1 9.2 36.9-4.5 6.5-14.8 6.5-17 6.5-26.1 0-45.6-32.3-52.5-43.7a149.1 149.1 0 0 1-20.2-58.2c.3-6 22-18.6 22-18.6s26.4-10.9 31.3-7.9zM1848.6 1846.8c2-10.9-13.9-18.9-69.3-58.1-22.9-16.2-29.5-21.4-33.3-18.8-7.4 5.1 1.5 35.7 18.2 57.6 3.8 5 33.2 42.6 64.4 34.3 1.7-.4 18.1-4.8 20-15zM1157.5 1894.7c-10-9.4.9-26.8 10.7-81.9 5.9-33.7 5.1-45.5 10.6-46.7 9.4-1.9 26.5 29.1 30.9 59.6 2 13.4 7.6 51.8-15.5 67.1-10.6 7-28.3 10-36.7 1.9zM1772.9 1428c-2.7 13.4-23.1 13.5-74.9 34.8-31.7 13-41.2 20-45.1 16-6.7-6.9 10.4-37.9 33.7-58 10.3-8.9 39.7-34.2 65-22.8 11.6 5.2 23.6 18.6 21.3 30zM1554.2 823.8c-13.4 6.2-9.9 15.2-20.5 78.8-4.7 27.6-6.8 34-2.2 38.2 11.6 10.5 37.3-6.8 56.7-37.3 10.6-16.8 20.5-46.8 6.6-67.4-7.1-10.5-18.5-15.7-22-17.3-6.4-2.9-7.1-.2-18.6 5zM1896.4 2209.1c10.8 2 18.9-13.9 58.1-69.2 16.2-22.9 21.4-29.5 18.8-33.3-5.1-7.4-35.7 1.4-57.6 18.1-5 3.9-42.7 33.3-34.4 64.4.5 1.8 4.9 18.2 15.1 20zM1151.2 1477.7c8.7-32.8-51.8-84.8-114-100a197.2 197.2 0 0 0-64.2-4.5c-55.9 9.6-63 15.4-63.8 26.5-1 13.3 37.9 13.2 92 54 40.4 30.5 45.3 50.7 74 56 30.7 5.6 70-9.5 76-32zM1118.8 1833.1c-15.5-12.2-45.8 35.4-114 48-78.3 14.5-128-31.7-146-10-15.7 18.9 5.7 73.8 44 98 36 22.7 77 12.1 108 4 19.9-5.2 49.1-12.8 74-38 33.9-34.3 49.1-90.1 34-102zM2016.2 1889.5c-8.5-7.6-10.5-23.5-20.4-21.5a255.5 255.5 0 0 1-107.6 37.5c-74.6 8.5-124.5-24.2-137-4-9.9 15.8 12.7 49.5 34.3 67.4 32.6 27.1 72.3 25.6 98.7 24.6 23.8-.9 71.3-3.2 112-38a158 158 0 0 0 20.7-21.8c6.3-15.2 11.5-33.2-.7-44.2zM1126.2 1563.5c1.1-23.9 35.5-39.7 62-38 5.1.3 27.4 1.7 32 14 7.5 20.1-32.9 69-66 60-15.3-4.2-28.8-20.5-28-36zM875 1307.9c12.2-20.5 50-18.3 72.5-4.4 4.5 2.7 23.4 14.4 21.7 27.4-2.8 21.4-61.4 45.5-86.5 21.9-11.5-10.8-15.7-31.6-7.7-44.9zM1052.8 1596c-20.2 12.8-52.9-6.4-66.7-29-2.7-4.5-19.2-38.6-6.8-34.3 37.4 13.2 50.9 13.2 75.7 4.4a36.1 36.1 0 0 1 11.3 15.3c5.3 14.9-.4 35.3-13.5 43.6zM1897.2 1460.3c-20.2 12.8-52.8-6.4-66.6-29-2.7-4.5-14.3-23.5-6.9-34.3 12.2-17.7 75.4-12.6 87 19.7 5.3 14.9-.3 35.3-13.5 43.6zM1344.2 820.8c8.1 27.9-24.2 47.1-20.7 95.3 1 13.8 4.4 23.4 8.7 35.4 6.2 17.4 26.7 75.1 59.3 79.3 34.2 4.5 68.6-51.7 82.7-87.3s6.5-48 16-105.4c14.2-86.4 37.4-93.8 32.6-131.3-8.2-65.5-91.9-147.8-166.6-124-77.9 24.8-99.9 149.8-64.7 194.7 17.8 22.7 45.6 19 52.7 43.3zM1832.7 1517.9a36.7 36.7 0 0 1-36.7 36.7c-20.2 0-55.5-25.4-55.5-45.6s35.3-27.7 55.5-27.7a36.6 36.6 0 0 1 36.7 36.6zM1701.9 1578.2a15.2 15.2 0 0 1-15.2 15.2c-8.4 0-24.2-10.8-24.2-19.2s15.8-11.2 24.2-11.2a15.2 15.2 0 0 1 15.2 15.2zM1115.2 1793.4a15.2 15.2 0 0 1-15.2 15.2c-8.4 0-24.2-10.8-24.2-19.2s15.8-11.2 24.2-11.2a15.2 15.2 0 0 1 15.2 15.2zM1326 1020.6a15.2 15.2 0 0 1-30.4 0c0-8.4-.6-21.4 7.8-21.4s22.6 13 22.6 21.4z"></path><circle cx="1714.9" cy="1704.5" r="27" fill="#44e192"></circle><path fill="#44e192" d="M1228.7 1444.4a16.3 16.3 0 1 1-32.6 0c0-9 13.3-21.9 22.3-21.9s10.3 12.9 10.3 21.9zM1033.2 1810.5c0 25.2-40.4 44.8-65.7 44.8a45.8 45.8 0 1 1 0-91.5c25.3 0 65.7 21.4 65.7 46.7zM1145.4 2023a25.3 25.3 0 0 1-25.3 25.3c-13.9 0-38.9-25.9-38.9-39.8s25-10.7 38.9-10.7a25.2 25.2 0 0 1 25.3 25.2zM1588.9 971.4c0 12.7-3.4 31.7-16.1 31.7s-29.8-19-29.8-31.7a23 23 0 1 1 45.9 0zM1855.3 859.2c0 74.1-109.7 176.7-183.8 176.7s-65.4-88.2-59.3-162.1S1647 725 1721.1 725a134.2 134.2 0 0 1 134.2 134.2zM1206.3 875.9c20.2 119.6-63 174.2-140.7 174.2S925 972.1 925 875.9s62.9-174.1 140.6-174.1 124.7 79.3 140.7 174.1z"></path><path fill="#44e192" d="M1147.2 1164.5c0 95.3 55.9 165-39.4 165s-184.3-78-184.3-173.3-13.7-156.7 81.7-156.7 142 69.6 142 165zM2027.5 1976.5s-61.3-1-44.3 71-20.6 109.9-9.3 124.4l11.3 14.6a667.1 667.1 0 0 0 37-78c13-16 72.2 11.7 77.3-43 2.4-25.6-64.9-61.5-72-89zM917.1 2023s46.7-39.5 70.4 23.5 20.9 96.9 57.3 129.9l5.6 77.1s-84-32.4-118.7-139.4c-4.1-12.6-48.7 1.3-51.2-13.4s37-59.7 36.6-77.7zM1945.4 1140.5c87.6 13.7 167.2 76.5 195.3 160.5 8.9 26.5 12.4 57.2-2.3 81-11.2 18-31.3 29.1-52.1 33.3s-42.3 2.2-63.3-1c-52.2-8-102.9-23.6-153.4-39.1s-102.4-46-154.1-61.9c-16.2-4.9-33.7-10.9-42.7-25.2-26.9-43.1 26.3-78.4 54.2-100.5 39-30.8 84.4-38 133.5-46.3a262.9 262.9 0 0 1 84.9-.8zM1603.3 850.4l50.9 36.4 49.3 52.7 49.3 76.6 38.9 63.3c5.2-8.1 1193.7-742.5 1192.5-747.9-2-8.7 0-319.9 0-319.9H1959.8z"></path><path fill="#44e192" d="M1222.2 859.5L818 11.6H18.2v903.2l1046 176.5 38.8-90 28.2-56.9 24.8-29.6 38.3-35.3 27.9-20z"></path></g></g></g><g id="shadow" style="mix-blend-mode:multiply"><defs><clipPath id="bodyShadow__b"><path fill="none" d="M1852.5 1272.5c52-29.9 36.3-78.3 6.3-107a65.8 65.8 0 0 0-31.1-16.8l-42.7-81.3 23.2-11.2c62.6-34.7 86.6-81.7 81.3-107.7s-9.6-33.5-9.6-33.5l-28.9-18.2c16.1-19.2 53.9-44.7 58.6-75.5l3.8-17-6.5-18.1c-73.4-45.3-182.6-.4-288.9 74.5l-11-6.7c-18.2-9.1-41-16.5-61.2-20.8 42.5-33.5 61.7-125.3 3.4-143.9-16.5-5.2-49.2 6.9-57 24.9 3.4-12 7.8-36.1-32-64.2-11.2-7.9-36-13.5-37-13.5-18-.2-31-2.7-41.2 3.5-12.3 7.6-46.6 28.3-58.7 79.2-.3 1.2-24-10.8-25.2-10.6-29 3.1-32.3 17.7-39.7 24-13.8 11.5-33 83.3 7.3 98.7 4.6 1.8 8.4 1.8 11.4 5.9a237.4 237.4 0 0 0-65.6 29.2l-8.3-5.7c-132.3-100.8-236.4-77.2-236.4-77.2s-53.3 3.3-36.7 54.5 65.8 76.8 65.8 76.8c-18.9.6-62.3 23.3-39.7 79.3 36.9 91.6 109.8 92.6 109.8 92.6-5.2 20.8-20.2 57.4-20.2 57.4-61.9-7.3-101.5 45-96.7 81.4 6.3 48.6 52.4 48 52.4 48-17.3 35.4 4.5 59.2 18.3 62.6l9.7 5.9s7.7 3.9 14.3 4.8c0 0-23.6 132-28.2 146.1l-1.8 9.8c-2.3 14.2-5.9 33-7.8 40.7l-86.8 456.2a248.6 248.6 0 0 0 12.7 117.6l-.6.2c-38.1 9.1-130.5 43.4-184.5 78.3-26.5 17.1-10.1 55.9 23.2 55.3l266.9-5.2c4.5 2.7 9.1 5.4 13.8 7.9v3.3c.4 23.3-6.6 42.4-29.9 43.5-15.6.8-28.2 9.9-30.7 21.1-4.7 21.5 5.9 38.9 27.3 40.4l84.3 5c26.4 1.6 51.8-11.3 65.3-34.1a72.2 72.2 0 0 0 8.8-23.9l5-26.6h533.6l3.4 20.7a71.6 71.6 0 0 0 43.2 54.3 52.6 52.6 0 0 0 22.2 3.9l91.9-3c22-2.2 30.1-15.7 27.8-36.9-.7-7-6.2-24.5-24.4-25.6-15.8-.8-25.3-8.6-28.1-21.9a243.5 243.5 0 0 0 65.3-28l261.5 5.1c33.3.6 49.3-37.5 23.2-55.3-43-29.4-132.4-61.7-179.8-75.5l-.8-.3a247.8 247.8 0 0 0 6.4-155.8l-134.6-437.7-4.4-14.7c-3.6-11.7-5.5-17.7-9.2-29.6l-42.5-138.5c17.6-15.4 15.6-58.5-.9-64.6.1 0-2.4 5.2 17.9-6.5z"></path></clipPath><linearGradient id="bodyShadow__a" x1="922.57" x2="1128.9" y1="944.4" y2="944.4" gradientUnits="userSpaceOnUse"><stop offset="0" stop-color="gray"></stop><stop offset=".14" stop-color="#797979"></stop><stop offset=".35" stop-color="#646464"></stop><stop offset=".6" stop-color="#434343"></stop><stop offset=".89" stop-color="#141414"></stop><stop offset="1"></stop></linearGradient><linearGradient id="bodyShadow__c" x1="688.66" x2="916.32" y1="932.23" y2="932.23" gradientTransform="matrix(-1, 0, 0, 1, 2627.47, 0)" xlink:href="#bodyShadow__a"></linearGradient></defs><g style="isolation:isolate"><g clip-path="url(#bodyShadow__b)"><path fill="#7f7f7f" d="M1060.8 1346.5c-5.5 37.7-22.7 254.7-25.6 291-9.5 118.4-22.8 231-30.1 289.3a927.6 927.6 0 0 0-6.8 98.5v3.3c23.6 26 47.7 88.8 52.6 176.8l1.4 49s-31.4-.7-81-.7c-62 0-110.9-111.8-79.2-278.2 17.8-93.5 77.8-536.8 124.5-640.5 31.8 18.4 44.2 11.5 44.2 11.5z" opacity=".2"></path><path fill="#7f7f7f" d="M1226.5 2040.4c-24.3 147.7 54.2 178.3 68.5 181.6 86.5 15.5 223.8 8.8 268.5-7 41.8-14.7 129.9-58.5 108-189.4l43 256.8h-533.6z" opacity=".2"></path><path fill="#7f7f7f" d="M1854.3 2157.4s29.9-91.4 66.3-124.9c-39.4 75 14.1 92.7 28.1 87.7 53.7-19.2 74.9-66.7 79.2-150l65.3 116.3s-55 256-204 214l-38.7-18.1z" opacity=".2"></path><path style="mix-blend-mode:multiply" fill="url(#bodyShadow__a)" d="M1116.2 976.8l-10 18.7a770.3 770.3 0 0 1-40.2 91.2c-90-32.7-116.5-70.6-114.5-137.2.6-20.3 29.3-38.9 43.3-32 23.1 11.3 35.4 19.3 35.4 19.3-43.3-25.7-108.8-92.8-107.4-116.7 0 0-2-14 6.7-18 0 0 78.7 8.7 141.3 64.7s58 90.7 58 90.7l-10.6 16z" opacity=".4"></path><path style="mix-blend-mode:multiply" fill="url(#bodyShadow__c)" d="M1784.3 1074c79.5-32.2 124.6-77.1 122.6-136.2-.7-20.3-31.7-29.3-44.1-33.5-5.4-13.8-41.1 9.2-41.1 9.2 47.7-25.8 118.4-81.2 116.9-105.1 0 0 2.2-14-7.4-18 0 0-86.8 8.7-156 64.7s-64 90.7-64 90.7" opacity=".4"></path><path fill="#7f7f7f" d="M1127.7 1045c30.1-102.9 91.7-159.8 165.5-181.2l-16.1-26.6c-147.4 42.8-172.9 163.5-172.9 163.5s-10.2 17.7-10 20.8c-10 20-25.5 60.1-25.5 60.1-231-9.6-153.3 161.2-82 245.9 15.5 18.4 69.5 14.3 69.5 14.3l-3.4-4.4s-38.3-41-20-67.3c10.4-14.9 25.8-24.6 25.8-24.6-71.6 31-84.1-49-66.8-70s37.7-25 37.7-25c17-.8 21.2.9 21.2.9 4.4-4 44 6.1 77-106.4z" opacity=".2"></path><path fill="#7f7f7f" d="M1240.8 781.5s-9 37.8 22 49.3c22.4 8.3 29.2 23 29.9 33 0 0 41.8-44.3 8.5-65s-49.7-47.1-43-50.4c0 0-12.7 5.7-17.4 33.1z" opacity=".2"></path><path fill="#7f7f7f" d="M1339.9 745.5s1.2-9.4-9.8-17.6c0 0-1.8-8.7-5.7-14.2 0 0 6.4-41.6 24.4-52.2a118 118 0 0 1 38.4-15.5s-43 32.1-47.3 99.5z" opacity=".2"></path><path fill="#7f7f7f" d="M1532 695.1s-20.9-8-42.7 22.5c-13.7 19.2 2.9 45.4 4.1 40.6 3.4-13.6 2.8-18.7 9.8-35.3 8-18.8 28.8-27.8 28.8-27.8z" opacity=".2"></path></g></g></g><g id="highlight" style="mix-blend-mode:overlay"><defs><clipPath id="bodyHighlight__c"><path fill="none" d="M1852.5 1272.5c52-29.9 35-77 6.3-107-6.2-6.5-31.1-16.8-31.1-16.8l-43.4-81.3 23.9-11.2c72.7-45.6 87.2-92.1 82-118.1s-37.4-38.6-37.4-38.6l.2-7.6c27-17.8 43.5-36.4 56.6-70.6l3.8-17-6.5-18.1c-83.9-43.2-182.6-.4-288.9 74.5l-11-6.7c-18.2-9.1-38.4-18.6-58.6-22.9 47.9-36.3 46.4-135-2.2-142.6-14.5-2.3-41.4 3-51.8 26.1 1.8-11.8.7-16.9-3.7-29.3s-25.2-33.3-39.2-41.2a69.5 69.5 0 0 0-25.8-8.1c-18-.2-33.5-2.2-43.7 4-12.3 7.6-49.8 28.8-58.7 79.2-.2 1.2-14.5-16.3-35.3-6.3-22.7 10.9-24.7 18.8-32.2 26.3-12.7 12.7-19.9 77.3 10.2 88 4.6 1.7 8.1 5.9 11.1 10a237.4 237.4 0 0 0-65.6 29.2l-8.3-5.7c-132.3-100.8-236.4-77.2-236.4-77.2s-53.3 3.3-36.7 54.5 65.8 76.8 65.8 76.8c-18.9.6-67.8 23.4-37.5 83.6 31.6 62.7 77.2 80.6 107.6 88.5-6.4 19.1-11.9 34.8-19.8 57.2-71 .2-97.1 49.6-97.1 81.4 0 54.3 55.8 47.6 55.8 47.6-17.3 35.5-.7 65.7 38.7 73.4 0 0-35.7 189.2-37.6 196.9l-86.8 456.2a248.6 248.6 0 0 0 12.7 117.6l-.6.2c-38.1 9.1-130.5 43.4-184.5 78.3-26.5 17.1-10.1 55.9 23.2 55.3l266.9-5.2c4.5 2.7 9.1 5.4 13.8 7.9v3.3c.4 23.3-6.6 42.4-29.9 43.5-15.6.8-28.2 9.9-30.7 21.1-4.7 21.5 5.9 38.9 27.3 40.4l84.3 5c26.4 1.6 51.8-11.3 65.3-34.1a72.2 72.2 0 0 0 8.8-23.9l5-26.6h533.6l3.4 20.7a71.6 71.6 0 0 0 43.2 54.3 52.6 52.6 0 0 0 22.2 3.9l91.9-3c22-2.2 30.1-15.7 27.8-36.9-.7-7-6.2-24.5-24.4-25.6-15.8-.8-25.3-8.6-28.1-21.9a243.5 243.5 0 0 0 65.3-28l261.5 5.1c33.3.6 49.3-37.5 23.2-55.3-43-29.4-132.4-61.7-179.8-75.5l-.8-.3a247.8 247.8 0 0 0 6.4-155.8l-134.6-437.7-4.4-14.7c-3.6-11.7-5.5-17.7-9.2-29.6l-2.2-7.2-40.3-131.3c6.9-11.7 22.5-39.5.6-65.1.1 0-3.9 5.7 16.4-6z"></path></clipPath><linearGradient id="bodyHighlight__a" x1="1921.01" x2="1921.01" y1="2255.56" y2="1289.47" gradientUnits="userSpaceOnUse"><stop offset="0" stop-color="#fff" stop-opacity="0"></stop><stop offset=".72" stop-color="#fff"></stop></linearGradient><linearGradient id="bodyHighlight__d" x1="2116.32" x2="2116.32" y1="2248.97" y2="2113.28" xlink:href="#bodyHighlight__a"></linearGradient><linearGradient id="bodyHighlight__e" x1="1044.74" x2="1044.74" y1="2253.08" y2="2117.39" gradientTransform="matrix(-1, 0, 0, 1, 1878.82, 0)" xlink:href="#bodyHighlight__a"></linearGradient><linearGradient id="bodyHighlight__f" x1="987.94" x2="987.94" y1="2254.49" y2="1345.43" xlink:href="#bodyHighlight__a"></linearGradient><linearGradient id="bodyHighlight__g" x1="1689.27" x2="1689.27" y1="1190.22" y2="877.32" xlink:href="#bodyHighlight__a"></linearGradient><linearGradient id="bodyHighlight__h" x1="1875.99" x2="1927.87" y1="1342.88" y2="1442.08" gradientTransform="matrix(-0.57, -0.48, 0.57, -0.67, 2140.35, 3038.82)" xlink:href="#bodyHighlight__a"></linearGradient><linearGradient id="bodyHighlight__b" x1="1561.13" x2="1561.13" y1="829.6" y2="673.11" gradientUnits="userSpaceOnUse"><stop offset="0" stop-color="#fff" stop-opacity="0"></stop><stop offset=".15" stop-color="#fff"></stop></linearGradient><linearGradient id="bodyHighlight__i" x1="1503.71" x2="1343.55" y1="721.73" y2="563.49" gradientUnits="userSpaceOnUse"><stop offset="0" stop-color="#fff" stop-opacity="0"></stop><stop offset=".2" stop-color="#fff"></stop></linearGradient><linearGradient id="bodyHighlight__j" x1="1355.39" x2="1204.9" y1="776.62" y2="604.59" gradientTransform="matrix(0.75, -0.02, -0.02, 1, 331.65, 31.2)" xlink:href="#bodyHighlight__b"></linearGradient><linearGradient id="bodyHighlight__k" x1="1766.93" x2="1766.93" y1="891.55" y2="768" xlink:href="#bodyHighlight__a"></linearGradient><linearGradient id="bodyHighlight__l" x1="1068.87" x2="1068.87" y1="897.76" y2="752.77" xlink:href="#bodyHighlight__b"></linearGradient><linearGradient id="bodyHighlight__m" x1="1804.06" x2="1851.88" y1="1339.6" y2="1241.45" xlink:href="#bodyHighlight__a"></linearGradient></defs><g style="isolation:isolate"><g clip-path="url(#bodyHighlight__c)" opacity=".3"><path style="mix-blend-mode:overlay" fill="url(#bodyHighlight__a)" d="M1802.2 1349.1c60.7 163.8 122.1 415.7 168.6 620.3s-80.7 286.2-80.7 286.2l61.1-35.6s62.8-74.9 72.2-107.8c20.7-71.9 22.8-66.1.8-180.7-32-166.4-141-630.9-151-642-32 72.5-71 59.6-71 59.6z"></path><path fill="url(#bodyHighlight__d)" d="M1999.2 2162.4s113.2 21.1 98.3 83.6l92.7 3 43.3-6.5-4.3-68.5-206.9-60.7z"></path><path fill="url(#bodyHighlight__e)" d="M951.2 2166.5s-113.2 21.1-98.3 83.6l-92.7 3-43.3-6.5 4.3-68.5 206.9-60.7z"></path><path fill="url(#bodyHighlight__f)" d="M1012.8 1345.4l46.1 2.1s-138.6 704.6-94.1 764.1c58.8 78.6 83.4 111.3 83.4 111.3l3.9 31.6s-139.1-70-135-209 95.7-700.1 95.7-700.1z"></path><path style="mix-blend-mode:overlay" fill="url(#bodyHighlight__g)" d="M1550.8 836.8s48.9 38.1 76.8 64.4 54.1 81.7 102.6 166.2c31 54 97.5 81.3 97.5 81.3l-28.5-53.3s-69.7-127.3-117.8-179.9c-28.4-31.2-73.3-64.6-124.2-79.7z"></path><path style="mix-blend-mode:overlay" fill="url(#bodyHighlight__h)" d="M1827.7 1148.7c4.2 6.2 12.3 1.6 16.5 7.8s40 25 41 69c.4 20.4-14 41-50 48 35.3-6.9 29-67 3-86-18-18-11.5-28.8-13.2-33"></path><path style="mix-blend-mode:overlay" fill="url(#bodyHighlight__b)" d="M1537 694.1s46.4 5 1.7 155.7c0 0 42.1-53.9 46.1-93 3.1-30.6-10.7-69.8-47.8-62.7z"></path><path style="mix-blend-mode:overlay" fill="url(#bodyHighlight__i)" d="M1414.9 639.1c1.9.9 23.5 10.2 45.1 39 13.5 18.1 19.7 38.2 24.6 53.3 0 0 19.5-28.6-.6-56.3-26.2-35.9-69.1-36-69.1-36z"></path><path style="mix-blend-mode:overlay" fill="url(#bodyHighlight__j)" d="M1272 727.5s41.8 3.3 70.8 37.3c0 0 4.4-17.3-21.4-51.1-6.8-9-23.1-22.9-49.4 13.8z"></path><path style="mix-blend-mode:overlay" fill="url(#bodyHighlight__k)" d="M1629.9 869.6a16 16 0 0 1 9.4 9.8c1.4 4.1 7.8 21 20.3 6.1 109.2-129.9 285.8-97.9 236.2-109.5-19.6-4.6-68-23.6-161 20.6-118.4 56.4-104.9 73-104.9 73z"></path><path style="mix-blend-mode:overlay" fill="url(#bodyHighlight__l)" d="M905.2 812.5s109.8-60.4 271 85.3l58.2-40.9s-150.5-141.2-268.6-94.8c-79.2 31.1-60.6 50.4-60.6 50.4z"></path><path style="mix-blend-mode:overlay" fill="url(#bodyHighlight__m)" d="M1802.2 1279.5s39 56.6 0 69.6c0 0 42.6 6.4 43-44.6.2-35.3-43-25-43-25"></path></g></g></g><g id="bodyMask"></g><g id="body"><path fill="none" stroke="#31323d" stroke-linecap="round" stroke-miterlimit="10" stroke-width="12.5" d="M1714.5 2282.4h-533.6"></path><path fill="none" stroke="#31323d" stroke-linecap="round" stroke-miterlimit="10" stroke-width="12.5" d="M1835.6 1343.6l190.7 620.5c39 137.9-45.2 275-175.8 309.8"></path><path fill="none" stroke="#31323d" stroke-linecap="round" stroke-miterlimit="10" stroke-width="12.5" d="M1050.7 2253.7c-89.1-47.1-145.6-146.2-131.5-254.1l124.4-653.1"></path><path fill="#31323d" d="M1228.6 2040.8c-3.4 30.5-8.1 60.7-13.2 90.9-2.6 15.1-5.4 30.1-8.2 45.2l-8.3 45.1-16.6 90.4a75.9 75.9 0 0 1-8.8 23.5 75.1 75.1 0 0 1-16.1 19.4 77.9 77.9 0 0 1-45.9 18.8c-2.1.2-4.2.2-6.3.2h-6l-11.5-.7-22.9-1.3-45.9-2.8a56.5 56.5 0 0 1-6.4-.7 38.7 38.7 0 0 1-6.7-1.7 36.8 36.8 0 0 1-12.3-7.3 35.3 35.3 0 0 1-8.3-11.7 43.4 43.4 0 0 1-3.1-13.5 58.3 58.3 0 0 1 1-13.3 31.5 31.5 0 0 1 .9-3.6 36.8 36.8 0 0 1 1.5-3.5 29.7 29.7 0 0 1 4.1-6.3 36.8 36.8 0 0 1 11-8.7 45 45 0 0 1 12.7-4.6 49.5 49.5 0 0 1 6.6-.8l2.6-.2 2.3-.3a25.8 25.8 0 0 0 4.2-1.2 16.9 16.9 0 0 0 3.8-1.9c4.6-3 7.7-8.4 9.4-14.8a54.6 54.6 0 0 0 1.6-10.1 47.1 47.1 0 0 0 .3-5.3v-5.5l-1-22.9-1.8-45.8c-.6-15.3-1.3-30.5-1.8-45.8v.5c-.6-5-1.3-9.9-2.1-14.9s-1.6-9.8-2.6-14.7-2.1-9.7-3.4-14.4-2.7-9.5-4.3-14.2-3.5-9.3-5.5-13.8-4.3-8.9-6.6-13.3a195.2 195.2 0 0 0-16.5-24.9 2.3 2.3 0 0 1 .4-3.2 2.2 2.2 0 0 1 2.9.2 157.1 157.1 0 0 1 19.8 23.9c2.9 4.3 5.5 8.8 8 13.4a151.2 151.2 0 0 1 6.7 14.1q3 7.4 5.4 14.7t4.2 15c1.3 5.1 2.3 10.2 3.3 15.2s1.7 10.2 2.4 15.3v.5c.9 15.3 1.6 30.6 2.4 45.9l2.3 45.9 1.1 22.9.2 2.9v3.1c0 2.1-.1 4.1-.2 6.2a69.1 69.1 0 0 1-2 12.5 51 51 0 0 1-2 6.3 39.9 39.9 0 0 1-3.1 6.2 32.4 32.4 0 0 1-9.8 10.4 35.6 35.6 0 0 1-13.2 5.3l-3.3.5-1.7.2h-1.5a35.5 35.5 0 0 0-4.7.6 29.9 29.9 0 0 0-8.8 3.2 23.3 23.3 0 0 0-6.9 5.4 14.1 14.1 0 0 0-2.2 3.4 12.2 12.2 0 0 0-.7 1.7 19.3 19.3 0 0 0-.5 2 39.2 39.2 0 0 0-.7 9.6 27.7 27.7 0 0 0 2 8.7 20.2 20.2 0 0 0 4.9 6.9 20.5 20.5 0 0 0 7.3 4.3 31.5 31.5 0 0 0 4.4 1.1c1.6.2 2.9.4 5 .5l45.8 2.6 22.9 1.4 11.4.7h5.4l5.2-.2a64.3 64.3 0 0 0 37.6-15.2 61.6 61.6 0 0 0 13.1-15.7 66.5 66.5 0 0 0 7.4-19.3l17.3-90 8.7-45c2.9-15.1 5.8-30.1 8.9-45.1 6.2-30 12.7-59.9 20.7-89.5a2.2 2.2 0 0 1 2.7-1.6 2.1 2.1 0 0 1 1.6 2.6z"></path><path fill="#31323d" d="M1095.2 2319.6h-1.5l-1.7.2a17.3 17.3 0 0 0-3.2 1.1 21.2 21.2 0 0 0-5.7 3.6 30.1 30.1 0 0 0-7.8 11.3 56.8 56.8 0 0 0-3.9 13.7 118.3 118.3 0 0 0-1.4 14.6 6.3 6.3 0 0 1-6.5 6 6.2 6.2 0 0 1-6-6.5 2.5 2.5 0 0 1 .1-.8 109.3 109.3 0 0 1 3.6-15.8 70 70 0 0 1 6.6-15.2 37.8 37.8 0 0 1 11.4-12.5 27.7 27.7 0 0 1 7.8-3.6 20.4 20.4 0 0 1 4.3-.8h4.5a2.3 2.3 0 0 1 1.8 2.6 2 2 0 0 1-2 1.8z"></path><path fill="#31323d" d="M1052.7 2314.9h-.7l-.9.2-1.6.4-1.6.7-1.5.7a26.2 26.2 0 0 0-5.5 3.9 33.7 33.7 0 0 0-7.8 11.2c-1 2.1-1.6 4.4-2.4 6.6a8.5 8.5 0 0 0-.4 1.7l-.4 1.7c-.3 1.2-.6 2.3-.8 3.5s-.7 4.7-.9 7l-.5 7.2v.4a6.3 6.3 0 0 1-12.5-.7 1.9 1.9 0 0 1 .1-.8l1.5-7.9c.6-2.6 1.4-5.2 2.1-7.8s1-2.6 1.4-3.8l.7-1.9c.3-.7.5-1.3.8-1.9a63.7 63.7 0 0 1 3.9-7.3 40.7 40.7 0 0 1 11.1-12.3 35.3 35.3 0 0 1 7.5-3.8l2-.7 2-.5 2.1-.3h2.3a2.2 2.2 0 0 1 2.1 2.3 2.1 2.1 0 0 1-1.8 2.1z"></path><path fill="#31323d" d="M1673.7 2025.2c8.1 34.9 15 70 21.4 105.1l4.7 26.4 4.5 26.4 9.1 52.8 9.1 52.8 2.3 13.2a67.2 67.2 0 0 0 3.1 11.7 78.2 78.2 0 0 0 5.3 10.9 67 67 0 0 0 7.1 9.7 69.8 69.8 0 0 0 8.9 8.2 67.2 67.2 0 0 0 10.2 6.4c.8.5 1.8.8 2.7 1.3l2.7 1.1a38.6 38.6 0 0 0 5.5 1.7 41.3 41.3 0 0 0 11.6 1.3l53.2-1.8 26.7-.8 6.7-.2h6.6l2.7-.4 2.7-.5 2.6-.8 1.2-.5 1.2-.5a3.9 3.9 0 0 0 1.1-.6l1.1-.6 2-1.4c.5-.5 1.1-1 1.6-1.6l.7-.9.4-.4.3-.5a21.9 21.9 0 0 0 3.3-9.5 26.6 26.6 0 0 0 .3-2.8v-4.4c0-.5-.1-1-.1-1.5v-1.5c0-.2-.1-.5-.1-.7v-.6a23 23 0 0 0-1.3-5 23.7 23.7 0 0 0-2.3-4.8l-.6-1.1-.8-1c-.5-.7-1.1-1.2-1.6-1.9a20.7 20.7 0 0 0-3.8-2.8l-1-.5-1.1-.4-2.3-.7h-4l-1.9-.2a42.6 42.6 0 0 1-15.4-4.6 31.9 31.9 0 0 1-12-11.9 38.7 38.7 0 0 1-4.7-15.4 24.8 24.8 0 0 1-.2-3.8v-3.7l.2-6.7.6-26.9.6-26.8c0-1.1.1-2.3.2-3.4l.2-3.5.6-6.9.8-6.8c.3-2.3.6-4.5 1-6.8a261.4 261.4 0 0 1 14.1-52.9c.7-2.1 1.6-4.2 2.5-6.3l2.7-6.3c.9-2.1 1.9-4.2 2.8-6.2s1.9-4.2 3-6.2c4.2-8.1 8.5-16 13.4-23.7a271.6 271.6 0 0 1 33.4-42.6 2.2 2.2 0 0 1 3.2-.1 2.2 2.2 0 0 1 .2 2.9 375.6 375.6 0 0 0-28.7 44.6c-4.3 7.7-8.1 15.6-11.7 23.6-1 2-1.8 4-2.7 6s-1.7 4-2.5 6.1l-2.3 6.1c-.8 2.1-1.6 4.1-2.2 6.2a278.7 278.7 0 0 0-12.7 50.7c-.4 2.1-.6 4.3-.8 6.5l-.7 6.5c-.3 2.1-.3 4.3-.5 6.4l-.2 3.3c-.1 1-.2 2.1-.2 3.2l-.3 26.8-.4 26.7v6.7a7.1 7.1 0 0 0 .1 1.5v1.5a29.6 29.6 0 0 0 3.3 12.9 17.3 17.3 0 0 0 6.8 6.6 27 27 0 0 0 10.2 2.9h1.4l1.7.2 2.1.2h1.1l1 .3a32.5 32.5 0 0 1 4.2 1.1l2 .8 2 1a32.6 32.6 0 0 1 7 5.2 41.2 41.2 0 0 1 2.8 3.1l1.2 1.7 1.1 1.8a39.9 39.9 0 0 1 3.5 7.2 50.9 50.9 0 0 1 2.1 7.9v1.1a2.8 2.8 0 0 1 .1.9l.2 1.9c0 .6.1 1.2.1 1.8v3.8c0 .6-.1 1.3-.1 1.9s-.2 2.6-.4 3.9a35.2 35.2 0 0 1-5.4 15.5l-.6.9-.7.9-1.4 1.7c-1 1.1-2.1 2.1-3.1 3l-3.5 2.6-1.8 1-1.9 1-1.9.8a6.2 6.2 0 0 1-1.9.7c-1.2.4-2.5.9-3.8 1.2l-3.8.8-4 .6h-3.4l-3.4.2-6.7.2-26.8.9-53.9 1.7a63.3 63.3 0 0 1-15-1.7 61.8 61.8 0 0 1-7.3-2.3l-3.4-1.5a33.6 33.6 0 0 1-3.3-1.6 90 90 0 0 1-12.5-7.8 82.2 82.2 0 0 1-19.4-21.9 80.9 80.9 0 0 1-6.3-13.3 78.1 78.1 0 0 1-3.7-14.2l-2.2-13.2-8.6-52.9-8.6-52.9-4.3-26.4-4.1-26.5c-5.4-35.3-10.4-70.7-14-106.4a2.2 2.2 0 0 1 2-2.4 2.3 2.3 0 0 1 2.2 1.2z"></path><path fill="#31323d" d="M1783.1 2307.4h2.4l2.3.2 4.5.8a32.5 32.5 0 0 1 8.4 3.5 37.6 37.6 0 0 1 13.3 12.7c.9 1.3 1.6 2.7 2.4 4l1.9 4.2a72.5 72.5 0 0 1 2.7 8.7 83.7 83.7 0 0 1 2.4 17.8 6.2 6.2 0 0 1-5.9 6.5 6.3 6.3 0 0 1-6.6-6v-.7a82.3 82.3 0 0 0-.2-15.7 47.2 47.2 0 0 0-1.4-7.5c-.3-1.2-.8-2.4-1.2-3.6a36.5 36.5 0 0 0-1.4-3.5 31.8 31.8 0 0 0-9.4-11.5 33.6 33.6 0 0 0-6.7-3.7l-3.7-1.1-1.9-.4-1.8-.3h-.2a2.2 2.2 0 0 1-2-2.4 2.3 2.3 0 0 1 2.1-2z"></path><path fill="#31323d" d="M1833.8 2304.2h2.4l2.3.2 4.4.8a34.7 34.7 0 0 1 8.5 3.5 37.6 37.6 0 0 1 13.3 12.7 41 41 0 0 1 2.3 4 38.9 38.9 0 0 1 1.9 4.2 73.2 73.2 0 0 1 2.8 8.7 98.8 98.8 0 0 1 2.4 17.8 6.3 6.3 0 0 1-6 6.5 6.2 6.2 0 0 1-6.5-5.9v-.8a82.3 82.3 0 0 0-.2-15.7 66.3 66.3 0 0 0-1.5-7.5c-.3-1.2-.7-2.4-1.1-3.6a36.8 36.8 0 0 0-1.5-3.5 29.9 29.9 0 0 0-9.4-11.5 27 27 0 0 0-6.7-3.6 25.3 25.3 0 0 0-3.6-1.2l-1.9-.4-1.8-.3h-.2a2.2 2.2 0 0 1-2-2.4 2.1 2.1 0 0 1 2.1-2z"></path><path fill="#31323d" d="M1202.7 867.7c-8-5.7-16.4-11.1-24.8-16.3s-17-10.3-25.7-15.1a496.8 496.8 0 0 0-53.6-25.7c-9.1-3.7-18.4-7-27.8-9.9a240.6 240.6 0 0 0-28.4-7.1c-4.8-.9-9.6-1.6-14.4-2.2l-7.3-.6-7.3-.4a262.1 262.1 0 0 0-29.4 0 122.2 122.2 0 0 0-28.1 4.6 51.9 51.9 0 0 0-12.2 5.4 25.1 25.1 0 0 0-8.6 8.2 21.5 21.5 0 0 0-3.2 11.2 38.8 38.8 0 0 0 2 12.8c2.6 8.7 7.3 17.2 12.6 25.2 1.4 2.1 2.7 4 4.2 6l2.2 2.9 1 1.4.3.3v.2l.6.7c3.2 3.7 6.6 7.3 10.1 10.8 6.9 7 14 13.9 21.4 20.5a318 318 0 0 0 47.7 35.3 2.5 2.5 0 0 1 .9 3.4 2.6 2.6 0 0 1-3.1 1.1c-4.8-2-9.4-4.2-13.9-6.5s-9-5-13.3-7.7a255.5 255.5 0 0 1-25-17.6q-6-4.8-11.7-9.9c-3.8-3.3-7.6-6.8-11.2-10.4s-7.3-7.2-10.8-11l-.7-.7-.2-.3-.2-.2-.3-.4-1.3-1.6-2.2-3.1c-1.6-2.1-3.1-4.2-4.6-6.4-5.8-8.6-11.1-17.8-14.5-28.3a53.8 53.8 0 0 1-2.7-16.8A35.5 35.5 0 0 1 924 802a38.5 38.5 0 0 1 12.7-12.7 64 64 0 0 1 15.2-6.8c10.4-3.3 20.9-4.7 31.2-5.4a289.9 289.9 0 0 1 30.9-.2l7.6.4 7.8.7c5.2.6 10.3 1.3 15.4 2.3 20.4 3.7 40 10.1 58.9 17.8a479.5 479.5 0 0 1 54.8 26.9 532.4 532.4 0 0 1 51.3 33 6 6 0 0 1-7.1 9.7z"></path><path fill="#31323d" d="M1290.4 864.8c-3.2-4.5-5.8-9-8.7-13.1a72.3 72.3 0 0 0-9-11.2 42.4 42.4 0 0 0-11.2-8l-1.6-.7-1.6-.7-1.2-.5-1.2-.6-2.3-1.4a28.1 28.1 0 0 1-7.3-7.3 46.4 46.4 0 0 1-7.1-17 73.4 73.4 0 0 1-1.9-17.3 104.7 104.7 0 0 1 5.8-33.7 88.6 88.6 0 0 1 7.5-15.5 77.7 77.7 0 0 1 10.3-14 67.9 67.9 0 0 1 13.5-11.4 47 47 0 0 1 17.1-6.9 37.3 37.3 0 0 1 19 1.5 41.5 41.5 0 0 1 15.5 9.8 55.1 55.1 0 0 1 10.3 13.9 58.2 58.2 0 0 1 3.4 7.7 55.3 55.3 0 0 1 2.4 7.9 2.5 2.5 0 0 1-1.9 3.1 2.6 2.6 0 0 1-2.6-1c-3.2-4.2-6.3-8.4-9.5-12.3a71.9 71.9 0 0 0-10.2-10.4 32.7 32.7 0 0 0-11.5-6.6 24.8 24.8 0 0 0-12.4-.6 34.4 34.4 0 0 0-12.1 5.4 58.6 58.6 0 0 0-10.6 9.4 81.1 81.1 0 0 0-14.7 24.9 99.1 99.1 0 0 0-3.8 14.2 91.6 91.6 0 0 0-1.5 14.7 74.6 74.6 0 0 0 1.2 14.3 36 36 0 0 0 4.7 12.4 16.2 16.2 0 0 0 3.8 4l1.1.7c.2.2.4.2.6.3l.6.3 2 1 2 1a51.2 51.2 0 0 1 14.3 10.9 50.6 50.6 0 0 1 9.2 14.9 61 61 0 0 1 4.2 16 2.6 2.6 0 0 1-2.2 2.9 2.4 2.4 0 0 1-2.4-1z"></path><path fill="none" stroke="#31323d" stroke-linecap="round" stroke-miterlimit="10" stroke-width="12.5" d="M931.3 2117.4c-38.1 9.1-130.5 43.4-184.5 78.3-26.5 17.1-10.1 55.9 23.2 55.3l280.4-5.5"></path><path fill="#31323d" d="M840.4 2200.1a58.8 58.8 0 0 0-7.8 2.5 63.6 63.6 0 0 0-7.5 3.4c-4.7 2.7-8.9 6-11.7 10.1a20.7 20.7 0 0 0-3.8 13.3 37.6 37.6 0 0 0 4.5 14 6.3 6.3 0 0 1-2.6 8.5 6.4 6.4 0 0 1-8.5-2.6l-.3-.7a47.2 47.2 0 0 1-3.5-19.2 31.5 31.5 0 0 1 2.2-10 30.5 30.5 0 0 1 5.4-8.6 41.9 41.9 0 0 1 15.5-10.5 53.9 53.9 0 0 1 8.6-2.8 51.9 51.9 0 0 1 8.9-1.7 2.1 2.1 0 0 1 2.4 1.9 2.2 2.2 0 0 1-1.7 2.5z"></path><path fill="#31323d" d="M793 2202.1a21.9 21.9 0 0 0-3.4 1l-3.2 1.4a29.8 29.8 0 0 0-6 3.6 19.9 19.9 0 0 0-7.6 10.2 21.1 21.1 0 0 0-1 6.1 8.6 8.6 0 0 0 .1 1.6 9.2 9.2 0 0 0 .1 1.6c.1.5.1 1 .2 1.6l.3 1.6a51.7 51.7 0 0 0 5 12.6 6.4 6.4 0 0 1-2.6 8.5 6.3 6.3 0 0 1-8.5-2.6 2.1 2.1 0 0 1-.3-.7h-.1a61.9 61.9 0 0 1-3.9-16.2v-4.4a34.2 34.2 0 0 1 .4-4.4 28.8 28.8 0 0 1 2.6-8.5 24.7 24.7 0 0 1 5.1-7.2 28.6 28.6 0 0 1 6.8-5.2 41.3 41.3 0 0 1 7.5-3.2l3.9-1.1a25.7 25.7 0 0 1 4-.6 2.2 2.2 0 0 1 .8 4.3z"></path><path fill="none" stroke="#31323d" stroke-linecap="round" stroke-miterlimit="10" stroke-width="12.5" d="M2020.7 2120.2c47.4 13.8 136.8 46.1 179.8 75.5 26.1 17.8 10.1 55.9-23.2 55.3l-261.6-5.1"></path><path fill="#31323d" d="M2107.6 2193.7a64.1 64.1 0 0 1 8.9 2.1 55.8 55.8 0 0 1 8.6 3.2 43.9 43.9 0 0 1 15.4 11.2 29.7 29.7 0 0 1 5.4 8.7 34.4 34.4 0 0 1 2.2 10.1 47 47 0 0 1-3.5 19.5h-.1a6.2 6.2 0 1 1-11.6-4.5l.3-.7a36.5 36.5 0 0 0 4.4-14.3 21.2 21.2 0 0 0-3.8-13.7 37.8 37.8 0 0 0-11.7-10.7 73.9 73.9 0 0 0-7.4-3.8 62.2 62.2 0 0 0-7.9-2.8h-.1a2.2 2.2 0 0 1 .9-4.3z"></path><path fill="#31323d" d="M2155.1 2195.7a25.9 25.9 0 0 1 4 .9c1.4.3 2.7.8 4 1.2a47.4 47.4 0 0 1 7.5 3.7 31.1 31.1 0 0 1 6.6 5.5 27.8 27.8 0 0 1 5.1 7.4 31.7 31.7 0 0 1 2.6 8.6 576 576 0 0 1 .4 4.5v4.4a60.2 60.2 0 0 1-4 16.6 6.3 6.3 0 0 1-11.7-4.4l.3-.8a46.6 46.6 0 0 0 5-12.9 25.6 25.6 0 0 0-.4-12.9 23.6 23.6 0 0 0-7.6-10.8 36.8 36.8 0 0 0-6-4 31.3 31.3 0 0 0-3.2-1.5 27.9 27.9 0 0 0-3.4-1.2h-.1a2.1 2.1 0 0 1-1.5-2.7 2.2 2.2 0 0 1 2.4-1.6z"></path><path fill="#31323d" d="M1061.1 1347.8a53.2 53.2 0 0 1-30.4.9 55.5 55.5 0 0 1-27.2-16.5 52.1 52.1 0 0 1-8.7-14 47.9 47.9 0 0 1-3.4-16.2 51.7 51.7 0 0 1 1.8-16.2 61.1 61.1 0 0 1 6.2-14.6 6.1 6.1 0 0 1 8.5-2.2 6.2 6.2 0 0 1 2.6 7.9h-.1a69 69 0 0 0-4.1 12.1 42.3 42.3 0 0 0-1 12.2 36 36 0 0 0 2.5 11.7 38.4 38.4 0 0 0 6.1 10.3 44.5 44.5 0 0 0 9.1 8.2 52.5 52.5 0 0 0 11.3 5.8c8 3 16.8 4.5 26.2 5.6h.1a2.4 2.4 0 0 1 2.2 2.8 2.5 2.5 0 0 1-1.7 2.2z"></path><path fill="none" stroke="#31323d" stroke-linecap="round" stroke-miterlimit="10" stroke-width="12" d="M986.4 914.8s-60.6 14.6-27.4 85.8c18.6 39.8 64 72.3 107 86.1"></path><path fill="#31323d" d="M1616.6 854.1c16.9-12.5 34.4-24 52.3-34.9a590.5 590.5 0 0 1 55.5-29.8c19.1-8.8 38.9-16.6 59.6-21.8a188.7 188.7 0 0 1 31.8-5.4c2.7-.3 5.3-.4 8-.5l7.9-.3q8-.3 15.9 0c10.7.4 21.5 1.3 32.2 3.8a82 82 0 0 1 16.1 5.3 46.4 46.4 0 0 1 14.7 10.2 35.3 35.3 0 0 1 5.6 7.7 33.8 33.8 0 0 1 3.1 9.1 41.8 41.8 0 0 1-.5 18 75.7 75.7 0 0 1-5.6 16 131.6 131.6 0 0 1-8 14.3c-3 4.5-6.1 8.9-9.4 13.1l-1.3 1.7-.3.4-.5.5-.7.8-2.7 2.9-5.6 5.6a315.8 315.8 0 0 1-23.6 21.2 260.7 260.7 0 0 1-25.7 18.4 196.4 196.4 0 0 1-28 14.7 2.5 2.5 0 0 1-3.3-1.4 2.5 2.5 0 0 1 1-3.1h.1a313.9 313.9 0 0 0 49.1-36.7c7.6-6.8 15-13.9 22.1-21.3l5.2-5.5 2.5-2.9.6-.7.2-.2.3-.3 1.1-1.4c3-4 5.9-8.1 8.6-12.4 5.2-8.4 9.7-17.3 11.6-26.3a29.7 29.7 0 0 0 .3-12.9 20.6 20.6 0 0 0-5.5-10.4 35.1 35.1 0 0 0-10.9-7.2 71.2 71.2 0 0 0-13.5-4.4 159.7 159.7 0 0 0-29.6-3.2c-5.1-.1-10.2-.1-15.2.1-2.6 0-5.1.2-7.7.3l-7.5.4a178 178 0 0 0-29.6 5.1 295.2 295.2 0 0 0-29 9.1c-9.6 3.6-19 7.5-28.3 11.8-37.2 17.1-72.7 38.6-106.3 62.2h-.1a6 6 0 0 1-8.3-1.5 6 6 0 0 1 1.3-8.2z"></path><path fill="none" stroke="#31323d" stroke-linecap="round" stroke-miterlimit="10" stroke-width="12" d="M1850.8 897.8s62.7 16.4 29.4 87.5c-16.9 36.4-56.4 66.7-95.9 82.1"></path><path fill="#31323d" d="M1536.3 855.1a65.1 65.1 0 0 1 3.6-19.7 53.2 53.2 0 0 1 4.5-9.3 99.2 99.2 0 0 1 5.7-8.2l2.8-3.7 2.7-3.8c1.7-2.5 3.4-5 4.9-7.6a110.3 110.3 0 0 0 8.3-16 87.4 87.4 0 0 0 5.4-16.9 95.2 95.2 0 0 0 2.2-17.6 86.1 86.1 0 0 0-1.4-17.5 79 79 0 0 0-2-8.4c-.4-1.4-.8-2.8-1.3-4.1s-.5-1.4-.7-2l-.4-.9-.4-.7-.2-.5-.2-.6-.4-.7-.8-1.4c-.5-1-1.1-1.9-1.7-2.9a49.1 49.1 0 0 0-4-5.3 38.8 38.8 0 0 0-9.8-8.4 29.7 29.7 0 0 0-11.9-3.8 36.4 36.4 0 0 0-13 1.1 57.3 57.3 0 0 0-24 13.1 76.1 76.1 0 0 0-17.3 22.9 2.6 2.6 0 0 1-3.4 1.1 2.5 2.5 0 0 1-1.3-2.7 61.6 61.6 0 0 1 14.7-28.7 59.8 59.8 0 0 1 28.1-17.8 49.6 49.6 0 0 1 17.3-2 43.6 43.6 0 0 1 17.3 4.9 53.1 53.1 0 0 1 13.8 11 58.2 58.2 0 0 1 5.2 6.8c.8 1.2 1.6 2.4 2.3 3.7l1.1 1.9.5 1 .2.6.3.6-.2-.5.4.8.3.7.5 1.2c.4.9.7 1.7 1 2.5s1.1 3.3 1.6 5a69 69 0 0 1 2.3 10 92.9 92.9 0 0 1 1.3 20.4 103.7 103.7 0 0 1-9.6 39.2 123.4 123.4 0 0 1-9.8 17.4c-1.9 2.8-3.9 5.4-6 8l-3.1 3.8-3.3 3.6c-4.2 4.6-7.9 9-10.7 14.1a79.8 79.8 0 0 0-6.4 17 2.6 2.6 0 0 1-5-.8z"></path><path fill="#31323d" d="M1320.8 718.8c.3-2.9.7-5.6 1.2-8.3s1.2-5.4 1.9-8a111.5 111.5 0 0 1 5.3-15.7c1.1-2.6 2.2-5.1 3.5-7.6s2.6-5 4-7.4a102.1 102.1 0 0 1 10-13.7 80.9 80.9 0 0 1 27.6-20.7 76.3 76.3 0 0 1 16.8-5.3l2.1-.4 2.1-.3 4.2-.6c2.8-.3 5.6-.6 8.5-.7a100.2 100.2 0 0 1 33.9 4.1 86.9 86.9 0 0 1 30.3 16.5 78.1 78.1 0 0 1 12 12.4 74.6 74.6 0 0 1 8.9 14.8 67.3 67.3 0 0 1 5.2 16.3 51.1 51.1 0 0 1 .4 17 2.5 2.5 0 0 1-4.9 0h-.1a75.3 75.3 0 0 0-10.2-28.2 79.9 79.9 0 0 0-8.7-12 73.5 73.5 0 0 0-10.7-10.2 75.7 75.7 0 0 0-26.1-13.2 94.3 94.3 0 0 0-29.5-3.4c-2.5 0-5 .2-7.5.4l-3.8.5-1.9.2-1.8.3a68.8 68.8 0 0 0-13.9 4 70.1 70.1 0 0 0-23.8 16.9 106.6 106.6 0 0 0-9.5 11.6c-1.5 2.1-2.9 4.3-4.2 6.4s-2.7 4.4-3.9 6.7a139.1 139.1 0 0 0-6.8 14c-2.1 4.7-4 9.7-5.7 14.6a2.6 2.6 0 0 1-3.2 1.6 2.6 2.6 0 0 1-1.7-2.6z"></path><path fill="#31323d" d="M1802.5 1346.6c8.2-.1 16.8-1.6 23.7-5a31.5 31.5 0 0 0 4.7-3 33.2 33.2 0 0 0 3.7-3.8 34.7 34.7 0 0 0 5-10 41.3 41.3 0 0 0 .7-22.3 31.6 31.6 0 0 0-1.7-5.2 28.2 28.2 0 0 0-2.5-4.9 44.1 44.1 0 0 0-6.8-8.8v-.2a6.2 6.2 0 0 1 .1-8.8 6.3 6.3 0 0 1 8.3-.3 42.7 42.7 0 0 1 9.8 11.3 42.2 42.2 0 0 1 3.4 6.7 47.1 47.1 0 0 1 2.2 7.3 49.7 49.7 0 0 1-2.8 29.1 42.5 42.5 0 0 1-7.9 12.6 26.2 26.2 0 0 1-6 5 29.8 29.8 0 0 1-6.7 3.3 52.6 52.6 0 0 1-13.9 2.7q-3.5.2-6.9 0a52.3 52.3 0 0 1-6.8-.7 2.5 2.5 0 0 1-2.1-2.9 2.5 2.5 0 0 1 2.4-2.1z"></path><path fill="#31323d" d="M1550.6 827.5c11.5 3 22.6 6.6 33.6 10.6 5.5 2.1 11 4.2 16.4 6.5s10.8 4.8 16.1 7.7h.4l9.6 6.3 9.7 6.3c6.6 4.4 12.9 9 19 14a254.1 254.1 0 0 1 33.5 32.9c5 5.9 10 11.9 14.7 18s9.4 12.3 14 18.5c9.1 12.5 17.7 25.3 26.2 38.2 16.8 25.8 32.6 52.2 47.7 79q11.3 20.1 22.1 40.5c3.6 6.8 7.2 13.6 10.7 20.5s6.9 13.8 10.1 20.9l-4.4-3.7a84.6 84.6 0 0 1 15.4 5.2 86.3 86.3 0 0 1 14.1 8.2 82.2 82.2 0 0 1 12.3 10.5 77 77 0 0 1 5.4 6 27.8 27.8 0 0 1 2.6 3.2 26.2 26.2 0 0 1 2.4 3.4 71.5 71.5 0 0 1 11.4 30.9 67 67 0 0 1-3.9 32.8 59 59 0 0 1-8.4 14.6 61 61 0 0 1-12.2 11.6 62.5 62.5 0 0 1-7 4.3l-3.7 1.9-3.6 1.6a84.3 84.3 0 0 1-15.3 4.7 93.5 93.5 0 0 1-15.8 2 117.1 117.1 0 0 1-15.7-.6 111.8 111.8 0 0 1-15.3-3 69.9 69.9 0 0 1-7.4-2.3 72.2 72.2 0 0 1-7.2-2.9 2.5 2.5 0 0 1-1.1-3.3 2.3 2.3 0 0 1 2.7-1.2h.1c2.3.6 4.8 1 7.1 1.5l7.2 1.1 7.3.7 7.2.2a102.3 102.3 0 0 0 28.2-3.3 90.2 90.2 0 0 0 13.2-4.7l3.1-1.5 3-1.6a55 55 0 0 0 5.6-3.8 51.2 51.2 0 0 0 9.3-9.3 49.1 49.1 0 0 0 6.2-11.5c6.2-16.5 3.1-36.3-6.8-51.1a18.5 18.5 0 0 0-1.9-2.7 24.7 24.7 0 0 0-2.1-2.7 56.8 56.8 0 0 0-4.7-5.1 80.8 80.8 0 0 0-10.3-9.1 75.3 75.3 0 0 0-24.6-11.7l-3.2-.9-1.3-2.9c-3.2-6.8-6.4-13.7-9.8-20.5s-6.9-13.5-10.5-20.3c-7.1-13.5-14.3-26.9-21.8-40.3-14.9-26.6-30.4-52.9-46.9-78.5-8.3-12.8-16.8-25.5-25.6-37.8-4.5-6.2-9-12.3-13.7-18.2s-9.4-11.9-14.2-17.7a237.3 237.3 0 0 0-32-31.4c-5.8-4.7-11.8-9.2-18-13.3l-9.6-6.3-9.6-6.2.4.2c-4.9-2.6-10-4.9-15.2-7.1s-10.4-4.3-15.7-6.3c-10.7-3.9-21.6-7.4-32.4-10.3h-.1a6 6 0 1 1 3-11.6z"></path><path fill="#31323d" d="M1277.3 844.6c-31.3 8.9-61.1 23.5-86.2 44.2-1.6 1.3-3.2 2.5-4.7 3.9s-3.1 2.6-4.5 4l-4.4 4.1-4.3 4.5-4.3 4.5-4.3 4.4c-2.7 2.9-5.4 6-7.9 9.1-10.2 12.6-19.1 26.5-27.4 40.7s-15.8 29-22.9 44-13.7 30.1-20.1 45.4-12.3 30.8-18.1 46.4c-2.8 7.8-5.6 15.6-8.3 23.5-1.3 3.8-2.7 7.9-4.2 11.9s-3 7.9-4.6 11.8l-1.6 4.1-4.4-.3-4.6-.3-3.9-.2a75.2 75.2 0 0 0-8.2.5 76.1 76.1 0 0 0-16.3 3.3 81.5 81.5 0 0 0-15.2 6.4 85 85 0 0 0-13.8 9.2 93.1 93.1 0 0 0-11.8 11.7c-.9 1.1-1.8 2.1-2.6 3.2a37.1 37.1 0 0 0-2.3 3.2 69.9 69.9 0 0 0-4 7 65.1 65.1 0 0 0-6.4 31.5c.6 10.7 4.4 21 11.5 28.5a44.2 44.2 0 0 0 27.9 13 54.1 54.1 0 0 0 16-1.2 81.9 81.9 0 0 0 15.8-5.4 203.4 203.4 0 0 0 29.9-17.1h.1a2 2 0 0 1 2.9.6 2 2 0 0 1-.1 2.4 76.7 76.7 0 0 1-12.9 13.2 96.5 96.5 0 0 1-15.5 10.2 83.6 83.6 0 0 1-17.7 6.6 65.6 65.6 0 0 1-19.3 1.9 54 54 0 0 1-9.8-1.5 51.8 51.8 0 0 1-9.4-3.1A50.7 50.7 0 0 1 959 1263a50 50 0 0 1-11-16.7 64.5 64.5 0 0 1-4.4-19.2 74.3 74.3 0 0 1 1.3-19.4 76.2 76.2 0 0 1 6-18.4c1.4-2.9 3-5.7 4.7-8.5s1.9-2.7 2.9-4l3-3.7a106 106 0 0 1 13.5-13.3 96.7 96.7 0 0 1 33.5-17.8 98.1 98.1 0 0 1 18.7-3.6 75.8 75.8 0 0 1 9.6-.3l4.9.3 4.3.4-6 3.7c1.5-3.8 3-7.6 4.4-11.5s2.8-7.6 4.1-11.6c2.8-8 5.6-15.9 8.5-23.7 5.8-15.8 11.8-31.4 18.2-46.9s13.2-30.8 20.4-46 14.9-30.2 23.3-44.8 17.7-28.9 28.5-42.2c2.7-3.4 5.5-6.6 8.4-9.8l4.5-4.6 4.3-4.5 4.4-4.5 4.7-4.5 4.9-4.3c1.6-1.4 3.2-2.8 4.9-4.1 26.5-21.8 57.8-37.2 90.6-46.5a6 6 0 1 1 3.2 11.6z"></path></g></g><g id="eye"><defs><linearGradient id="eyeColor1" x2="0%" y2="100%"><stop offset="0%" stop-color="#45f0f4"></stop></linearGradient><linearGradient id="eyeColor2" x2="0%" y2="100%"><stop offset="0%" stop-color="#45f0f4"></stop></linearGradient></defs><defs><clipPath id="eyeClipPath"><circle cx="1703.3" cy="1110.7" r="129.7" fill="#fff" stroke="#31323d" stroke-width="10" stroke-miterlimit="10" transform="translate(-130.9 232.9) rotate(-7.5)" stroke-linecap="round"></circle></clipPath><clipPath id="eyeClipPath2"><circle cx="1162" cy="1128.5" r="129.7" fill="#fff" stroke="#31323d" stroke-width="10" stroke-miterlimit="10" transform="translate(-137.9 162.1) rotate(-7.5)" stroke-linecap="round"></circle></clipPath></defs><circle cx="1703.3" cy="1110.7" r="129.7" fill="#fff" transform="translate(-130.9 232.9) rotate(-7.5)"></circle><g clip-path="url(#eyeClipPath)"><circle cx="1730.3" cy="1113.2" r="106.1" fill="url(#eyeColor1)" transform="translate(-131 236.4) rotate(-7.5)"></circle><circle cx="1727.3" cy="1115.1" r="83" fill="#31323d" transform="translate(-131.3 236.1) rotate(-7.5)"></circle><circle cx="1766.6" cy="1045.2" r="44.2" fill="#fff" transform="translate(-121.8 240.6) rotate(-7.5)"></circle></g><circle cx="1703.3" cy="1110.7" r="129.7" fill="none" stroke="#31323d" stroke-width="10" stroke-miterlimit="10" transform="translate(-130.9 232.9) rotate(-7.5)" stroke-linecap="round"></circle><circle cx="1162" cy="1128.5" r="129.7" fill="#fff" transform="translate(-137.9 162.1) rotate(-7.5)"></circle><g clip-path="url(#eyeClipPath2)"><circle cx="1129" cy="1136.6" r="106.1" fill="url(#eyeColor2)" transform="translate(-139.3 157.8) rotate(-7.5)"></circle><circle cx="1126" cy="1138.5" r="83" fill="#31323d" transform="translate(-139.5 157.4) rotate(-7.5)"></circle><circle cx="1165.3" cy="1068.6" r="44.2" fill="#fff" transform="translate(-130 162) rotate(-7.5)"></circle></g><circle cx="1162" cy="1128.5" r="129.7" fill="none" stroke="#31323d" stroke-width="10" stroke-miterlimit="10" transform="translate(-137.9 162.1) rotate(-7.5)" stroke-linecap="round"></circle></g><g id="mouth"><defs><clipPath id="mouthClipPath"><path d="M1340.1 1307.2c36.1 15.8 36.8 146.3 96.1 149.8 64.6 3.8 60.2-141.6 86.1-167.2-46.2-29-84.6-83.2-84.6-83.2-52.9 96.5-97.6 100.6-97.6 100.6z" fill="#31323d" stroke="#31323d" stroke-linecap="round" stroke-linejoin="round" stroke-width="8"></path></clipPath></defs><g><path d="M1340.1 1307.2c36.1 15.8 36.8 146.3 96.1 149.8 64.6 3.8 60.2-141.6 86.1-167.2-46.2-29-84.6-83.2-84.6-83.2-52.9 96.5-97.6 100.6-97.6 100.6z" fill="#31323d"></path><g clip-path="url(#mouthClipPath)"><path d="M1362.7 1440.2s16.6-36.8 72.6-39c57.9-2.3 77.7 47.7 77.7 47.7l-76 18z" fill="#f29cb1"></path><path d="M1437.7 1206.6l-4.7 97.2c-.8 14.9-18.5 22.3-29.6 12.4l-37.4-33.4 26.6-15.8z" fill="#fff" stroke="#31323d" stroke-linecap="round" stroke-miterlimit="10" stroke-width="7"></path><path d="M1447.2 1223.7l1.4 71.7c.4 16.2 21 22.6 30.5 9.6l31.8-43.7" fill="#fff" stroke="#31323d" stroke-linecap="round" stroke-miterlimit="10" stroke-width="7"></path></g><path d="M1340.1 1307.2c36.1 15.8 36.8 146.3 96.1 149.8 64.6 3.8 60.2-141.6 86.1-167.2-46.2-29-84.6-83.2-84.6-83.2-52.9 96.5-97.6 100.6-97.6 100.6z" fill="none" stroke="#31323d" stroke-linecap="round" stroke-linejoin="round" stroke-width="8"></path><path d="M1448.1 1209.4l1.1 1.7 3.5 4.8c3.1 4.2 7.6 10.1 13.3 16.9s12.7 14.6 20.7 22.4a280.7 280.7 0 0 0 26.2 22.9 182.2 182.2 0 0 0 29.5 18.4 125.4 125.4 0 0 0 28.4 9.9 101.4 101.4 0 0 0 12 1.7 78.1 78.1 0 0 0 9.3.3c2.6-.1 4.6-.2 6-.4l2.1-.2h.1a1.7 1.7 0 0 1 1.9 1.5 1.8 1.8 0 0 1-1.4 2l-2.2.3c-1.5.3-3.6.5-6.3.8a94.4 94.4 0 0 1-9.7.3 124 124 0 0 1-12.7-1 130.6 130.6 0 0 1-30.5-8.7 187.1 187.1 0 0 1-31.8-17.4 271.9 271.9 0 0 1-28.7-22.1c-8.7-7.6-16.4-15.2-22.7-21.9s-11.4-12.5-14.9-16.7l-4-4.9-1.4-1.9a7.4 7.4 0 0 1 1.3-10.5 7.7 7.7 0 0 1 10.6 1.3.5.5 0 0 0 .2.4z" fill="#31323d"></path><path d="M1445.4 1204.1l.2.8a6.6 6.6 0 0 1 .1 2.1 8.9 8.9 0 0 1-.6 3c-.4 1.1-1.1 2.2-1.7 3.6a19.6 19.6 0 0 0-1.2 2.1l-1.3 2.3c-.9 1.6-1.9 3.4-3 5.2s-2.2 3.9-3.4 5.9l-4 6.4-4.5 6.8c-1.6 2.4-3.4 4.7-5.1 7.2s-3.7 4.9-5.6 7.4-4.1 5-6.3 7.5l-1.6 1.9-1.7 1.8c-1.1 1.3-2.3 2.5-3.4 3.7l-3.6 3.7-3.8 3.6c-2.6 2.3-5.1 4.8-7.9 6.9l-4.1 3.4-4.3 3.1a140.2 140.2 0 0 1-18.1 10.9 122.9 122.9 0 0 1-19.2 7.5 105.1 105.1 0 0 1-35.7 4.1 93 93 0 0 1-14.2-1.6 104.2 104.2 0 0 1-10.7-2.4l-6.8-2-2.3-.8a1.2 1.2 0 0 1-.8-1.5 1.2 1.2 0 0 1 1.4-.8h.1l2.3.6 6.8 1.4c2.9.4 6.4 1 10.5 1.4a118.9 118.9 0 0 0 13.7.4 92.9 92.9 0 0 0 16.1-1.7 95.6 95.6 0 0 0 17.2-4.6 117.3 117.3 0 0 0 17.3-8.1 132 132 0 0 0 16.2-11l3.8-3.2 3.7-3.3c2.4-2.2 4.7-4.6 7-6.8s2.2-2.4 3.3-3.6 2.3-2.4 3.3-3.6l3-3.7 1.6-1.8 1.4-1.8c3.8-4.9 7.3-9.8 10.5-14.6 1.6-2.4 3.2-4.7 4.6-7l4-6.7 3.6-6.3c1.1-2 2.2-3.8 3.1-5.6l2.6-5.1a22.6 22.6 0 0 0 1.1-2.2c.4-.7.7-1.5 1.1-2.1a20.1 20.1 0 0 1 1.8-3.6 9.2 9.2 0 0 1 2-2.3 9.7 9.7 0 0 1 1.8-1.1l.8-.3a7.3 7.3 0 0 1 8.9 4.5z" fill="#31323d"></path><path d="M1372.7 1184.1a15 15 0 0 1 3.9-15.9c9.1-8.6 28.5-21.2 64.1-20.8s52.3 13 60.1 21.9a14.6 14.6 0 0 1 2.3 16.1 20.7 20.7 0 0 1-18.4 12c-10.1.2-24 3-33 15.3a20 20 0 0 1-1.9 2.2l-.3.3a17.6 17.6 0 0 1-25.3-1.9s-7.1-12.6-33.9-15.1a20.8 20.8 0 0 1-17.5-13.8z" fill="#31323d"></path><path d="M1362.9 1471.8s-4.2 72.6 56.5 76.9c58.8 4.1 72.8-62.7 72.8-62.7s-24.4 27.7-62.3 24.1-67-38.3-67-38.3z" fill="#595959" opacity=".2" style="mix-blend-mode:multiply"></path><path d="M1495.3 1483.3a17.8 17.8 0 0 0-.7 1.7 20.5 20.5 0 0 1-.8 2l-1.4 2.9c-.6 1-1.3 2.1-2 3.4s-1.6 2.4-2.6 3.7a51.7 51.7 0 0 1-7.6 8.2 65.7 65.7 0 0 1-10.7 7.8l-3.2 1.6-3.4 1.6a74.3 74.3 0 0 1-7.1 2.6c-2.5.7-5 1.4-7.6 1.9l-4 .6a27.1 27.1 0 0 1-4 .4 75.2 75.2 0 0 1-16.4-.4 84.4 84.4 0 0 1-15.8-3.7 88.9 88.9 0 0 1-14.3-6.5l-.8-.5-.4-.2-.3-.2h-.2l-1.5-.9-3-2.1a65.3 65.3 0 0 1-5.7-4.3 73.7 73.7 0 0 1-9.3-9.2 64.6 64.6 0 0 1-6.4-8.8 70.6 70.6 0 0 1-4-7.3c-.5-1.1-.8-2-1.2-2.8l-.8-2.2-.6-1.7a2.4 2.4 0 0 1 1.5-3.2 2.6 2.6 0 0 1 2.9.8h.1l1 1.5 3 3.9c1.3 1.6 3 3.5 5 5.6s4.4 4.4 7 6.7 5.8 4.5 9.1 6.7l2.6 1.6 2.6 1.6 2.8 1.5a8 8 0 0 1 1.6.8l1.4.6a91 91 0 0 0 12.4 4.7 83.7 83.7 0 0 0 13.2 2.8 87.6 87.6 0 0 0 13.5.5l3.3-.3 3.3-.3a58.6 58.6 0 0 0 6.3-1.2 60.6 60.6 0 0 0 6.1-1.6l2.8-1 2.8-1.1a67.6 67.6 0 0 0 9.7-5 64.1 64.1 0 0 0 7.7-5.6c2.1-1.8 3.9-3.6 5.4-5.1l1.8-2a17.7 17.7 0 0 0 1.4-1.7l1.2-1.4a2.5 2.5 0 0 1 3.5-.3 2.7 2.7 0 0 1 .8 2.9z" fill="#31323d"></path><path d="M1532.7 1231.1l4-.9 11.5-2.1c9.8-1.7 23.9-3.8 41-5.4a544.5 544.5 0 0 1 58.3-2.4c10.7.1 21.7.6 32.9 1.5s22.5 2.3 33.7 4.2a331.6 331.6 0 0 1 33.2 7.1 327.5 327.5 0 0 1 31.3 10.2 266.8 266.8 0 0 1 27.9 12.9 234.9 234.9 0 0 1 23.3 14.5 203 203 0 0 1 18.2 14.6c1.3 1.1 2.5 2.3 3.6 3.4l3.4 3.2 3 3.1 2.7 2.8c1.7 1.8 3.1 3.5 4.4 5s2.3 2.7 3.1 3.7l2.6 3.2-2.6-3.1-3.3-3.7-4.5-4.8-2.8-2.8-3.1-2.9-3.4-3.1-3.7-3.3a225 225 0 0 0-18.4-14 216 216 0 0 0-23.6-13.7 246.4 246.4 0 0 0-27.9-12 275.5 275.5 0 0 0-31.2-9.2c-10.8-2.6-21.8-4.6-33-6.2s-22.3-2.5-33.3-3.1-22-.8-32.5-.7a523.9 523.9 0 0 0-57.4 4c-16.8 2-30.6 4.5-40.2 6.4l-11.1 2.4-3.9.9a5 5 0 1 1-2.3-9.7z" fill="#31323D"></path><path d="M1705.6 1181.8l-6.6.2-7.6.4-9.9.6-11.7 1.1-12.9 1.5c-4.5.6-9.1 1.1-13.8 1.9l-7.1 1.1-7.1 1.3-7.1 1.3c-2.3.5-4.7.9-7 1.5l-6.9 1.5-6.7 1.5-6.4 1.6-6.2 1.6-11.2 3.2-9.4 2.8-7.2 2.4-6.2 2.1h-.1a5 5 0 0 1-6.3-3.1 5 5 0 0 1 3.1-6.4h.3l6.5-1.7 7.5-1.9 9.7-2.3 11.6-2.4 6.3-1.3 6.7-1.1 6.8-1.2 7.1-1.1 7.1-1 7.3-.9 7.2-.8 7.2-.6c4.7-.5 9.4-.7 14-1.1l13.1-.6 11.7-.3h17.6z" fill="#31323D"></path><path d="M1546.6 1254.2l7.7-1.2 4.4-.3 5.1-.4a101.6 101.6 0 0 1 12.1.3l3.3.2 3.5.4 3.6.5 3.7.7 3.7.7 3.8 1 3.9 1 3.9 1.2 3.9 1.3 3.9 1.5 3.9 1.5 3.9 1.8 2 .8 1.9 1 3.8 1.9c2.6 1.3 5.1 2.8 7.6 4.2q7.5 4.4 14.4 9.3c4.6 3.2 9 6.7 13.1 10.1s8 6.8 11.6 10.2 6.8 6.7 9.8 9.7 5.6 6 7.8 8.6l5.8 6.9c3.1 3.9 4.8 6.2 4.8 6.2s-1.8-2.2-5.1-5.9c-1.7-1.8-3.7-4.1-6.2-6.5s-5.1-5.2-8.2-8.2-6.5-6-10.3-9.1-7.7-6.3-11.9-9.5-8.8-6.2-13.5-9.1-9.5-5.7-14.5-8.4l-7.5-3.6-3.9-1.6-1.9-.9-1.9-.7-3.8-1.4-3.9-1.3-3.8-1.2-3.7-1-3.8-1-3.7-.7a22.9 22.9 0 0 0-3.6-.7l-3.6-.5-3.4-.5-3.4-.2-3.3-.3h-3.1a95.8 95.8 0 0 0-11.1.4l-4.6.5a37.9 37.9 0 0 0-3.8.6l-7.6 1.6a5.2 5.2 0 0 1-6-3.9 5 5 0 0 1 3.9-5.9z" fill="#31323D"></path><path d="M1355.9 1256.2l-15.4-3c-9.9-2-23.8-4.7-40.7-7.5-8.4-1.4-17.6-2.7-27.3-3.9s-19.9-2.4-30.6-3.2-21.6-1.4-32.8-1.6-22.6.1-33.9.8-22.7 2-33.7 3.9c-5.5.9-10.9 2.1-16.3 3.3s-10.6 2.5-15.7 4.1c-20.4 6.1-38.6 14.7-52.8 24.1a160.7 160.7 0 0 0-18.6 14.2l-3.7 3.4c-1.2 1-2.3 2.1-3.4 3.2l-3.1 3.1c-.9 1-1.8 1.9-2.6 2.9a58.4 58.4 0 0 0-4.4 5l-1.8 2-1.4 1.8-2.5 3.2 2.4-3.3 1.4-1.8 1.7-2.1c1.2-1.5 2.6-3.3 4.2-5.1s1.7-2 2.7-3l2.9-3.2 3.4-3.3c1.1-1.1 2.3-2.4 3.6-3.5a167.3 167.3 0 0 1 18.3-14.8 204.5 204.5 0 0 1 52.8-25.8c5.1-1.7 10.4-3.2 15.8-4.6s10.8-2.7 16.4-3.8c11.1-2.2 22.5-3.7 34-4.8s23-1.7 34.3-1.8 22.5.1 33.3.7 21.1 1.3 31 2.3 19.1 2.1 27.6 3.3c17.1 2.3 31.3 4.7 41.2 6.3l15.5 2.6a4.9 4.9 0 0 1 4.1 5.7 5 5 0 0 1-5.8 4.1z" fill="#31323D"></path><path d="M1181.2 1197.5l1.7-.4 5-.8 7.8-1.1 10.1-1a249.9 249.9 0 0 1 25.6-1c4.7.1 9.5.2 14.4.5l7.5.6 7.4.8 7.5 1c2.4.4 4.9.7 7.3 1.2 4.9.8 9.7 1.9 14.3 2.9l6.7 1.7 6.5 1.7 11.6 3.6 9.8 3.5 7.4 2.9 4.7 2 1.7.7a5.1 5.1 0 0 1 2.6 6.6 4.9 4.9 0 0 1-6.6 2.6h-.3l-1.6-.8-4.4-2.2c-1.9-1-4.3-2.1-7-3.3l-9.2-4c-3.4-1.3-7.1-2.8-11.1-4.2l-6.1-2.1-6.5-2c-4.4-1.3-9-2.6-13.7-3.7l-7.1-1.6c-2.4-.6-4.8-1-7.2-1.4l-7.3-1.3-7.3-1c-4.8-.6-9.5-1.1-14.2-1.4-9.2-.7-17.9-.8-25.3-.7l-10.1.5-7.9.6-5 .5z" fill="#31323D"></path><path d="M1343.2 1280l-7.7-1.9-3.7-.6-2.2-.3-1.1-.2h-1.2l-5.3-.4h-7.4l-1.6.2-3.3.3c-2.2.1-4.4.6-6.8.9s-4.7 1-7.1 1.5l-1.8.4-1.9.6-3.7 1.1a33 33 0 0 0-3.7 1.3l-3.8 1.4-7.5 3.2c-4.9 2.4-10 5-14.8 7.9l-3.6 2.2-3.5 2.3c-2.4 1.5-4.6 3.2-6.9 4.8s-4.5 3.3-6.6 5l-6.3 5.1-3 2.6-2.9 2.6c-2 1.7-3.8 3.4-5.6 5.1s-3.4 3.3-5.1 4.9l-4.7 4.8c-2.9 3.1-5.6 6-7.8 8.6s-4.3 4.9-5.9 6.9c-3.1 3.8-4.8 6.2-4.8 6.2s1.5-2.4 4.5-6.5l5.4-7.2c2.2-2.7 4.7-5.8 7.5-9l4.4-5.1 4.9-5.3c1.7-1.8 3.4-3.6 5.3-5.4s1.8-1.9 2.8-2.8l2.9-2.7c1.9-1.9 4-3.7 6.1-5.6l6.4-5.4c2.2-1.8 4.4-3.6 6.8-5.3l3.5-2.6 3.6-2.4a138.9 138.9 0 0 1 14.8-9l7.6-3.8 3.9-1.7c1.3-.5 2.6-1.1 3.9-1.5l3.8-1.4 1.9-.7 2-.6c2.5-.7 5-1.5 7.5-2a66.8 66.8 0 0 1 7.3-1.4l3.5-.5 1.7-.3h1.7l6.4-.4h8.5l2.6.3 4.4.5 7.8 1.4a5 5 0 1 1-1.9 9.8z" fill="#31323D"></path></g></g></svg>