<svg xmlns="http://www.w3.org/2000/svg" viewBox="0 0 3000 3000" xmlns:xlink="http://www.w3.org/1999/xlink"><g id="item_j"></g><g id="item_i"></g><mask id="hooktail_mask"><g fill="white"><path d="M0 0h3000v3000H0z"></path><path d="M0 0h3000v3000H0z"></path></g><g fill="black"><path d="M2399.9,1601.2a38.3,38.3,0,0,1,19.5,3.8l14.1,8.6c-25.9,53.4-14.1,96.3.5,123a151.2,151.2,0,0,0,38.5,45.7c10,8.6,28.1,16.7,51.7,16.7a111.4,111.4,0,0,0,13.8-.9,121.9,121.9,0,0,0,24.1-5.7h31.8v155.1H2251.8V1636.6h86.1Z"></path></g></mask><g clip-path="url(#kittyClipPath)" mask=""><g id="T01_W01"><defs><clipPath id="tailFurClipPath"><path fill="none" d="M2518.1 1775.9c67.6-29 132.5 39.9 146.6 73.7 48 115.1-49.4 194.9-49.4 194.9-36.6 34.8-88.5 67.7-157.3 88.8-175.3 53.8-339.2-38.4-422.2-99l-34.7-24.9-36.1 140.1 220.6 76.5a852.5 852.5 0 0 0 229 11.7c98.1-8.4 186.9-29.1 266-104.6 93.6-89.2 148.9-239.5 82.8-373.6-44.5-90.3-152-191.5-273.6-171.9-89 14.4-190.9 94.4-182.7 186.5 5.8 64 64.6 132.1 133.1 133.9 48.3 1.2 112.1-30.2 112.1-73.4-.1-34.5-40.8-73.1-100.9-79.4"></path></clipPath><clipPath id="tailFur__a"><path fill="#d1dadf" d="M2518.1,1775.9c67.6-29,132.6,39.9,146.7,73.7,47.9,115.1-49.5,194.9-49.5,194.9-36.6,34.8-88.5,67.7-157.3,88.8-175.2,53.8-339.1-38.4-422.2-99l-34.7-24.9L1965,2149.5l220.5,76.5a855.3,855.3,0,0,0,229.1,11.7c98.1-8.4,186.8-29.1,266-104.6,93.5-89.2,148.8-239.5,82.8-373.6-44.5-90.3-152-191.5-273.7-171.9-89,14.4-190.9,94.4-182.6,186.5,5.7,64,64.5,132.1,133.1,133.9,48.3,1.2,112.1-30.2,112.1-73.4-.1-34.5-40.8-73.1-100.9-79.5"></path></clipPath></defs><path fill="none" d="M0 0H3000V3000H0z"></path><g clip-path="url(#tailFur__a)"><path fill="#d1dadf" d="M1904 1577.4H2843V2245.94H1904z"></path><path fill="#b8916c" d="M2705.6,1626.5s-23.6,124.7-22.7,133.1c1.9,17.4,44.3,293,48.9,335.4C2731.8,2095,2891.6,1896.7,2705.6,1626.5Z"></path><path fill="#cf5be8" d="M2606,2219.3c19.4-47.4,46.2-116.1,59.2-149.2.1-4.5-3-2.6-5.6-.8-73.6,50-279.8,191.7-292,199C2362.4,2271.4,2464.7,2279,2606,2219.3Z"></path><path fill="#cf5be8" d="M2442.1,2143.6c-24.4,13.8-126.6,69.2-143.6,72a1.6,1.6,0,0,1-1.9-1.8c2.3-17.1,23.7-83.4,27.3-94.3a1.5,1.5,0,0,1,2-1l50.1,14.8h.4l65,7.3A1.6,1.6,0,0,1,2442.1,2143.6Z"></path><path fill="#cf5be8" d="M2198,2117.3l-76.7,110.5s-172.4-22.3-252.7-157.1c0,0,32-122.7,138.2-124.4C2006.8,1946.3,2073.3,2059.9,2198,2117.3Z"></path><defs><linearGradient id="tailShadowGradient" x1="2364.15" y1="2291.47" x2="2364.15" y2="2013.47" gradientUnits="userSpaceOnUse"><stop offset="0" stop-color="gray"></stop><stop offset=".27" stop-color="#7d7d7d"></stop><stop offset=".46" stop-color="#747474"></stop><stop offset=".64" stop-color="#646464"></stop><stop offset=".8" stop-color="#4d4d4d"></stop><stop offset=".95" stop-color="#303030"></stop><stop offset="1" stop-color="#242424"></stop></linearGradient><linearGradient id="tailShadowGradient2" x1="2579.15" y1="1935.2" x2="2579.15" y2="1441.6" gradientUnits="userSpaceOnUse"><stop offset="0" stop-color="#fff" stop-opacity="0"></stop><stop offset=".72" stop-color="#fff"></stop></linearGradient><linearGradient id="tailShadowGradient3" x1="2583.8" y1="2124.84" x2="2583.8" y2="1726.66" href="#tailShadowGradient" xlink:href="#tailShadowGradient"></linearGradient></defs><g clip-path="url(#tailShadowClipPath)" style="mix-blend-mode:overlay"><path d="M2307.1 1774.1s77.1-188.9 277.1-114.6 203.7 275.7 203.7 275.7l134.3-263.7-234-212.5-344-17.4-108 123.9z" opacity=".35" fill="url(#tailShadowGradient2)" style="mix-blend-mode:overlay"></path></g><g clip-path="url(#tailShadowClipPath)" style="mix-blend-mode:multiply"><path d="M2135.9 2084.1c107 52 71.6 104 199.2 113.8 208.3 32.6 329.5-41.9 390.8-121l100.2-44.4-96 259-828-9.1 54-268.9s122.5 42.7 179.8 70.6z" opacity=".25" fill="url(#tailShadowGradient)" style="mix-blend-mode:multiply"></path><path d="M2519.6 1734.3c8.4-2.3 109.1-43.4 164.5 92.2 57.5 140.6-26.3 224.4-201.1 298.4l96.1-317.4s-20.1-11.2-61-31.6-52.7-18.9-52.7-18.9 20.5-10.4 54.2-22.7z" opacity=".25" fill="url(#tailShadowGradient3)" style="mix-blend-mode:multiply"></path></g></g></g><g id="tail"><path d="M2515.9 1770l5.8-2.2 1.6-.5 1.6-.5 3.3-1 3.3-.8 3.2-.7 3.3-.6 3.3-.5a92.5 92.5 0 0 1 26.4.8 110 110 0 0 1 25 7.6 138.2 138.2 0 0 1 22.6 12.5 169 169 0 0 1 20 16 181.2 181.2 0 0 1 17.5 18.7 139.6 139.6 0 0 1 14.5 21.4l1.5 3 1.4 3.1.3.8v.9l.6 1.4 1.1 2.9 2.2 5.8 2 6.2 1 3.1c.3 1 .7 2.1.9 3.1l1.5 6.2.8 3.1.6 3.2 1.1 6.3c.4 2.1.5 4.2.8 6.4l.4 3.2.2 1.6v1.6l.3 6.4v6.4a154.3 154.3 0 0 1-2.3 25.6l-1.2 6.3c-.5 2.1-1 4.2-1.5 6.2s-.5 2.1-.8 3.1l-.9 3.1-.9 3.1-.5 1.5-.5 1.5-2.1 6-2.4 5.9c-.8 2-1.7 3.9-2.6 5.8l-1.3 2.9-1.4 2.9a193.8 193.8 0 0 1-12.9 22 213.5 213.5 0 0 1-15.5 20.2c-2.8 3.2-5.6 6.3-8.6 9.4l-4.6 4.5-2.4 2.2-2.6 2.2.3-.3a366.6 366.6 0 0 1-68.8 51 404.9 404.9 0 0 1-38.1 19.4q-19.5 8.7-39.8 15.6l-10.2 3.3-2.5.8h-.8l-.6.2-1.3.4-5.1 1.4-10.2 2.8-10.5 2.5-5.3 1.2-5.3 1-10.5 2-10.6 1.5-5.3.7-5.3.6-10.7 1-10.7.6c-7.1.5-14.3.4-21.4.5l-10.7-.3-5.4-.2-5.3-.3-10.7-.7-10.6-1.1-5.3-.6-5.3-.7-10.6-1.5c-7-1.3-14.1-2.4-21-4-14-2.8-27.7-6.5-41.4-10.6l-10.2-3.2-10.1-3.4c-3.4-1.1-6.7-2.4-10-3.6s-6.7-2.4-10-3.8l-9.9-4-9.8-4.2-9.7-4.4-9.7-4.5c-12.8-6.1-25.4-12.7-37.8-19.6s-24.5-14.3-36.5-21.9-23.6-15.7-35-24l-34.2-24.6 9.7-3.5-35.8 140.3-4-7.5 220.6 76.5-.9-.2a866.3 866.3 0 0 0 126.3 14q31.8 1.1 63.6-.1c21.2-.8 42.3-2.5 63.4-4.9a628.3 628.3 0 0 0 62.5-10 412.3 412.3 0 0 0 60.4-18 344.9 344.9 0 0 0 56.3-27.9 331.7 331.7 0 0 0 50.1-37.9l5.8-5.3.7-.7.4-.3.3-.3 1.4-1.4 2.8-2.8c3.9-3.7 7.4-7.5 11-11.3l1.3-1.4 1.3-1.5 2.6-2.9c1.7-2 3.5-3.9 5.2-5.9 3.3-4.1 6.8-8 9.9-12.2l4.8-6.2 4.6-6.4 2.3-3.2 2.2-3.3 4.4-6.5c5.6-8.9 11.1-17.8 16-27.1 2.5-4.6 4.8-9.3 7.1-14 1.2-2.3 2.2-4.8 3.3-7.1s2.2-4.8 3.2-7.2l3-7.3 1.5-3.6 1.4-3.7 2.7-7.4 2.4-7.5c1.7-5 3-10 4.5-15.1.4-1.3.7-2.5 1-3.8l.9-3.8c.6-2.5 1.3-5.1 1.8-7.6l1.6-7.7c.2-1.3.6-2.6.7-3.9l.6-3.9 1.2-7.7.9-7.8a282.3 282.3 0 0 0 .3-62.5l-.4-3.9c-.1-1.3-.4-2.6-.5-3.9l-1.1-7.7-.3-1.9-.4-1.9-.8-3.8c-.5-2.6-.9-5.1-1.5-7.7l-1.9-7.6-.9-3.8-1.1-3.8-2.2-7.5c-.3-1.3-.8-2.5-1.2-3.7l-1.3-3.7c-13.7-39.4-36.7-75.5-64.5-106.9-7-7.8-14.4-15.3-22-22.5s-15.7-13.9-23.9-20.4-16.9-12.3-25.8-17.8l-6.7-4-3.4-2-3.5-1.8c-2.3-1.2-4.6-2.5-6.9-3.6l-7-3.4-3.6-1.6-3.6-1.5-3.6-1.5-3.6-1.4-7.3-2.7-7.4-2.4c-2.5-.8-5-1.4-7.5-2.1s-5-1.4-7.5-1.9l-7.6-1.6-7.7-1.2a183.9 183.9 0 0 0-30.9-1.9h-3.9l-3.9.3-7.7.6-7.7 1-1.9.3h-.8l-1 .2-3.9.7-3.9.7-3.7.9-3.7.8-3.8 1c-2.5.7-5 1.3-7.5 2.1s-5 1.5-7.4 2.4a238.4 238.4 0 0 0-28.8 12 265.3 265.3 0 0 0-27.2 15.4l-6.5 4.3-6.4 4.5-6.2 4.8c-2.1 1.6-4 3.3-6 5a224.5 224.5 0 0 0-22.3 21.7 177.5 177.5 0 0 0-18.6 24.7c-10.9 17.4-18.4 36.9-20.4 57.1-.2 2.5-.6 5-.5 7.6v7.6l.2 3.8v3.7l.5 4c.2 1.3.4 2.5.6 3.7s1 4.9 1.5 7.4.6 2.5.9 3.7.6 2.5 1 3.7 1.5 4.9 2.4 7.3l1.3 3.6 1.5 3.6a154.6 154.6 0 0 0 14.6 27 157 157 0 0 0 19.6 23.7c3.6 3.7 7.4 7 11.4 10.3a147.3 147.3 0 0 0 12.4 9 140.1 140.1 0 0 0 13.2 7.6 124 124 0 0 0 14 5.9 116.7 116.7 0 0 0 14.5 4 105 105 0 0 0 14.9 1.9h11.3l3.8-.3a138.1 138.1 0 0 0 15.1-2.2 144.7 144.7 0 0 0 14.8-3.8 136.8 136.8 0 0 0 14.4-5.3 118.7 118.7 0 0 0 26.2-15.3c7.9-6.1 14.7-13.6 19-22.1a42.5 42.5 0 0 0 4.2-13.3v-7.1a7.8 7.8 0 0 0-.1-.9v-.8c-.1-.6-.1-1.1-.2-1.7s-.3-2.3-.6-3.5a55 55 0 0 0-5.1-13.6 71.7 71.7 0 0 0-8.3-12.4 102 102 0 0 0-22.9-20.1 132.7 132.7 0 0 0-27.8-13.7q-7.4-2.6-15-4.5c-5.1-1.2-10.2-2.2-15.4-3a2.5 2.5 0 0 1 .6-5c21.6 1.5 43.2 7.6 62.3 18.9a106.8 106.8 0 0 1 25.9 21 81.9 81.9 0 0 1 10 13.8 65.5 65.5 0 0 1 6.5 16.1c.4 1.4.6 2.9.9 4.3s.4 3.2.6 4.6v8.8a52.1 52.1 0 0 1-4.9 17.2 68.6 68.6 0 0 1-9.6 14.7 89.8 89.8 0 0 1-12.3 11.9 128.7 128.7 0 0 1-28.7 17.4 154.4 154.4 0 0 1-31.7 10.3 151.2 151.2 0 0 1-16.6 2.5l-4.2.3-4.3.2h-8.4a118.3 118.3 0 0 1-16.8-2.1 124 124 0 0 1-16.3-4.6 137.3 137.3 0 0 1-15.5-6.6 147.7 147.7 0 0 1-14.5-8.4 160.3 160.3 0 0 1-13.4-9.9c-4.2-3.6-8.4-7.3-12.3-11.3a171.7 171.7 0 0 1-21-25.7 167.3 167.3 0 0 1-15.7-29.3l-1.6-3.9-1.4-3.9c-1-2.6-1.7-5.3-2.6-7.9s-.7-2.7-1.1-4-.7-2.7-1-4.1-1.2-5.4-1.6-8.3-.5-2.9-.7-4.2l-.5-4v-4.5l-.2-4.2v-8.4c0-2.8.3-5.6.6-8.4a135 135 0 0 1 7.6-32.6 161.5 161.5 0 0 1 14.7-29.9 190 190 0 0 1 19.9-26.4 236.9 236.9 0 0 1 23.6-22.9c2.1-1.7 4.2-3.5 6.3-5.2l6.5-5 6.7-4.8 6.8-4.6a277.8 277.8 0 0 1 28.5-16.2 250.9 250.9 0 0 1 30.3-12.6c2.6-1 5.2-1.7 7.8-2.5s5.3-1.5 7.9-2.3l4-1.1 4.1-.9 4.1-.9 4-.7 3.9-.7 1-.2h1.2l2-.3 8.2-1.1 8.2-.6 4.1-.3h4.1a196.3 196.3 0 0 1 32.9 2l8.2 1.3 8.1 1.7c2.7.5 5.3 1.3 8 2s5.3 1.3 7.9 2.2l7.8 2.5 7.7 2.8 3.8 1.5 3.8 1.6 3.8 1.6 3.7 1.7 7.4 3.5c2.5 1.2 4.8 2.5 7.3 3.8l3.6 1.9 3.5 2.1 7.1 4.1c9.3 5.7 18.2 12 26.9 18.6s16.9 13.7 24.8 21.2 15.5 15.2 22.7 23.3 14.1 16.5 20.6 25.2 12.6 17.7 18.3 27c2.8 4.7 5.6 9.3 8.2 14.2l2 3.6 1.8 3.6 1.8 3.6.5.9.3.5.2.5.9 1.9 3.4 7.4c.6 1.2 1.2 2.5 1.7 3.7l1.5 3.8 3.1 7.6c1 2.5 1.8 5.1 2.7 7.7l1.4 3.9c.5 1.3.9 2.6 1.3 3.9l2.3 7.8 1.2 3.9 1 4 1.9 8c.6 2.7 1.1 5.4 1.6 8l.8 4 .4 2 .3 2 1.2 8.1c.2 1.4.4 2.7.6 4.1l.4 4.1a294.8 294.8 0 0 1-.3 65.3l-1 8.1-1.3 8.1-.6 4c-.2 1.3-.5 2.7-.8 4l-1.6 8c-.5 2.7-1.3 5.3-1.9 7.9l-1 4c-.3 1.3-.6 2.6-1 3.9-1.5 5.2-2.9 10.5-4.6 15.6l-2.5 7.7-2.8 7.7-1.4 3.8-1.5 3.8-3.1 7.5c-1.1 2.5-2.2 5-3.3 7.4s-2.2 5-3.4 7.4c-2.4 4.9-4.7 9.8-7.4 14.5-5 9.6-10.7 18.9-16.5 28.1l-4.5 6.8-2.3 3.4-2.4 3.3-4.8 6.6-5 6.5c-3.3 4.3-6.8 8.5-10.2 12.7-1.7 2.1-3.6 4.1-5.4 6.1l-2.7 3-1.4 1.5-1.4 1.5c-3.8 4-7.5 8-11.3 11.7l-2.8 2.8-1.4 1.4-.4.4-.4.3-.8.7-6 5.5a344.1 344.1 0 0 1-51.9 39.3 357.4 357.4 0 0 1-58.3 28.9 424.8 424.8 0 0 1-62.2 18.6 640.4 640.4 0 0 1-63.9 10.3c-21.3 2.4-42.8 4.1-64.3 5s-43 .9-64.5.1a878.7 878.7 0 0 1-128.1-14.2h-.5l-.4-.2-220.6-76.5-5.4-1.9 1.4-5.6 36.2-140.2 2.3-8.8 7.4 5.3 34.2 24.6c11.3 8.3 22.8 16.1 34.5 23.7s23.7 14.7 35.8 21.5 24.5 13.3 37 19.3l9.5 4.4 9.5 4.3 9.6 4.1 9.7 3.9c3.2 1.3 6.5 2.5 9.7 3.7s6.5 2.5 9.8 3.5l9.9 3.4 9.9 3.1c13.3 4 26.7 7.6 40.3 10.4 6.8 1.5 13.6 2.6 20.4 3.9l10.3 1.5 5.1.7 5.2.5 10.3 1.1 10.4.7 5.2.3 5.2.2 10.4.3c6.9-.1 13.8 0 20.7-.5l10.4-.6 10.3-1 5.2-.5 5.1-.7 10.3-1.5 10.2-1.9 5.1-.9 5-1.2 10-2.3 10.1-2.8 5.1-1.4 1.3-.4.6-.2h.5l2.5-.8 9.9-3.2q19.7-6.7 38.7-15.2a392.4 392.4 0 0 0 37-18.8 354.1 354.1 0 0 0 65.7-49.9h.1l.2-.2 2.1-1.8 2.2-2 4.2-4.2c2.8-2.8 5.5-5.8 8.1-8.8a201 201 0 0 0 14.5-19 181.3 181.3 0 0 0 12.1-20.6l1.3-2.7 1.2-2.7c.8-1.8 1.7-3.6 2.4-5.5l2.2-5.5 2-5.6.5-1.4.4-1.4.9-2.8.9-2.8c.3-.9.5-1.9.7-2.9s1-3.8 1.4-5.8l1.1-5.8a141.8 141.8 0 0 0 2.1-23.6v-6l-.3-5.9v-1.5l-.2-1.5-.3-2.9c-.2-2-.4-3.9-.7-5.9l-1-5.8-.5-2.9-.7-2.9-1.4-5.8c-.2-1-.5-1.9-.8-2.8l-.9-2.8-1.7-5.6-2.2-5.8-1.1-2.9-.6-1.4v-.7l-.3-.6-1.2-2.6-1.3-2.5a127.3 127.3 0 0 0-13.2-19.4 164.1 164.1 0 0 0-34.8-32.2c-13-8.8-27.6-15.5-42.7-18.1a79.9 79.9 0 0 0-22.8-.7l-2.8.4-2.8.5-2.8.6-2.7.7-2.6.8-1.3.4-1.4.5-5.8 2.2a6.3 6.3 0 0 1-4.8-11.8z" fill="#31323d"></path></g></g><g id="item_h"></g><g clip-path="url(#kittyClipPath)"><g id="bodyFur"><clipPath id="furClipPath"><path d="M2200.5 2195.7c-43-29.4-132.4-61.7-179.8-75.5l-.8-.3a248.1 248.1 0 0 0 6.4-155.8l-187.6-610.4c17.6-34.9 61-110.9 113.2-125.9 0 0-88.7-56.5-124.3 14.3 0 0 21.7-65.9 51.6-64.7 0 0-53.7-13.5-94 1.8l-54.1-175.2a240.5 240.5 0 0 0-47.2-89.2l73.3-118.6c-16.9-8.5-120.8 34.6-150.3 57.8-9.4-4.7-43.8-16.3-53.8-19.8 23.8-76.5-17.6-127.4-17.6-127.4 5.8 45.5-30.4 65.4-30.4 65.4 38-87.2-138.7-174-138.7-174s16.3 57-35.1 100.5c-58.7 49.6-34.7 93-34.7 93s-33.8-9.4-31.4-41.6c-18.5 33.1-6.9 64.4 8.4 86.2-14.1 5.8-52.2 23.4-64.8 31.7l-2.7-5.1c-44.5-36.6-124.6-49.2-135.6-33.6l64.5 115.2a240.3 240.3 0 0 0-33 93.8l-31.8 167c-43.6-11.2-94.8 18.3-94.8 18.3 28.5-9 66.7 48.8 66.7 48.8-53-59-123.7 18.9-123.7 18.9 54.3.8 98.7 67.6 116.7 99l-115.9 609.3a248.9 248.9 0 0 0 12.6 117.5l-.6.3c-38.1 9.1-130.4 43.4-184.5 78.3-26.5 17.1-10.1 55.9 23.2 55.3l266.9-5.2q6.8 4.1 13.8 7.9l.2 3.4c.4 23.3-6.7 42.4-29.9 43.6-15.6.8-28.2 9.9-30.6 21.1-4.7 21.5 5.8 38.9 27.2 40.4l84.3 5c26.4 1.6 51.9-11.3 65.3-34.1a71.4 71.4 0 0 0 8.8-23.9l5-26.6h533.6l3.5 20.7a71.6 71.6 0 0 0 43.1 54.3 53.5 53.5 0 0 0 22.3 4l91.8-3c22-2.2 30.1-15.7 27.9-36.9-.7-6.9-6.2-24.5-24.5-25.5-15.8-.9-25.2-8.6-28.1-21.9a246.8 246.8 0 0 0 65.4-28.1l261.5 5.1c33.2.3 49.2-37.8 23.1-55.6z" fill="none"></path></clipPath><g clip-path="url(#furClipPath)"><path fill="#d1dadf" d="M647.1 567.3h1646.3v1824.09H647.1z"></path><path fill="#b8916c" d="M1211.4,900.7c-10.6-2.9-8.7,49.9-5.5,56.3s85.2,49.9,88.9,43.5S1232.4,906.4,1211.4,900.7Z"></path><path fill="#cf5be8" d="M1593.5,862.1s290.4-337.3-175-307.7c-210.2,13.4-343.2,192.3-215.1,283.2l40.3,24.5s132.5,175.4,143.6,173.8,4-109.3,4-109.3,15.1,54.6,23.8,54.6,23.7-55.4,23.7-55.4-3.1,107.8,5.6,110.1S1586.5,877.6,1593.5,862.1Z"></path><path fill="#cf5be8" d="M1278.3,1233.5c-4.9,0-16.6,17.2-60.1,65.6-7.4,8.3,38.6,2.7,43.3.4C1264,1298.6,1284.1,1233.5,1278.3,1233.5Z"></path><path fill="#b8916c" d="M1169.3,1323.1c-5.1,4.9-42.1-11.9-37.2-14.6,51.9-28.7,86.8-43.2,88.4-40.9S1183.1,1309.6,1169.3,1323.1Z"></path><path fill="#b8916c" d="M1623,899c10.6-2.9,8.7,49.9,5.5,56.2s-85.2,50-88.9,43.6S1602,904.7,1623,899Z"></path><path fill="#cf5be8" d="M1602.2,1233.5c4.8,0,16.6,17.2,60.1,65.6,7.4,8.3-38.7,2.7-43.3.4C1616.5,1298.6,1596.4,1233.5,1602.2,1233.5Z"></path><path fill="#b8916c" d="M1711.2,1323.1c5,4.9,42-11.9,37.2-14.6-52-28.7-86.9-43.2-88.4-40.9S1697.4,1309.6,1711.2,1323.1Z"></path><path fill="#cf5be8" d="M1261.7,1563.8l25.6-128.8a3,3,0,0,0-5.6-2l-32,60.1-82.1,62.6a23.7,23.7,0,0,0-5.4,6l-115,184.6a2.8,2.8,0,0,0,4.1,3.6l206-178.4A13.1,13.1,0,0,0,1261.7,1563.8Z"></path><path fill="#cf5be8" d="M1326.2,1608.3,1174,1787.5a16.8,16.8,0,0,0-3.2,6.4l-27.5,115.4c-1,4.3,4.6,7.1,7.4,3.7l149.6-181.1a11,11,0,0,0,2.3-4.4l28.6-116.7A2.9,2.9,0,0,0,1326.2,1608.3Z"></path><path fill="#cf5be8" d="M1089.6,1609.7,754.3,1858.1s-1.5,77.4,36.6,108.4l173.3-148.8a14.8,14.8,0,0,0,3.3-3.8l126.4-200.2A3,3,0,0,0,1089.6,1609.7Z"></path><path fill="#b8916c" d="M1130.9,1754.7,816.2,2030.6s-4.2,32.4,0,47.2,19.7,61.9,28.2,63.3,55.5-27.4,55.5-27.4l28-20.3,208.3-333.9A3.6,3.6,0,0,0,1130.9,1754.7Z"></path><path fill="#cf5be8" d="M1610.2,1435.3l29.3,55.8a12.3,12.3,0,0,0,3.1,3.7l78.7,59.8a8,8,0,0,1,2,2.1l117.6,188.7a2.8,2.8,0,0,1-4.2,3.6l-207.6-179.7a5.8,5.8,0,0,1-1.9-3.4L1605,1437A2.8,2.8,0,0,1,1610.2,1435.3Z"></path><path fill="#cf5be8" d="M1570.1,1606.4l149,176.7a28.9,28.9,0,0,1,5.6,10.7l31.9,115.4a4.3,4.3,0,0,1-7.4,3.8l-157.9-185.8-29-116.8C1561.1,1605.8,1567,1602.8,1570.1,1606.4Z"></path><path fill="#cf5be8" d="M1801,1612.1,2118.2,1848s6.6,67-14.7,123.4l-184.9-161.5a16.1,16.1,0,0,1-3.8-4.4l-118.5-189.1C1794.4,1613.4,1798.2,1610,1801,1612.1Z"></path><path fill="#b8916c" d="M1766.3,1755.9l315.8,277.7s4.1,53.6-25.5,91.1l-51.2-7.1c-2.9-1.1-5.8-2.4-7.5-5L1762,1759.7C1760.2,1756.9,1763.8,1753.7,1766.3,1755.9Z"></path><path fill="#cf5be8" d="M1222.7,2053.5l-117.9,137.7a4,4,0,0,1-7.1-3.2l15.5-94.2a5.3,5.3,0,0,0-9.3-4.4l-59.4,67.8s3.3,112.2,3.3,120.4-18.3,23.2-33.8,26.1-27.5,6.1-26.1,26.8,4.1,33.5,36.4,33.1,100,10.2,122.7-9.6,26.4-40,31.3-61.8C1183.5,2268.8,1222.7,2053.5,1222.7,2053.5Z"></path><path fill="#cf5be8" d="M1850.4,2160.9l-67.9-70.3a3.7,3.7,0,0,0-6.3,3.2l15,94.8a3.7,3.7,0,0,1-6.6,3l-109.2-145.3a1.2,1.2,0,0,0-2.1,1c5.2,31.9,35.6,218,37.8,230.4s14.4,81.6,57.8,84.9c54,4.1,115.5,1.5,123.2-5.3s16.9-40.2,4.9-53.2-36.4-2.8-45.6-13.9S1850.4,2160.9,1850.4,2160.9Z"></path><path fill="#b8916c" d="M1716.1,2300.4h-541l77.1-389a24.9,24.9,0,0,1,4.9-10.7l77.6-106.9a104.5,104.5,0,0,1,82.6-39.6l61.1.5a107.4,107.4,0,0,1,86.4,44.8l83,103.9a29.8,29.8,0,0,1,5,12Z"></path></g></g><g id="shadow" style="mix-blend-mode:multiply"><defs><clipPath id="shadowClipPath"><path d="M2200.5 2195.7c-43-29.4-132.4-61.7-179.8-75.5l-.8-.3a248.1 248.1 0 0 0 6.4-155.8l-187.6-610.4c17.6-34.9 61-110.9 113.2-125.9 0 0-88.7-56.5-124.3 14.3 0 0 21.7-65.9 51.6-64.7 0 0-53.7-13.5-94 1.8l-54.1-175.2a240.5 240.5 0 0 0-47.2-89.2l73.3-118.6c-16.9-8.5-120.8 34.6-150.3 57.8-9.4-4.7-43.8-16.3-53.8-19.8 23.8-76.5-17.6-127.4-17.6-127.4 5.8 45.5-30.4 65.4-30.4 65.4 38-87.2-138.7-174-138.7-174s16.3 57-35.1 100.5c-58.7 49.6-34.7 93-34.7 93s-33.8-9.4-31.4-41.6c-30.3 36.3-14.3 67.9 1 89.7-14.1 5.8-44.7 19.9-57.4 28.2l-2.7-5.1c-44.5-36.6-124.6-49.2-135.6-33.6l64.5 115.2a240.3 240.3 0 0 0-33 93.8l-31.8 167c-43.6-11.2-94.8 18.3-94.8 18.3 28.5-9 66.7 48.8 66.7 48.8-53-59-123.7 18.9-123.7 18.9 54.3.8 98.7 67.6 116.7 99l-115.9 609.3a248.9 248.9 0 0 0 12.6 117.5l-.6.3c-38.1 9.1-130.4 43.4-184.5 78.3-26.5 17.1-10.1 55.9 23.2 55.3l266.9-5.2q6.8 4.1 13.8 7.9l.2 3.4c.4 23.3-6.7 42.4-29.9 43.6-15.6.8-28.2 9.9-30.6 21.1-4.7 21.5 5.8 38.9 27.2 40.4l84.3 5c26.4 1.6 51.9-11.3 65.3-34.1a71.4 71.4 0 0 0 8.8-23.9l5-26.6h533.6l3.5 20.7a71.6 71.6 0 0 0 43.1 54.3 53.5 53.5 0 0 0 22.3 4l91.8-3c22-2.2 30.1-15.7 27.9-36.9-.7-6.9-6.2-24.5-24.5-25.5-15.8-.9-25.2-8.6-28.1-21.9a246.8 246.8 0 0 0 65.4-28.1l261.5 5.1c33.2.3 49.2-37.8 23.1-55.6z" fill="none"></path></clipPath><linearGradient id="shadowGradient" x1="1713.27" y1="794.55" x2="1713.27" y2="927.94" gradientUnits="userSpaceOnUse"><stop offset="0" stop-color="gray"></stop><stop offset=".14" stop-color="#797979"></stop><stop offset=".35" stop-color="#646464"></stop><stop offset=".6" stop-color="#434343"></stop><stop offset=".89" stop-color="#141414"></stop><stop offset="1"></stop></linearGradient><linearGradient id="shadowGradient2" x1="1041.15" y1="888.73" x2="1175.15" y2="888.73" href="#shadowGradient" xlink:href="#shadowGradient"></linearGradient></defs><g clip-path="url(#shadowClipPath)"><path d="M968.2 1406.2S920.5 1826 892 1975.5c-31.7 166.5 17.2 278.2 79.2 278.2 49.7 0 81 .8 81 .8l-1.3-49c-5-88-29.1-150.8-52.6-176.8v-3.4a910.2 910.2 0 0 1 6.8-98.4c6.3-50.8 32.5-270.9 52.6-404.1l.2-1.3c4.1-26.2 20.1-82 14.2-132.2-3.7-31.6-27-67.9-52.3-87.2-23.4-17.9-58-30.9-102.8-11.2M979.5 1223.4c27-9.4 58.1-1.2 80.3 16.7 15.3 12.3 26.8 28.7 35 46.7 3.1 6.9-4.6 13.6-11 9.6-15.5-9.5-32.8-16.8-47.1-28.2-7-5.6-14.6-12.7-23.6-11.6M1263 761.6c.6.4.5-1.2-.2-.9s-.7 1.2-.6 1.9c5.5 37.5 28.1 72.1 59.8 92.7a4.4 4.4 0 0 1-1.9 8.1l-4.9.6c-4.9.6-9.9 1.2-14.6-.2-8.2-2.3-13.7-9.8-18.5-16.9s-38.9-70.3-43.3-76.8M1296.3 781.7a109.8 109.8 0 0 0 43.3 45.8 4.4 4.4 0 0 0 5.9-6.3 147.6 147.6 0 0 1-8.8-15.5c-6.3-12.3-12.4-25.5-10.7-39.2 1-8 4.6-15.4 8.8-22.2 8-13 18.4-24.4 27.6-36.6s17.2-25.9 19.4-41c1.7-11.7-.1-23.6-3.3-35a153 153 0 0 0-11-28.3c-.8-1.6-1.8-3.3-3.4-3.9a7.7 7.7 0 0 0-4-.1l-23.7 3.5M1507.8 766.2a204.1 204.1 0 0 1-22.2 44.1 4.4 4.4 0 0 0 5.5 6.5c15.1-6.8 28-18.5 38.8-31.3 7.5-8.9 14.4-18.8 16.9-30.1s.3-25-5.2-36M1226.5 2040.4c-24.3 147.7 54.3 178.3 68.5 181.6 86.5 15.5 223.8 8.8 268.5-7 41.8-14.8 129.9-58.5 108-189.5l43 256.8h-533.6zM1854.3 2157.4s29.9-91.4 66.3-124.9c-39.4 75 14.1 92.7 28.1 87.7 53.7-19.2 75-66.7 79.2-150l65.3 116.3s-55 256-204 214l-38.7-18.1z" fill="#7f7f7f" opacity=".2"></path><path d="M1781.2 799.5s-38-26-102 41.5l-33.7 40.5 56.1 46.5z" opacity=".4" fill="url(#shadowGradient)" style="mix-blend-mode:multiply"></path><path d="M1041.2 839.5s27.5-18.9 71.6-.8a122.7 122.7 0 0 1 47.5 35.2l14.9 17.9-37.7 54.9z" opacity=".4" fill="url(#shadowGradient2)" style="mix-blend-mode:multiply"></path><path d="M1064.2 1202.7l42-187s27-127.3 169.1-177.9l17.9 26.1c-81.5 23.6-139.4 72.8-167.7 196.6-6.6 28.9-34.5 154-34.5 154M1052.2 2254.4s-31.3-.8-81-.8" fill="#7f7f7f" opacity=".2"></path></g></g><g id="highlight" style="mix-blend-mode:overlay"><defs><clipPath id="highlightClipPath"><path d="M2200.5 2195.7c-43-29.4-132.4-61.7-179.8-75.5l-.8-.3a248.1 248.1 0 0 0 6.4-155.8l-187.6-610.4c17.6-34.9 61-110.9 113.2-125.9 0 0-88.7-56.5-124.3 14.3 0 0 21.7-65.9 51.6-64.7 0 0-53.7-13.5-94 1.8l-54.1-175.2a240.5 240.5 0 0 0-47.2-89.2l73.3-118.6c-16.9-8.5-120.8 34.6-150.3 57.8-9.4-4.7-43.8-16.3-53.8-19.8 23.8-76.5-17.6-127.4-17.6-127.4 5.8 45.5-30.4 65.4-30.4 65.4 38-87.2-138.7-174-138.7-174s16.3 57-35.1 100.5c-58.7 49.6-34.7 93-34.7 93s-33.8-9.4-31.4-41.6c-30.3 36.3-14.3 67.9 1 89.7-14.1 5.8-44.7 19.9-57.4 28.2l-2.7-5.1c-44.5-36.6-124.6-49.2-135.6-33.6l64.5 115.2a240.3 240.3 0 0 0-33 93.8l-31.8 167c-43.6-11.2-94.8 18.3-94.8 18.3 28.5-9 66.7 48.8 66.7 48.8-53-59-123.7 18.9-123.7 18.9 54.3.8 98.7 67.6 116.7 99l-115.9 609.3a248.9 248.9 0 0 0 12.6 117.5l-.6.3c-38.1 9.1-130.4 43.4-184.5 78.3-26.5 17.1-10.1 55.9 23.2 55.3l266.9-5.2q6.8 4.1 13.8 7.9l.2 3.4c.4 23.3-6.7 42.4-29.9 43.6-15.6.8-28.2 9.9-30.6 21.1-4.7 21.5 5.8 38.9 27.2 40.4l84.3 5c26.4 1.6 51.9-11.3 65.3-34.1a71.4 71.4 0 0 0 8.8-23.9l5-26.6h533.6l3.5 20.7a71.6 71.6 0 0 0 43.1 54.3 53.5 53.5 0 0 0 22.3 4l91.8-3c22-2.2 30.1-15.7 27.9-36.9-.7-6.9-6.2-24.5-24.5-25.5-15.8-.9-25.2-8.6-28.1-21.9a246.8 246.8 0 0 0 65.4-28.1l261.5 5.1c33.2.3 49.2-37.8 23.1-55.6z" fill="none"></path></clipPath><linearGradient id="highlightGradient" x1="1980.63" y1="2256.39" x2="1980.63" y2="1316.81" gradientUnits="userSpaceOnUse"><stop offset="0" stop-color="#fff" stop-opacity="0"></stop><stop offset=".72" stop-color="#fff"></stop></linearGradient><linearGradient id="highlightGradient2" x1="2116.32" y1="2248.97" x2="2116.32" y2="2113.28" href="#highlightGradient" xlink:href="#highlightGradient"></linearGradient><linearGradient id="highlightGradient3" x1="1044.74" y1="2253.08" x2="1044.74" y2="2117.39" gradientTransform="matrix(-1 0 0 1 1878.82 0)" href="#highlightGradient" xlink:href="#highlightGradient"></linearGradient><linearGradient id="highlightGradient4" x1="916.6" y1="1819.55" x2="1050.67" y2="1819.55" href="#highlightGradient" xlink:href="#highlightGradient"></linearGradient><linearGradient id="highlightGradient5" x1="1817.86" y1="1232.71" x2="1965.97" y2="1232.71" href="#highlightGradient" xlink:href="#highlightGradient"></linearGradient><linearGradient id="highlightGradient6" x1="1735.34" y1="1202.52" x2="1910.15" y2="1202.52" href="#highlightGradient" xlink:href="#highlightGradient"></linearGradient><linearGradient id="highlightGradient7" x1="1670.82" y1="1197.92" x2="1670.82" y2="834.22" href="#highlightGradient" xlink:href="#highlightGradient"></linearGradient></defs><g clip-path="url(#highlightClipPath)" opacity=".3"><path d="M1826.8 1487.5c65.3 196.3 115.7 361.1 143.2 482.9 46.1 204.7-81.2 286-81.2 286l61.1-35.5s63-74.8 72.5-107.6c20.8-71.9 139-33 117.2-147.7l-280.3-648.8s-61.3 84-32.5 170.7z" fill="url(#highlightGradient)"></path><path d="M1999.2 2162.4s113.2 21.1 98.4 83.6l92.6 3 43.3-6.5-4.3-68.5-206.8-60.7z" fill="url(#highlightGradient2)"></path><path d="M951.2 2166.5s-113.2 21.1-98.4 83.6l-92.6 3-43.3-6.5 4.3-68.5 206.8-60.7z" opacity=".7" fill="url(#highlightGradient3)"></path><path d="M1033.3 1497.2l-85.2 457.3s-53.5 175 102.2 279l.3 20.2s-124.5-57.2-133.5-215.2 97-653 97-653l30.2 20.7a729.5 729.5 0 0 1-11 91z" fill="url(#highlightGradient4)" style="mix-blend-mode:overlay"></path><path d="M1966 1233.5a109.2 109.2 0 0 0-70-1.9c-15.3 4.8-29.3 12.8-42.9 21.3-8.9 5.5-17.8 11.4-25.8 18.2a5.7 5.7 0 0 1-9.3-5.7v-.2c4.4-17.5 15.2-32.9 28.7-44.8s29.6-20.5 46.2-27.5" fill="url(#highlightGradient5)"></path><path d="M1910.2 1175.9a298.9 298.9 0 0 0-165.8 52.2c-5.4 3.7-11.7-3.1-7.7-8.3s5.9-7.2 8.9-10.8c6.6-8 13.5-16.1 22.4-21.3 5-2.9 10.5-4.9 15.5-8" fill="url(#highlightGradient6)"></path><path d="M1797.5 1175.5s-63.3-204-114.8-259.6c-20.7-36.8-78.6-66.4-129.5-81.7l-9 14.9s56.2 26.7 84.6 52.3c53.3 48 106.9 201.8 128.4 296.4l40.2-22.5" fill="url(#highlightGradient7)"></path></g></g><g id="bodyMask"><path fill="none" opacity=".2" d="M.49999452 3.09371682l2999.99543074-5.2359851 5.2359851 2999.99543074-2999.99543075 5.2359851z"></path><path d="M2200.5 2195.7c-43-29.4-132.4-61.7-179.8-75.5l-.8-.3a248.1 248.1 0 0 0 6.4-155.8l-187.6-610.4c17.6-34.9 61-110.9 113.2-125.9 0 0-88.7-56.5-124.3 14.3 0 0 21.7-65.9 51.6-64.7 0 0-53.7-13.5-94 1.8l-54.1-175.2a240.5 240.5 0 0 0-47.2-89.2l73.3-118.6c-16.9-8.5-120.8 34.6-150.3 57.8-9.4-4.7-43.8-16.3-53.8-19.8 23.8-76.5-17.6-127.4-17.6-127.4 5.8 45.5-30.4 65.4-30.4 65.4 38-87.2-138.7-174-138.7-174s16.3 57-35.1 100.5c-58.7 49.6-34.7 93-34.7 93s-33.8-9.4-31.4-41.6c-18.5 33.1-6.9 64.4 8.4 86.2-14.1 5.8-52.2 23.4-64.8 31.7l-2.7-5.1c-44.5-36.6-124.6-49.2-135.6-33.6l64.5 115.2a240.3 240.3 0 0 0-33 93.8l-31.8 167c-43.6-11.2-94.8 18.3-94.8 18.3 28.5-9 66.7 48.8 66.7 48.8-53-59-123.7 18.9-123.7 18.9 54.3.8 98.7 67.6 116.7 99l-115.9 609.3a248.9 248.9 0 0 0 12.6 117.5l-.6.3c-38.1 9.1-130.4 43.4-184.5 78.3-26.5 17.1-10.1 55.9 23.2 55.3l266.9-5.2q6.8 4.1 13.8 7.9l.2 3.4c.4 23.3-6.7 42.4-29.9 43.6-15.6.8-28.2 9.9-30.6 21.1-4.7 21.5 5.8 38.9 27.2 40.4l84.3 5c26.4 1.6 51.9-11.3 65.3-34.1a71.4 71.4 0 0 0 8.8-23.9l5-26.6h533.6l3.5 20.7a71.6 71.6 0 0 0 43.1 54.3 53.5 53.5 0 0 0 22.3 4l91.8-3c22-2.2 30.1-15.7 27.9-36.9-.7-6.9-6.2-24.5-24.5-25.5-15.8-.9-25.2-8.6-28.1-21.9a246.8 246.8 0 0 0 65.4-28.1l261.5 5.1c33.2.3 49.2-37.8 23.1-55.6z" fill="none"></path></g><g id="body"><path fill="#fff" stroke="#31323d" stroke-width="12.5" stroke-miterlimit="10" d="M1714.5 2282.4h-533.6" stroke-linecap="round"></path><path fill="none" stroke="#31323d" stroke-width="12.5" stroke-miterlimit="10" d="M1851.5 1395.4l174.8 568.6c39 137.9-45.2 275-175.8 309.9m-799.8-20.2c-89.2-47.1-145.7-146.2-131.5-254.1l106.8-561.2" stroke-linecap="round"></path><path fill="#31323d" d="M1228.6 2040.8c-1.7 15.3-3.8 30.4-6 45.6l-3.5 22.7-3.8 22.6c-2.6 15.1-5.4 30.1-8.1 45.2l-8.3 45.1-16.6 90.3a76.3 76.3 0 0 1-3.5 12.1 77.5 77.5 0 0 1-5.4 11.4 75.5 75.5 0 0 1-16 19.4 78.7 78.7 0 0 1-45.9 18.8l-6.3.2h-6.1l-11.5-.7-22.9-1.3-45.8-2.8h-4.7l-1.8-.3a44.1 44.1 0 0 1-6.7-1.7 35.7 35.7 0 0 1-12.3-7.3 34.7 34.7 0 0 1-8.3-11.7 40.4 40.4 0 0 1-3.1-13.5 50.7 50.7 0 0 1 1-13.2l.2-.8v-1.7l.3-1.1a26.9 26.9 0 0 1 1.5-3.6 30.2 30.2 0 0 1 4.1-6.2 37.9 37.9 0 0 1 11-8.8 45.9 45.9 0 0 1 12.7-4.5 49 49 0 0 1 6.6-.9l2.7-.2 2.1-.3a22 22 0 0 0 4.3-1.2 18.5 18.5 0 0 0 3.8-1.9c4.6-3 7.7-8.4 9.4-14.8a70.5 70.5 0 0 0 1.8-20.8l-.9-22.9-1.9-45.9c-.6-15.3-1.3-30.6-1.8-45.9v.5c-.6-5-1.3-9.9-2-14.9-.4-2.5-.8-4.9-1.2-7.4s-.9-4.9-1.4-7.3-1-4.9-1.6-7.3l-1.8-7.2q-1.9-7.2-4.4-14.2c-.8-2.3-1.7-4.6-2.6-6.9s-1.8-4.6-2.9-6.8l-1.5-3.4-1.6-3.3-1.7-3.3-1.8-3.3-1.8-3.2-1.9-3.2-4-6.3c-1.4-2.1-2.8-4.1-4.3-6.2l-2.2-3-2.3-3a2.2 2.2 0 0 1 3.4-2.9l5.4 5.6q2.6 2.9 5.1 5.9c1.7 2 3.3 4 4.8 6.1l2.3 3.2 2.2 3.2c1.5 2.2 2.9 4.3 4.2 6.6l2 3.4 1.9 3.4q1.9 3.4 3.5 7c1.1 2.4 2.2 4.7 3.2 7.2q3 7.2 5.4 14.7c1.6 5 3 10 4.2 15q.9 3.8 1.7 7.6c.5 2.5 1.1 5.1 1.5 7.6.9 5.1 1.7 10.2 2.4 15.3v.5c.9 15.3 1.6 30.6 2.4 45.8l2.3 45.8 1.1 22.9a94.4 94.4 0 0 1-.1 12.3 71.8 71.8 0 0 1-1.9 12.5 54.5 54.5 0 0 1-2 6.3 42.8 42.8 0 0 1-3.1 6.2 33.3 33.3 0 0 1-9.8 10.4 35.1 35.1 0 0 1-13.2 5.3l-3.5.5-3 .2a35 35 0 0 0-4.7.6 31.9 31.9 0 0 0-8.8 3.2 23.9 23.9 0 0 0-6.9 5.5 16.1 16.1 0 0 0-2.2 3.3 13 13 0 0 0-1.2 3.7 36.6 36.6 0 0 0-.7 9.6 26.2 26.2 0 0 0 2 8.7 20.4 20.4 0 0 0 4.9 6.9 21.4 21.4 0 0 0 7.3 4.3 30.1 30.1 0 0 0 4.4 1.1l1 .2h3.9l45.8 2.7 22.9 1.4 11.5.7h10.5a64.5 64.5 0 0 0 37.6-15.2 61.4 61.4 0 0 0 13.1-15.7 65 65 0 0 0 7.4-19.2l17.4-90.1 8.7-45.1c2.9-15 5.8-30 8.8-45l4.7-22.5 5-22.4c3.4-14.9 7-29.8 11-44.6a2.2 2.2 0 0 1 4.9.6z"></path><path fill="#31323d" d="M1095.2 2319.6h-.5l-1.7.2a18.6 18.6 0 0 0-5.8 2 22.5 22.5 0 0 0-6.7 5.5 30.2 30.2 0 0 0-2.9 4 38.9 38.9 0 0 0-2.4 4.6l-.5 1.2-.5 1.2-.5 1.2-.4 1.3c-.5 1.7-.9 3.4-1.3 5l-.5 2.4c-.2.8-.3 1.6-.4 2.4s-.4 3-.6 4.4-.2 2.6-.3 3.7-.1 2.1-.2 2.9v2.7a6.3 6.3 0 1 1-12.5-.6 6.9 6.9 0 0 1 .1-.8l.5-2.7c.2-.9.3-1.9.6-3.1s.5-2.6.9-4.1.8-3.1 1.3-4.8l.8-2.6.9-2.7c.7-1.8 1.4-3.7 2.3-5.5l.6-1.4.7-1.4.7-1.4.8-1.4a46.9 46.9 0 0 1 3.6-5.2 37.5 37.5 0 0 1 4.2-4.5 28.8 28.8 0 0 1 9.4-5.8 23.9 23.9 0 0 1 7.7-1.5h3.1a2.2 2.2 0 1 1-.5 4.8zm-42.5-4.7h-.6l-1.6.4-2.5.9-.7.3-.8.4-1.6.9-1.7 1.1-1.7 1.3-.9.7-.8.8-1.6 1.7-1.5 2-.7 1-.6 1.1-1.3 2.2-1.1 2.4c-.3.8-.7 1.6-1 2.4l-.8 2.5-.8 2.4-.6 2.5a42.3 42.3 0 0 0-1 4.7l-.6 4.3a35.4 35.4 0 0 0-.3 3.7l-.2 2.8-.2 2.5v.4a6.3 6.3 0 1 1-12.5-.8 6.9 6.9 0 0 1 .1-.8l.5-2.7.6-3.1c.3-1.2.4-2.5.9-4l1.3-4.7a51.3 51.3 0 0 1 1.8-5.2l1-2.7 1.3-2.7 1.3-2.7c.5-.9 1.1-1.8 1.6-2.7l1.7-2.6 1.9-2.4.9-1.2 1.1-1.1 2.1-2.1 2.2-1.8 1.1-.9 1.2-.7 2.2-1.4 2.2-1.1 2.1-.8 1-.4 1-.3a26.5 26.5 0 0 1 3.2-.7l2.2-.2h.8a2.2 2.2 0 1 1 .4 4.4zm621-289.7l2.2 9.4c1.4 6.1 3.4 15.1 5.8 26.6 1.2 5.7 2.5 12.1 3.9 19l4.4 22.5 4.8 25.6 5 28.4 23.3 135.3c1.1 6.1 2 12.8 3.6 17.8a63.3 63.3 0 0 0 7.2 15.7 65.1 65.1 0 0 0 25.9 23.4l4.1 1.9 1.1.4 1 .4 2 .7a45.4 45.4 0 0 0 8.4 1.7l4.3.3h4.6l10-.3 40.1-1.4 39.4-1.2 2.5-.3 1.2-.2.9-.2 1.9-.4 1.9-.6a21.7 21.7 0 0 0 6.5-3.5 17 17 0 0 0 4.3-5.4c.2-.6.6-1.1.7-1.7l.6-1.8a30.4 30.4 0 0 0 .8-3.9 37.8 37.8 0 0 0 .4-4.1v-2.1s0-1.4-.1-2.2l-.2-2.2v-.3a.3.3 0 1 1 0-.1v-1.6l-.2-.8-.2-.9c-.1-.6-.4-1.3-.6-1.9-1.7-5-4.7-9.3-8.4-11.7a17.3 17.3 0 0 0-6.4-2.3l-1.8-.2-2.6-.2h-1.2l-1.5-.2-2.9-.5a39.5 39.5 0 0 1-10.9-4.2 30.1 30.1 0 0 1-9.1-8 34 34 0 0 1-5.3-10.4 47.2 47.2 0 0 1-1.9-10.7c-.1-.9-.1-1.7-.1-2.6v-7.2l.2-9.1.8-35.4.2-8.6v-4.6l.3-4.2.3-4.2c.1-1.4.2-2.7.4-4.2l1-8.4a250.4 250.4 0 0 1 6.4-31.5 277 277 0 0 1 9.1-28l2.7-6.4c.9-2.1 1.7-4.2 2.7-6.2l2.8-5.9c.9-1.9 1.8-3.9 2.8-5.7l2.9-5.4 1.4-2.6 1.5-2.5 2.9-4.9c.9-1.6 1.8-3.2 2.8-4.7l5.6-8.7 5.4-7.7 2.6-3.5 2.5-3.2c1.6-2.1 3.1-4.1 4.6-5.8l4.1-4.9 3.5-4 6.6-7.1a2.2 2.2 0 0 1 3.4 2.8l-5.6 7.8c-3.6 5.1-8.8 12.6-14.9 22.5l-4.7 7.8-4.8 8.8c-.9 1.5-1.7 3.1-2.5 4.7l-2.5 4.9-1.3 2.5-1.2 2.6-2.5 5.4a290.9 290.9 0 0 0-17.7 50.6l-.9 3.6-.4 1.8-.4 1.8-1.5 7.4-.4 1.9-.3 1.9-.6 3.8-.6 3.9-.3 1.9-.2 1.9-.9 7.8c-.2 1.3-.2 2.7-.3 4.1l-.3 4.2-.3 4.2v12.5l-.5 35.4v15.8s0 1.4.1 2a33.7 33.7 0 0 0 1.4 7.5 20.3 20.3 0 0 0 3.2 6.2c2.7 3.6 6.9 5.8 12 6.9l1.8.3.9.2h1.2l2.2.2 3 .3a31.3 31.3 0 0 1 11.7 4.2 31.8 31.8 0 0 1 9 8.5 40.3 40.3 0 0 1 5.4 10.5c.3.9.6 1.8.8 2.8l.4 1.4.3 1.6v2.9l.2 2.7c.1.9.1 1.8.1 2.8s.1 1.8 0 2.8a52 52 0 0 1-.5 5.7 44.4 44.4 0 0 1-1.2 5.8l-1 2.9c-.3 1-.8 1.9-1.3 2.9a31.3 31.3 0 0 1-7.9 10.1 35.8 35.8 0 0 1-10.9 6l-2.8.9-3 .7-1.5.3-1.3.2-2.5.3h-5.7l-5 .2-10 .4-20.1.7-40.1 1.3-10 .3h-5.4l-5.6-.4a59.7 59.7 0 0 1-11-2.3l-2.7-.9-1.4-.5-1.2-.5-4.9-2.3a79.2 79.2 0 0 1-31.4-28.6 77.2 77.2 0 0 1-8.7-19.2l-.7-2.6-.3-1.3c-.1-.4-.2-.9-.3-1.3l-.5-2.3-.2-1.2v-1.4l-1.5-9.3-22-135.6-4.5-28.5-3.8-25.7-3.2-22.7c-1-7-1.8-13.4-2.5-19.3-1.5-11.6-2.5-20.8-3.2-27.1l-1-9.6a2.2 2.2 0 0 1 3.8-.6z"></path><path fill="#31323d" d="M1783.2 2307.4h3.2a34.8 34.8 0 0 1 8 1.7 33.5 33.5 0 0 1 5.1 2.1 34.2 34.2 0 0 1 5.3 3.3 37.9 37.9 0 0 1 5 4.5c.7.9 1.5 1.7 2.2 2.7l1 1.4 1 1.5a46.8 46.8 0 0 1 3.3 6.1 56.5 56.5 0 0 1 2.4 6.2c.4 1 .6 2 .9 3s.5 2 .7 2.9l.6 2.8.4 2.6c.3 1.7.4 3.2.6 4.6s.3 2.5.3 3.5l.2 3.1a6.3 6.3 0 0 1-12.5.8 6.4 6.4 0 0 1 0-.7v-.3l.2-2.7c.1-.9.1-1.9.1-3.1s.1-2.6 0-4v-2.3l-.2-2.4c-.1-.8-.2-1.7-.3-2.5s-.2-1.8-.4-2.6a47.1 47.1 0 0 0-1.3-5.3 38.1 38.1 0 0 0-2.1-5.2l-.6-1.3-.7-1.2c-.4-.8-1-1.6-1.5-2.3a30.5 30.5 0 0 0-3.5-4.1 29.3 29.3 0 0 0-8-5.5 29.5 29.5 0 0 0-6.6-2.2l-1.9-.3h-.7a2.2 2.2 0 0 1-.2-4.8zm50.6-3.2h3.2a34.8 34.8 0 0 1 8 1.7 33.5 33.5 0 0 1 5.1 2.1 34.2 34.2 0 0 1 5.3 3.3 37.9 37.9 0 0 1 5 4.5c.7.9 1.5 1.7 2.2 2.7l1 1.4 1 1.5a46.8 46.8 0 0 1 3.3 6.1 56.6 56.6 0 0 1 2.4 6.2c.4 1 .6 2 .9 3s.5 2 .7 2.9l.6 2.8.4 2.6c.3 1.7.4 3.2.6 4.6s.3 2.5.3 3.5l.2 3.1a6.3 6.3 0 1 1-12.5.1v-.3l.2-2.7c.1-.9.1-1.9.1-3.1s.1-2.6 0-4v-2.3l-.2-2.4c-.1-.8-.2-1.7-.3-2.5s-.2-1.8-.4-2.6a47.1 47.1 0 0 0-1.3-5.3 38 38 0 0 0-2.1-5.2l-.6-1.3-.7-1.2c-.4-.8-1-1.6-1.5-2.3a30.5 30.5 0 0 0-3.5-4.1 29.3 29.3 0 0 0-8-5.5 29.5 29.5 0 0 0-6.6-2.2l-1.9-.3h-.7a2.2 2.2 0 0 1-.2-4.8z"></path><path fill="none" stroke="#31323d" stroke-width="12.5" stroke-miterlimit="10" d="M931.3 2117.4c-38.1 9.1-130.4 43.4-184.5 78.3-26.5 17.1-10.1 55.9 23.2 55.3l280.4-5.5" stroke-linecap="round"></path><path fill="#31323d" d="M840.5 2200.1l-.7.2-2 .6-3.1 1-4 1.5-4.5 2.1a49.4 49.4 0 0 0-4.7 2.8 36 36 0 0 0-4.4 3.5 26.3 26.3 0 0 0-3.7 4.2l-.8 1.1-.7 1.2a21.4 21.4 0 0 0-1.1 2.4c-.2.4-.3.8-.4 1.2a8.9 8.9 0 0 0-.3 1.2 18.1 18.1 0 0 0-.4 2.4v3.6c0 .4.1.8.1 1.2a15.6 15.6 0 0 0 .3 2.2c.2.7.3 1.4.5 2.1a36.6 36.6 0 0 0 1.2 3.6 29.8 29.8 0 0 0 1.2 2.8l1.2 2.4.2.3a6.3 6.3 0 0 1-11.3 5.5l-.3-.7-1.1-3.1c-.4-1-.7-2.2-1.1-3.7a48 48 0 0 1-1-4.9c-.1-.9-.2-1.9-.3-2.9a24.9 24.9 0 0 1-.1-3.2v-1.7l.2-1.7c.1-.6.1-1.2.2-1.7l.4-1.8a27.7 27.7 0 0 1 1-3.5 16.1 16.1 0 0 1 .7-1.7l.8-1.7a30.5 30.5 0 0 1 2-3.2l1.1-1.5 1.2-1.4a34.5 34.5 0 0 1 5.4-4.9 43.4 43.4 0 0 1 5.8-3.6 56.1 56.1 0 0 1 5.7-2.6l5.2-1.8 4.4-1.2 3.5-.7 2.3-.3h.8a2.2 2.2 0 0 1 .8 4.4h-.1zm-47.5 2h-.6l-1.7.5a38.1 38.1 0 0 0-5.9 2.5 32.6 32.6 0 0 0-3.6 2.2 29.2 29.2 0 0 0-3.5 2.9 23.5 23.5 0 0 0-2.9 3.7 18.7 18.7 0 0 0-2 4.2 21.2 21.2 0 0 0-.6 2.2c-.1.8-.3 1.5-.3 2.3a24.7 24.7 0 0 0 .1 4.6 34.5 34.5 0 0 0 .8 4.3c.4 1.4.7 2.7 1.2 3.9l.6 1.7.7 1.5.6 1.3.6 1.1 1.1 2.1v.2a6.3 6.3 0 0 1-11.2 5.6l-.3-.8-.9-2.7-.5-1.4-.5-1.7-.5-1.9c-.2-.7-.3-1.4-.5-2.2s-.6-3.3-.8-5.1a44.7 44.7 0 0 1-.2-5.9 34.2 34.2 0 0 1 .8-6.3c.2-1.1.6-2.1.9-3.2a29.7 29.7 0 0 1 1.3-3.1 26.9 26.9 0 0 1 3.6-5.6 31 31 0 0 1 4.5-4.3 35.8 35.8 0 0 1 4.8-3 38.6 38.6 0 0 1 4.6-2 43.3 43.3 0 0 1 7.1-2l2-.3h.8a2.2 2.2 0 0 1 .8 4.4h-.4z"></path><path fill="none" stroke="#31323d" stroke-width="12.5" stroke-miterlimit="10" d="M2020.7 2120.2c47.5 13.8 136.8 46.1 179.8 75.5 26.1 17.8 10.1 55.9-23.2 55.3l-261.6-5.1" stroke-linecap="round"></path><path fill="#31323d" d="M2107.6 2193.7h.8l2.3.4 3.5.8 4.5 1.4 5.2 2a58.4 58.4 0 0 1 5.6 2.8 45.8 45.8 0 0 1 5.7 3.8 36.7 36.7 0 0 1 5.3 5.1l1.2 1.5 1.1 1.6a31 31 0 0 1 1.9 3.3c.3.6.5 1.2.8 1.7s.5 1.2.7 1.8l.6 1.8.3.9.2.9a26.4 26.4 0 0 1 .6 3.5 25.1 25.1 0 0 1 .2 3.4 42.1 42.1 0 0 1-.4 6.2 50.3 50.3 0 0 1-1 5c-.4 1.5-.7 2.8-1.1 3.7l-1.1 3.2a6.3 6.3 0 0 1-11.8-4.1l.3-.7.2-.3 1.2-2.4c.4-.8.7-1.7 1.2-2.8s.8-2.3 1.2-3.7a31.5 31.5 0 0 0 .8-4.4 15.7 15.7 0 0 0 .1-2.4 16.7 16.7 0 0 0-.1-2.5v-1.2l-.2-1.3c-.1-.4-.2-.8-.4-1.3a12.8 12.8 0 0 0-.4-1.3 21.8 21.8 0 0 0-1.1-2.5l-.7-1.2-.8-1.2a28.5 28.5 0 0 0-3.7-4.4 38.4 38.4 0 0 0-4.4-3.8 51.5 51.5 0 0 0-4.7-3l-4.5-2.3a66.6 66.6 0 0 0-7.1-2.9l-2-.6-.7-.2h-.1a2.2 2.2 0 0 1 .8-4.3zm47.5 2h.8l2.1.4a44.7 44.7 0 0 1 7.1 2.4 40.4 40.4 0 0 1 4.5 2.3 38.2 38.2 0 0 1 4.7 3.3 33.1 33.1 0 0 1 4.4 4.5 30 30 0 0 1 4.8 8.8c.4 1.1.6 2.2.9 3.2s.4 2.2.6 3.3.3 2.2.2 3.2.1 2.1 0 3.1l-.2 2.9c-.3 1.8-.5 3.6-.8 5.2l-.5 2.3-.6 2-.5 1.8-.5 1.4-.9 2.7a6.3 6.3 0 0 1-11.8-4.1l.3-.7v-.3l1.1-2.2.6-1.2.6-1.4.7-1.6.6-1.7c.5-1.2.8-2.6 1.2-4l.4-2.2c.2-.7.2-1.5.3-2.3s.1-1.5.1-2.3-.1-1.6-.1-2.4-.2-1.6-.3-2.4a20.2 20.2 0 0 0-.6-2.3 20.6 20.6 0 0 0-2-4.4 25.7 25.7 0 0 0-2.9-3.9 31.5 31.5 0 0 0-3.5-3.2 34.4 34.4 0 0 0-3.6-2.4 39.4 39.4 0 0 0-5.9-2.9l-1.7-.6-.6-.2h-.1a2.2 2.2 0 0 1 1.1-4.1z"></path><path fill="none" stroke="#31323d" stroke-width="12.5" stroke-miterlimit="10" d="M1839.7 1357.2l59.7 194.1m-115.6-375.8l-52.7-171.5a241 241 0 0 0-149.5-160.9l-26.5-8.9m-483.8 366l30.8-162a241 241 0 0 1 144.3-190.3l18.1-7.1 7.9-3.1M1011.8 1513l22.4-118" stroke-linecap="round"></path><path fill="#31323d" d="M1040.5 1407.7c-1.6-3.2-3.4-6.4-5.2-9.6s-3.6-6.3-5.5-9.5q-5.7-9.4-11.9-18.4a282.8 282.8 0 0 0-27.4-33.9c-10-10.4-21-19.9-33.1-27.1a104.1 104.1 0 0 0-9.3-4.9 86.7 86.7 0 0 0-9.7-3.7 66.7 66.7 0 0 0-20-3.2 6.2 6.2 0 0 1-4.6-10.4h.1l1.7-1.8 1.7-1.7 3.3-3.2c2.3-2.1 4.6-4.1 6.9-6.1a171.7 171.7 0 0 1 14.8-11.1 138.5 138.5 0 0 1 16.2-9.4 103 103 0 0 1 17.7-6.8 77.1 77.1 0 0 1 19.2-2.9 63.1 63.1 0 0 1 19.5 2.7 62.4 62.4 0 0 1 9.2 3.6 68 68 0 0 1 8.5 5 74.1 74.1 0 0 1 7.6 6 92 92 0 0 1 6.8 6.8l-9.9 7.6-3-4.2-3.2-4.2q-3.2-4.2-6.6-8.3a161.8 161.8 0 0 0-14.4-15.2 76.9 76.9 0 0 0-16.2-11.7 31.8 31.8 0 0 0-8.5-3 16 16 0 0 0-7.8.3 6.2 6.2 0 0 1-5-11.4l3.6-1.8 3.6-1.7 7.2-3.1q7.2-2.9 14.7-5.3a164.3 164.3 0 0 1 30.5-6.7 106.5 106.5 0 0 1 31.4.7c2.6.5 5.2 1.1 7.7 1.8s5 1.6 7.5 2.6a76.1 76.1 0 0 1 7.1 3.4 74 74 0 0 1 6.7 4.2 2.5 2.5 0 0 1-2.8 4.2 65.6 65.6 0 0 0-27.3-9.4 98.7 98.7 0 0 0-29.1 1.1 154.8 154.8 0 0 0-28.3 8.1q-6.9 2.6-13.5 5.8l-6.6 3.3-3.2 1.7-3 1.8-5-11.4a26.9 26.9 0 0 1 7-1.2 30.8 30.8 0 0 1 6.8.5 44.1 44.1 0 0 1 12 4.2 72.9 72.9 0 0 1 10.1 6.3 109.8 109.8 0 0 1 8.9 7.3 174.2 174.2 0 0 1 15.5 16.4q3.6 4.3 7 8.7l3.3 4.5 3.3 4.7a6.2 6.2 0 0 1-9.8 7.7h-.1a79.5 79.5 0 0 0-5.8-5.8 61.7 61.7 0 0 0-6.4-5 55.4 55.4 0 0 0-6.9-4.1 49.8 49.8 0 0 0-7.4-2.9 50.5 50.5 0 0 0-15.7-2.2 64.6 64.6 0 0 0-16 2.4 90.5 90.5 0 0 0-15.5 6 126 126 0 0 0-14.7 8.5 159.1 159.1 0 0 0-13.7 10.3c-2.2 1.8-4.3 3.7-6.4 5.7l-3.1 3-1.5 1.5-1.4 1.5-4.5-10.5a78.9 78.9 0 0 1 23.5 4.4 98.4 98.4 0 0 1 10.9 4.8 115.3 115.3 0 0 1 10.2 5.7c13.1 8.3 24.3 18.8 34.5 30a291.7 291.7 0 0 1 27.2 35.9q6.1 9.4 11.6 19.2 2.8 4.9 5.4 9.8c1.7 3.3 3.4 6.6 5 10.1a3.5 3.5 0 0 1-6.3 3.1zM1827 1370c1.4-3.9 2.9-7.6 4.5-11.4s3.3-7.4 5-11.1 3.5-7.3 5.3-11 3.7-7.2 5.7-10.8c3.9-7.2 8-14.2 12.3-21.1 2.1-3.5 4.4-6.9 6.7-10.2s4.6-6.7 7.1-10q7.3-9.9 15.4-19.2a212 212 0 0 1 17.4-17.7 145 145 0 0 1 20.1-15.3 96.8 96.8 0 0 1 23.5-10.7l-1.7 12-1.7-1-1.8-1-3.8-2-7.7-3.8a158.7 158.7 0 0 0-15.9-6.3 133.5 133.5 0 0 0-16.3-4.3 89.9 89.9 0 0 0-16.5-1.7 64.1 64.1 0 0 0-16 1.8 50 50 0 0 0-14.4 6.1 49.3 49.3 0 0 0-6.3 4.7 54.9 54.9 0 0 0-5.5 5.7 61.1 61.1 0 0 0-4.8 6.5 79 79 0 0 0-4.1 7.1v.2a6.8 6.8 0 0 1-12.4-5.3c.6-1.9 1.3-3.6 1.9-5.4l2.1-5.2q2.1-5.2 4.5-10.3a174.7 174.7 0 0 1 10.8-19.8 110.1 110.1 0 0 1 6.7-9.4 73.2 73.2 0 0 1 8.1-8.7 44.2 44.2 0 0 1 10.5-7.1 30.9 30.9 0 0 1 6.5-2.2 27 27 0 0 1 7-.6l-1.8 12.3-3.7-.9-3.8-.9-7.7-1.5q-7.7-1.4-15.6-2.3a182.9 182.9 0 0 0-31.4-.9 109.5 109.5 0 0 0-30.5 6 64.2 64.2 0 0 0-25.7 16.6 2.5 2.5 0 0 1-3.8-3.3 64 64 0 0 1 12.3-11.5 77.4 77.4 0 0 1 14.6-8.2 117.2 117.2 0 0 1 32.2-8.3 192.5 192.5 0 0 1 33.1-1q8.3.4 16.5 1.4l8.2 1.1 4.1.7 4.2.8a6.2 6.2 0 0 1-1.6 12.3h-.1a16 16 0 0 0-7.5 1.8 32 32 0 0 0-7.3 5.2 76.8 76.8 0 0 0-12.4 15.6 161.6 161.6 0 0 0-9.8 18.4q-2.2 4.8-4.2 9.7l-1.9 4.9-1.7 4.9-12.5-5.2a92.5 92.5 0 0 1 4.8-8.4 74.6 74.6 0 0 1 5.8-7.9 68.4 68.4 0 0 1 6.9-7.1 62.9 62.9 0 0 1 8-6 63.6 63.6 0 0 1 18.3-7.8 77.7 77.7 0 0 1 19.4-2.3 103.5 103.5 0 0 1 19 1.9 131.8 131.8 0 0 1 18.1 4.8 172.1 172.1 0 0 1 17.2 7l8.3 4.1 4.1 2.2 2 1.2 2.1 1.3a6.6 6.6 0 0 1-1.7 12 83.7 83.7 0 0 0-20.3 9.1 132.1 132.1 0 0 0-18.4 13.8c-11.6 10.3-21.9 22.2-31.4 34.8q-3.6 4.7-7 9.5c-2.3 3.2-4.5 6.5-6.7 9.8s-4.4 6.6-6.5 9.9l-6.3 10.1c-2.1 3.4-4.1 6.8-6.1 10.2l-6 10.4c-2 3.5-3.9 7-5.8 10.5s-3.8 7-5.6 10.5a3.5 3.5 0 0 1-6.6-2.8z"></path><path fill="none" stroke="#31323d" stroke-width="12.5" stroke-miterlimit="10" d="M1206.2 862.9c-44.5-36.6-124.6-49.2-135.6-33.6l64.5 115.2M1607 854c29.5-23.2 133.4-66.3 150.3-57.8L1684 914.8" stroke-linecap="round"></path><path fill="#31323d" d="M1292.2 863.7c-2-1.9-3.8-3.8-5.6-5.8l-5.2-6q-5.1-6.1-9.7-12.6a134.6 134.6 0 0 1-15.3-28.2 91.5 91.5 0 0 1-4.5-15.7 71.3 71.3 0 0 1-1.2-16.6 66.6 66.6 0 0 1 1-8.4 61.1 61.1 0 0 1 5.3-16 70.1 70.1 0 0 1 4.2-7.3 5 5 0 0 1 9.2 2.9v.3a27.6 27.6 0 0 0 1.7 11.9 25.3 25.3 0 0 0 6.9 9.6 39.8 39.8 0 0 0 10.7 6.6 57.2 57.2 0 0 0 6.1 2.2l3.2.9 1.6.3h1.4l-5.4 8.8-.4-.6-.3-.5-.5-.9-.9-1.7c-.6-1.1-1.1-2.3-1.6-3.4a53.2 53.2 0 0 1-2.4-7.1 57.1 57.1 0 0 1-1.9-14.8 66.9 66.9 0 0 1 6.6-28.4 90.6 90.6 0 0 1 7.1-12.5 115.2 115.2 0 0 1 8.7-11.2c3.1-3.5 6.3-6.9 9.7-10.1l5.2-4.7 2.5-2.2 1.3-1.1 1.2-1.1a109 109 0 0 0 8.8-9.1 103.6 103.6 0 0 0 7.6-10.1 93.9 93.9 0 0 0 6.2-10.9 90.9 90.9 0 0 0 4.7-11.7 95.1 95.1 0 0 0 4.5-24.7 97.8 97.8 0 0 0-.2-12.6c-.2-2.1-.4-4.2-.7-6.2s-.3-2-.5-3l-.3-1.5-.2-.7v-.8a6.3 6.3 0 0 1 9-7.2c4.7 2.3 9.1 4.7 13.6 7.2l13.3 7.6q13.2 7.8 25.8 16.3a372 372 0 0 1 48.2 38 223.3 223.3 0 0 1 21.1 22.8 140 140 0 0 1 17 26.6 97.3 97.3 0 0 1 5.7 15.1 77.3 77.3 0 0 1 2.8 16.2 68.3 68.3 0 0 1-.9 16.6 71.9 71.9 0 0 1-4.9 15.8l-9-8.2.7-.4.9-.6 1.7-1.2 3.4-2.7 3.2-2.9 3-3.1 2.8-3.3 1.3-1.7 1.2-1.8c.8-1.2 1.6-2.4 2.2-3.7l1-1.9 1-1.9.9-2 .8-2c.3-.7.5-1.4.7-2s.5-1.4.6-2l.6-2.1.5-2.1c.2-.7.3-1.4.4-2.1s.3-1.4.3-2.1.4-2.9.4-4.3.1-1.4.1-2.2v-2.2c.1-1.4-.1-2.9-.1-4.4s-.3-2.9-.4-4.4v-.4a6.2 6.2 0 0 1 5.7-6.7 6.3 6.3 0 0 1 5.4 2.4l.9 1.2.8 1.1 1.5 2.2 2.8 4.5c1.8 3 3.4 6.2 4.8 9.3a135.1 135.1 0 0 1 12.6 60.6 143.2 143.2 0 0 1-7.1 40.5c-.5 1.6-1.1 3.2-1.7 4.9l-1.8 4.8c-1.3 3.2-2.6 6.3-4.1 9.4s-3 6.1-4.6 9.1l-2.5 4.5-2.6 4.4a3.5 3.5 0 0 1-6.1-3.4l2.3-4.3 2.2-4.4c1.4-2.9 2.8-5.9 4.1-8.9s2.5-6 3.6-9.1l1.6-4.6c.5-1.6 1-3.1 1.4-4.7a134.1 134.1 0 0 0 5.3-38.2 124.2 124.2 0 0 0-13.5-55.3c-1.4-2.8-3-5.6-4.7-8.3l-2.6-3.9-1.3-1.9-.7-.9-.6-.8 11-4.7c.2 1.7.4 3.4.5 5.1s.2 3.4.2 5.2v2.6c0 .9-.1 1.7-.1 2.6s-.3 3.5-.5 5.2-.3 1.7-.4 2.6-.3 1.7-.5 2.6l-.6 2.6-.7 2.5c-.2.8-.5 1.7-.8 2.5s-.5 1.7-.9 2.5l-1 2.4-1.1 2.4-1.2 2.4-1.2 2.3c-.8 1.5-1.8 3-2.7 4.5l-1.5 2.2-1.6 2.1-3.3 4-3.6 3.8-3.8 3.5-4.1 3.3-2.2 1.5-1.1.7-1.3.8a6.4 6.4 0 0 1-9-8h.1a59.1 59.1 0 0 0 3.9-13 56.9 56.9 0 0 0 .7-13.5 72.8 72.8 0 0 0-7.4-26.6 127.3 127.3 0 0 0-15.4-24.1 210.6 210.6 0 0 0-19.9-21.5c-7.1-6.8-14.7-13.2-22.4-19.3s-15.8-11.9-24-17.5-16.6-10.9-25.2-16l-12.9-7.4c-4.3-2.4-8.8-4.8-13.1-6.9l8.9-7.4.3 1 .2.9.4 1.8.6 3.6s.6 4.7.8 7.1a110.4 110.4 0 0 1 .2 14.2 107.7 107.7 0 0 1-5.1 28 103.4 103.4 0 0 1-5.3 13.2 106.4 106.4 0 0 1-7.1 12.4 113 113 0 0 1-8.6 11.3 121.2 121.2 0 0 1-9.9 10.1l-1.3 1.2-1.3 1.1-2.6 2.2-4.9 5.1c-3.1 2.9-6.2 6-9 9.2a103.1 103.1 0 0 0-7.8 10 78.7 78.7 0 0 0-6.3 10.8 63.2 63.2 0 0 0-4.2 11.5 50.5 50.5 0 0 0-1.6 11.9 45.5 45.5 0 0 0 1.3 11.8 41.7 41.7 0 0 0 1.8 5.6l1.2 2.6.7 1.2.3.6.2.4.2.4a5.6 5.6 0 0 1-5.6 8.5l-1.1-.2-1-.2-1.9-.5-3.8-1.1a63 63 0 0 1-7.3-2.8 50.5 50.5 0 0 1-13.5-8.8 38.2 38.2 0 0 1-5.5-6.3 34.6 34.6 0 0 1-3.9-7.5 35.6 35.6 0 0 1-2-8.2 42.1 42.1 0 0 1-.1-8.2l9.2 3.2a60.1 60.1 0 0 0-3.7 6.1 52.5 52.5 0 0 0-2.9 6.5 53.1 53.1 0 0 0-1.9 6.8 57.2 57.2 0 0 0-1 7.1c-.7 9.6 1.1 19.4 4.5 28.7a126.5 126.5 0 0 0 13.7 26.8c2.8 4.2 5.8 8.3 9 12.3l4.9 5.9c1.7 1.9 3.4 3.8 5.1 5.5a3.5 3.5 0 0 1-4.8 5.1z"></path></g></g><g id="item_g"></g><g id="item_f"></g><g id="eye"><defs><linearGradient id="eyeColor1" x2="0%" y2="100%"><stop offset="0%" stop-color="#729100"></stop></linearGradient><linearGradient id="eyeColor2" x2="0%" y2="100%"><stop offset="0%" stop-color="#729100"></stop></linearGradient></defs><circle cx="1170.2" cy="1123.7" r="129.7" fill="#fff" transform="rotate(-2.9 1184.83 1136.87)"></circle><circle cx="1170.2" cy="1123.7" r="129.7" fill="none" stroke="#31323d" stroke-width="10" stroke-miterlimit="10" transform="rotate(-2.9 1184.83 1136.87)" stroke-linecap="round"></circle><circle cx="1162.1" cy="1083.6" r="75.6" fill="url(#eyeColor1)" transform="rotate(-1.3 1125.3 1048.59)"></circle><circle cx="1162.1" cy="1083.6" r="54.4" fill="#31323d" transform="rotate(-1.3 1125.3 1048.59)"></circle><circle cx="1204.1" cy="1072.2" r="18.4" fill="#fff" transform="rotate(-1.3 1165.12 1035.82)"></circle><path fill="#d1dadf" d="M1046.2 1085.5A129.8 129.8 0 0 1 1281 1056a522.5 522.5 0 0 0-234.8 29.5z"></path><path fill="none" stroke="#31323d" stroke-width="10" stroke-miterlimit="10" d="M1046.2 1085.5A129.8 129.8 0 0 1 1281 1056a522.5 522.5 0 0 0-234.8 29.5z" stroke-linecap="round"></path><circle cx="1694.9" cy="1100.9" r="129.7" fill="#fff" transform="rotate(-87.1 1694.04 1101.04)"></circle><circle cx="1694.9" cy="1100.9" r="129.7" fill="none" stroke="#31323d" stroke-width="10" stroke-miterlimit="10" transform="rotate(-87.1 1694.04 1101.04)" stroke-linecap="round"></circle><circle cx="1702.1" cy="1069.8" r="75.6" fill="url(#eyeColor2)" transform="none"></circle><circle cx="1702.1" cy="1069.8" r="54.4" fill="#31323d" transform="rotate(-88.7 1703.08 1069.62)"></circle><circle cx="1745.3" cy="1065.3" r="18.5" fill="#fff" transform="rotate(-88.7 1746.33 1065.08)"></circle><path fill="#d1dadf" d="M1818.9 1062.7a129.8 129.8 0 0 0-234.8-29.5 522.5 522.5 0 0 1 234.8 29.5z"></path><path fill="none" stroke="#31323d" stroke-width="10" stroke-miterlimit="10" d="M1818.9 1062.7a129.8 129.8 0 0 0-234.8-29.5 522.5 522.5 0 0 1 234.8 29.5z" stroke-linecap="round"></path></g><g id="item_e"></g><g id="mouth"><path d="M1312.1,1453.9c-10.4-1.1-43.9,35.2-29.5,66.8,2.3,5,7.2,5.9,10.9,2,11-11.4,21.7-12.8,21.7-12.8-8.1.4-32.4,53.6,22.4,96.8a6.7,6.7,0,0,0,10.6-3.5,80.1,80.1,0,0,1,6.7-15.9,1.6,1.6,0,0,1,2.9,1c-2.7,16.4-2.5,50.4,38.9,69.2,26.7,12.1,24,45,18.8,66.6a6.7,6.7,0,0,0,10.7,6.8c40.3-32.3,136.4-117,107.4-170.5,0,0,26.6,16.3,36,42.1a7.8,7.8,0,0,0,14.2,1.1c16.2-30.4,41.1-92.5,7.3-140.6" fill="#595959" opacity=".2" style="mix-blend-mode:multiply"></path><path d="M1310.1,1442.9s-18.7,17.7-10.7,47.6c13.5-24.7,42-27.5,42-27.5s-43.9,66.7.9,112c-4.2-25.7,28-44.8,28-44.8s-13.4,65.6,42.5,91c41.1,18.7,15.9,74.2,15.9,74.2s148.4-101.7,112-168.9c0,0,45.7,11.7,44.3,48.5,0,0,59.7-79.8,13.1-146" fill="#d1dadf"></path><path d="M1446.1,1237.7l0.5,2.8c0.3,1.8.8,4.5,1.4,7.9s1.4,7.3,2.4,12,2.2,9.8,3.7,15.4c0.8,2.8,1.5,5.7,2.4,8.7l1.3,4.6,1.5,4.7c1,3.2,2.2,6.4,3.3,9.6s2.5,6.6,4,9.9a177.2,177.2,0,0,0,9.9,19.8,125.6,125.6,0,0,0,13.1,18.5,89.5,89.5,0,0,0,16.6,15.1,80,80,0,0,0,9.4,5.6,72,72,0,0,0,30.1,7.4,78.7,78.7,0,0,0,9.6-.3,85.7,85.7,0,0,0,8.9-1.2,103.1,103.1,0,0,0,15.3-4.1,112.2,112.2,0,0,0,11.3-4.7c3.1-1.5,5.4-2.8,7-3.7l1.8-1.1,0.6-.4h0.1a1.5,1.5,0,0,1,1.7,2.5l-0.6.4-1.8,1.2c-1.6,1-3.9,2.5-7,4.1a116,116,0,0,1-11.5,5.4,107.6,107.6,0,0,1-15.7,5,90.8,90.8,0,0,1-9.3,1.7,84.3,84.3,0,0,1-10.2.8,81.8,81.8,0,0,1-10.8-.5,76.7,76.7,0,0,1-22.3-6,87.6,87.6,0,0,1-10.7-5.7,98,98,0,0,1-18.9-15.7,135.2,135.2,0,0,1-15-19.2,187.8,187.8,0,0,1-11.5-20.5c-1.7-3.4-3.2-6.8-4.6-10.2s-2.8-6.7-4-9.9l-1.8-4.8-1.6-4.7c-1.1-3.1-2-6.1-2.9-8.9-1.8-5.8-3.3-11.1-4.6-15.8s-2.2-8.9-3.1-12.3-1.4-6-1.8-7.8l-0.6-2.8a7.5,7.5,0,1,1,14.6-3.3v0.4Z" fill="#31323d"></path><path d="M1305.1,1366.2l2.3,1.2c1.6,0.8,3.9,1.9,6.9,3a100.5,100.5,0,0,0,11.1,3.7,89.6,89.6,0,0,0,14.9,2.7,82.2,82.2,0,0,0,8.6.3,72,72,0,0,0,9.1-.8,61,61,0,0,0,18.4-5.9,64.9,64.9,0,0,0,8.7-5.4,73.1,73.1,0,0,0,7.9-6.9,90.1,90.1,0,0,0,13-17.1,133.4,133.4,0,0,0,9.4-19.6,184.3,184.3,0,0,0,6.5-20.2c1.7-6.7,3.2-13.2,4.3-19.5s2-12.2,2.7-17.8c0.3-2.8.6-5.4,0.9-8s0.5-4.9.7-7.2,0.4-4.4.5-6.3l0.4-5.4,0.5-10.2h0a7.5,7.5,0,1,1,15,.8v0.4l-1.1,10.5-0.7,5.5c-0.2,2-.5,4.2-0.8,6.5s-0.6,4.8-1.1,7.4-0.8,5.3-1.3,8.2c-1,5.7-2.2,11.8-3.7,18.3s-3.3,13.2-5.5,20.2a194.9,194.9,0,0,1-7.9,21,142.9,142.9,0,0,1-11.1,20.5,98.5,98.5,0,0,1-15.2,18,80.7,80.7,0,0,1-9.1,7.2,71.9,71.9,0,0,1-9.9,5.5,67.3,67.3,0,0,1-20.6,5.5,77.5,77.5,0,0,1-9.8.4,87.4,87.4,0,0,1-9.1-.8,94.1,94.1,0,0,1-15.4-3.6,104.4,104.4,0,0,1-11.3-4.4c-3.1-1.4-5.4-2.6-7-3.5l-2.4-1.4h0A1.5,1.5,0,0,1,1305.1,1366.2Z" fill="#31323d"></path><path d="M1373.2,1205.4a15,15,0,0,1,3.6-15.9c9-8.8,28.2-21.6,63.8-21.8s52.5,12.2,60.5,21a14.9,14.9,0,0,1,2.5,16.1h0a20.8,20.8,0,0,1-18.3,12.3c-10,.3-23.9,3.3-32.7,15.8a13.2,13.2,0,0,1-1.9,2.2l-0.3.3a17.7,17.7,0,0,1-25.3-1.5h0s-7.3-12.5-34.1-14.6a20.7,20.7,0,0,1-17.7-13.5v-0.3Z" fill="#31323d"></path><path d="M1512.3,1286.7l4-.8,11.4-2.1c9.9-1.7,24-3.8,41-5.4a545.1,545.1,0,0,1,58.3-2.4c10.7,0.1,21.7.6,32.9,1.5s22.5,2.3,33.7,4.2,22.4,4.2,33.2,7.1a301.2,301.2,0,0,1,31.3,10.2,260,260,0,0,1,27.9,12.9,220.6,220.6,0,0,1,23.4,14.5,202.8,202.8,0,0,1,18.1,14.5l3.7,3.4,3.3,3.2,3,3,2.7,2.9c1.7,1.8,3.1,3.5,4.4,4.9l3.1,3.7,2.6,3.2-2.7-3.1-3.2-3.6c-1.3-1.4-2.8-3.1-4.5-4.8l-2.7-2.8-3.1-3-3.4-3.1-3.8-3.3a201.5,201.5,0,0,0-18.4-13.9,218.6,218.6,0,0,0-23.5-13.8,257.3,257.3,0,0,0-27.9-12,297.5,297.5,0,0,0-31.2-9.2c-10.8-2.6-21.8-4.6-33-6.1s-22.3-2.6-33.4-3.2-21.9-.8-32.5-0.6a537.5,537.5,0,0,0-57.4,4c-16.7,2-30.5,4.5-40.1,6.4l-11.1,2.4-3.9.9h0a5,5,0,1,1-2.3-9.7h0.1Z" fill="#31323D"></path><path d="M1685.2,1237.4l-6.6.3-7.6.4-9.9.7-11.7,1-13,1.5c-4.5.6-9.1,1.2-13.8,2l-7.1,1.1-7.1,1.3-7.1,1.4-7,1.4-6.9,1.5-6.7,1.6-6.4,1.6-6.1,1.6-11.2,3.1-9.4,2.8-7.2,2.3-6.2,2.1h-0.1a5,5,0,1,1-3.2-9.5h0.3l6.5-1.7,7.5-1.9,9.7-2.3,11.6-2.5,6.3-1.2,6.6-1.2,6.9-1.2,7-1.1,7.2-1,7.2-.9,7.2-.8,7.2-.7c4.8-.5,9.5-0.7,14-1.1l13.1-.6,11.7-.3h17.6Z" fill="#31323D"></path><path d="M1526.2,1309.8l7.7-1.2,4.3-.4,5.1-.4c3.6,0,7.7-.2,12.1.3l3.4,0.2,3.5,0.5,3.6,0.5,3.7,0.7,3.8,0.7,3.8,0.9,3.9,1,3.9,1.2,3.9,1.3,3.9,1.5,3.9,1.6,3.9,1.7,2,0.9,1.9,1,3.9,1.9,7.6,4.2c4.9,3,9.8,6,14.4,9.3s9,6.7,13.1,10.1,8,6.9,11.6,10.2,6.8,6.7,9.8,9.7,5.6,6,7.8,8.6,4.2,4.9,5.8,6.9c3.1,3.9,4.8,6.2,4.8,6.2s-1.8-2.2-5.1-5.9c-1.7-1.8-3.7-4.1-6.1-6.5s-5.2-5.2-8.3-8.1-6.5-6-10.2-9.1-7.7-6.3-12-9.5-8.7-6.3-13.4-9.2-9.6-5.7-14.5-8.3l-7.6-3.6-3.8-1.7-1.9-.8-1.9-.7-3.8-1.4-3.8-1.3-3.8-1.2-3.8-1-3.7-1-3.7-.8-3.6-.7-3.6-.5-3.5-.4-3.4-.3-3.3-.3h-3.1c-4.1-.2-7.8.2-11.2,0.4l-4.5.6-3.8.5-7.6,1.6a5,5,0,0,1-2-9.8h0.3Z" fill="#31323D"></path><path d="M1373.6,1303.6l-15.5-3c-9.8-1.9-23.8-4.7-40.7-7.4-8.4-1.4-17.6-2.7-27.3-4s-20-2.3-30.6-3.2-21.6-1.4-32.8-1.6-22.6.1-33.9,0.8a334.9,334.9,0,0,0-33.7,3.9c-5.5.9-11,2-16.3,3.2s-10.6,2.6-15.7,4.2a200.5,200.5,0,0,0-52.8,24.1,165,165,0,0,0-18.6,14.1c-1.3,1.1-2.5,2.3-3.7,3.4l-3.4,3.2-3.1,3.1-2.7,2.9c-1.7,1.8-3.1,3.5-4.4,5l-1.7,2.1-1.4,1.8-2.5,3.2,2.5-3.3,1.3-1.8,1.7-2.1c1.2-1.5,2.6-3.3,4.3-5.1l2.6-3,3-3.2,3.3-3.4c1.2-1.1,2.3-2.4,3.7-3.5a166.3,166.3,0,0,1,18.3-14.7,202.9,202.9,0,0,1,52.8-25.9c5.1-1.7,10.4-3.2,15.8-4.6s10.9-2.7,16.4-3.7a339.4,339.4,0,0,1,34-4.9c11.5-1.1,23-1.6,34.3-1.8s22.5,0.1,33.3.7,21.2,1.4,31,2.4,19.1,2.1,27.7,3.3c17.1,2.3,31.2,4.7,41.1,6.4l15.5,2.6h0a5,5,0,1,1-1.7,9.9h-0.1Z" fill="#31323D"></path><path d="M1194.3,1252.9l6.9-.6,7.9-.6,10.3-.6,12.2-.4h28.2l7.5,0.3,7.6,0.5,7.6,0.6,7.5,0.6,7.4,0.7,7.2,0.8,3.5,0.4,3.4,0.5,6.6,0.9,12.1,2,10.2,1.9,7.8,1.6,6.8,1.5a5,5,0,1,1-2.1,9.8h-0.4l-6.6-1.9-7.6-2-9.9-2.5-11.8-2.7-6.5-1.3-3.3-.7-3.4-.6-7-1.3-7.2-1.2-7.4-1.1-7.4-1-7.4-.9-7.4-.8-3.7-.4-3.6-.3-7.1-.6-13.5-.8-12.2-.4h-25.1Z" fill="#31323D"></path><path d="M1360.9,1327.4l-7.6-1.9-3.8-.6-2.1-.3-1.1-.2H1345l-5.3-.4h-9l-3.3.3c-2.2.1-4.5,0.6-6.8,0.9s-4.7,1-7.1,1.5l-1.8.4-1.8.5-3.7,1.1-3.7,1.3-3.8,1.4-7.5,3.2a163,163,0,0,0-14.8,7.9l-3.6,2.2-3.5,2.3c-2.4,1.5-4.6,3.2-6.9,4.8l-6.6,5c-2.1,1.7-4.3,3.4-6.3,5.1l-3,2.6-2.9,2.6-5.5,5.1-5.1,5-4.7,4.8c-3,3.1-5.6,6-7.9,8.6l-5.8,6.9c-3.2,3.9-4.9,6.2-4.9,6.2s1.6-2.4,4.5-6.4c1.5-2,3.3-4.5,5.5-7.2s4.6-5.8,7.4-9.1l4.4-5.1,4.9-5.3,5.3-5.4,2.8-2.8,2.9-2.8c1.9-1.9,4-3.7,6.1-5.5l6.4-5.4c2.2-1.7,4.4-3.6,6.8-5.3l3.5-2.6,3.6-2.5a168.5,168.5,0,0,1,14.8-9l7.7-3.8,3.9-1.7,3.9-1.6,3.9-1.4,1.9-.7,1.9-.6c2.6-.7,5-1.6,7.5-2s4.9-1.2,7.3-1.4l3.5-.5,1.7-.2h1.7l6.4-.4h8.5l2.5,0.3,4.5,0.5,7.7,1.4a5,5,0,0,1-1.8,9.8h-0.3Z" fill="#31323D"></path><path d="M1311.5,1444.3l-1.8,2.3-1.7,2.5-1.5,2.6c-0.4.9-.9,1.8-1.3,2.7s-0.8,1.8-1.1,2.8-0.7,1.9-.9,2.8l-0.7,2.9-0.5,2.9a26.6,26.6,0,0,0-.3,2.9,23.6,23.6,0,0,0-.2,2.9v2.9c0,1,.2,2,0.3,2.9a20.9,20.9,0,0,0,.4,2.9l0.5,2.9v0.7l0.2,0.7,0.4,1.4,0.8,2.8-9.2-1.1h0l1.9-3.1,0.9-1.5,1.1-1.4,2.2-2.8,2.4-2.6,1.2-1.3,1.3-1.2,2.7-2.4,2.8-2.1c0.9-.7,2-1.3,2.9-2l1.5-1,1.5-.9,3.1-1.6,3.2-1.5,3.3-1.3,3.3-1.1,3.4-.9,3.4-.8,1.8-.3h1.9a5,5,0,0,1,4.7,7.7h0l-1.8,3-1.8,3.2q-1.7,3.2-3.3,6.5l-1.5,3.3-1.4,3.4-1.3,3.4-1.2,3.4-1.1,3.5-1,3.5c-0.6,2.3-1.2,4.7-1.7,7s-0.5,2.4-.7,3.5-0.4,2.4-.6,3.6-0.5,4.8-.7,7.1v3.6c0,1.2,0,2.4,0,3.6s0.1,2.4.2,3.5,0.1,2.4.3,3.5,0.3,2.3.5,3.5l0.7,3.4c0.2,1.2.6,2.3,0.9,3.4l0.5,1.7,0.6,1.6c0.4,1.1.7,2.2,1.2,3.3l1.4,3.2c0.5,1.1,1.1,2,1.7,3.1l0.8,1.5,1,1.5,1.9,2.9,2.2,2.8,1.1,1.4,1.2,1.3,2.4,2.6-8.5,4.3a37.5,37.5,0,0,1-.4-4.1,35.9,35.9,0,0,1,.1-4.1,37.9,37.9,0,0,1,.6-4,38.7,38.7,0,0,1,1-3.9c0.4-1.3.9-2.5,1.4-3.7l0.8-1.8,0.9-1.7,0.9-1.7,1-1.6,2.2-3.2,2.3-3,2.5-2.8,2.6-2.7,2.7-2.5q2.7-2.5,5.7-4.7l3-2.2,1.5-1,1.7-1.1a5,5,0,0,1,7.5,5.2h0l-0.2,1.3-0.2,1.4c-0.1.9-.2,1.9-0.3,2.8s-0.3,3.8-.4,5.7a104.1,104.1,0,0,0,.1,11.5,100.5,100.5,0,0,0,1.4,11.4,89.9,89.9,0,0,0,2.8,11,77.9,77.9,0,0,0,4.4,10.4c0.9,1.6,1.8,3.3,2.8,4.9s1,1.6,1.5,2.3l1.6,2.3c0.5,0.8,1.2,1.5,1.8,2.2s1.2,1.5,1.8,2.1,2.5,2.7,4,3.9l2.1,1.9,2.2,1.7c1.4,1.2,3,2.2,4.6,3.3l2.4,1.5,2.4,1.4,5.3,2.6a54.2,54.2,0,0,1,5.6,3.1l1.5,0.9,1.4,1c0.9,0.7,1.8,1.3,2.7,2.1a39.8,39.8,0,0,1,8.7,10.6,45.5,45.5,0,0,1,4.8,12.6,59.8,59.8,0,0,1,1.4,13.1,81.2,81.2,0,0,1-1,12.8,105.4,105.4,0,0,1-2.8,12.4c-0.6,2-1.2,4-1.9,6l-1.1,3-1.3,3.1-7.4-6.2c3.6-2.5,7.2-5.2,10.8-7.8l10.6-8.2q10.5-8.3,20.6-17.2a395.3,395.3,0,0,0,38-37.6,235.1,235.1,0,0,0,16.3-20.9q3.7-5.4,7-11.1a114,114,0,0,0,5.8-11.6c3.4-7.9,5.8-16.2,6.3-24.4a46,46,0,0,0-.9-12.2,42.3,42.3,0,0,0-4.2-11.3h0a5,5,0,0,1,5.7-7.2l2.4,0.7,2.2,0.7,4.4,1.7,4.3,1.9,4.2,2.1,4.1,2.4,4,2.6,1.9,1.4,1.9,1.5,3.6,3.2c1.2,1.1,2.3,2.3,3.4,3.5l0.8,0.9,0.8,1,1.5,1.9,1.4,2,1.3,2.1c0.4,0.7.8,1.5,1.2,2.2a23.6,23.6,0,0,1,1.1,2.3l1,2.3,0.8,2.4c0.3,0.8.4,1.6,0.6,2.4a22.4,22.4,0,0,1,.5,2.5l0.4,2.5,0.2,2.5v5h0l-9-3.2,2.7-3.7,2.6-3.9c1.7-2.7,3.4-5.4,4.9-8.1s3.1-5.6,4.5-8.4,2.8-5.7,4.1-8.6l1.9-4.4,1.8-4.4,1.6-4.5,1.5-4.5c0.5-1.5.9-3,1.3-4.6s0.8-3.1,1.2-4.6,0.8-3.1,1-4.6,0.7-3.1.9-4.7l0.7-4.7,0.5-4.7c0.2-1.6.2-3.2,0.3-4.7v-2.4c0-.8,0-1.6,0-2.4s0-3.2-.1-4.7l-0.3-4.7c-0.1-1.6-.4-3.1-0.6-4.7s-0.2-1.6-.3-2.4l-0.5-2.3-0.5-2.3a23.6,23.6,0,0,0-.5-2.3l-1.2-4.6c-0.4-1.5-1-3-1.5-4.5l-0.8-2.2c-0.3-.7-0.6-1.5-0.9-2.2l-1.9-4.4-2.2-4.2-1.1-2.1-1.3-2-2.5-4.1h-0.1a2,2,0,0,1,3.3-2.2l2.8,4.1,1.4,2.1,1.3,2.2,2.5,4.3,2.2,4.5,1.1,2.3,0.9,2.3c0.6,1.6,1.3,3.1,1.8,4.7l1.5,4.8c0.3,0.8.5,1.6,0.6,2.4l0.6,2.4,0.6,2.4,0.4,2.5c0.3,1.7.6,3.3,0.8,5l0.5,5c0.2,1.7.2,3.3,0.3,5s0.1,1.7.1,2.5v2.5c0,1.7,0,3.4-.1,5l-0.3,5-0.6,5c-0.2,1.7-.5,3.3-0.7,5s-0.6,3.3-.9,4.9-0.6,3.3-1.1,4.9-0.8,3.3-1.2,4.9l-1.4,4.8-1.5,4.8-1.7,4.7c-0.6,1.6-1.2,3.1-1.8,4.7q-1.9,4.6-3.9,9.2t-4.4,9c-1.6,2.9-3.2,5.9-4.9,8.8l-2.6,4.3c-0.9,1.4-1.8,2.8-2.9,4.3a5,5,0,0,1-9-2.7v-0.5h0v-3.9l-0.2-1.9-0.3-1.9a15.2,15.2,0,0,0-.4-1.9c-0.2-.6-0.3-1.3-0.5-1.9l-0.6-1.8-0.7-1.8a16.1,16.1,0,0,0-.8-1.7c-0.3-.6-0.6-1.2-0.9-1.7l-1-1.7-1.1-1.6-1.2-1.6-0.6-.8-0.7-.7c-0.9-1-1.8-1.9-2.8-2.9l-3.1-2.7-1.6-1.3-1.7-1.2-3.4-2.3-3.6-2.1-3.7-1.9-3.8-1.7-3.9-1.5-2-.7-1.9-.5,5.6-7.2a52.3,52.3,0,0,1,5.2,14,56,56,0,0,1,1.1,14.8c-0.6,9.8-3.4,19.2-7.1,27.8a123.8,123.8,0,0,1-6.3,12.6q-3.5,6.1-7.4,11.8a245,245,0,0,1-17,21.8,405.1,405.1,0,0,1-38.9,38.6q-10.3,9-21,17.5l-10.8,8.3c-3.7,2.7-7.3,5.4-11.1,8.1a5,5,0,0,1-7.4-6.1h0l1-2.5,1-2.7c0.6-1.8,1.2-3.6,1.7-5.5a95.4,95.4,0,0,0,2.5-11.2,59.4,59.4,0,0,0-.2-22.1,35.5,35.5,0,0,0-3.7-9.8,29.8,29.8,0,0,0-6.6-8c-0.6-.6-1.4-1.1-2.1-1.6l-1-.8-1.1-.7-1.1-.7-0.6-.3-0.7-.3-2.7-1.4-2.7-1.3-2.9-1.4-2.8-1.6-2.7-1.7c-1.8-1.2-3.6-2.3-5.3-3.7l-2.5-2-2.4-2.2c-1.6-1.4-3.1-3-4.6-4.6s-1.4-1.6-2.1-2.5-1.4-1.6-2-2.5l-1.9-2.6c-0.6-.9-1.2-1.8-1.8-2.7s-2.2-3.7-3.2-5.6a87.9,87.9,0,0,1-5-11.8,99.9,99.9,0,0,1-3.2-12.3,110.4,110.4,0,0,1-1.5-12.6,114.1,114.1,0,0,1-.1-12.6c0.1-2.1.3-4.2,0.5-6.3s0.2-2.1.4-3.2l0.2-1.6,0.3-1.7,7.5,5.3-1.3.8-1.3.9-2.6,1.9c-1.7,1.3-3.4,2.7-5.1,4.2l-2.4,2.2-2.3,2.3-2.1,2.4-1.9,2.5-1.8,2.6-0.8,1.3-0.7,1.4-0.7,1.4-0.6,1.4c-0.4.9-.7,1.9-1,2.8a28.7,28.7,0,0,0-.7,2.9,27.8,27.8,0,0,0-.4,2.9,26,26,0,0,0,0,2.9,27.7,27.7,0,0,0,.3,2.9v0.5a4.9,4.9,0,0,1-8.5,3.8l-2.7-3-1.4-1.5-1.3-1.6-2.5-3.2-2.2-3.4-1.1-1.7-1-1.8c-0.6-1.2-1.4-2.4-1.9-3.6l-1.7-3.7c-0.6-1.2-1-2.5-1.4-3.8l-0.7-1.9-0.6-2c-0.3-1.3-.8-2.6-1-3.9l-0.8-4c-0.2-1.3-.4-2.7-0.6-4s-0.3-2.7-.4-4-0.2-2.7-.2-4-0.1-2.7,0-4v-4c0.2-2.6.4-5.3,0.8-7.9s0.4-2.6.6-3.9,0.5-2.6.8-3.9,1.2-5.1,1.9-7.7l1.1-3.8,1.2-3.7,1.3-3.7,1.4-3.6,1.5-3.6,1.6-3.6q1.7-3.5,3.5-7l1.9-3.4,2.1-3.5,4.7,7.7h-1.3l-1.4.3-2.9.7-2.9.8-2.8,1-2.8,1.1-2.7,1.2-2.6,1.4-1.3.7-1.2.8c-0.8.6-1.7,1-2.5,1.6l-2.4,1.8-2.2,1.9-1.1,1-1,1.1-2,2.2-1.8,2.3-0.9,1.2-0.8,1.2-1.5,2.5h0l-0.6.9a4.8,4.8,0,0,1-8.6-2l-0.6-3.4-0.3-1.7v-1.7l-0.2-3.4a27,27,0,0,1,0-3.4c0-1.1,0-2.3.1-3.4l0.4-3.4a29.6,29.6,0,0,1,.6-3.4,32.6,32.6,0,0,1,.8-3.3l1-3.3,1.2-3.2c0.4-1,.9-2.1,1.4-3.1s1.1-2,1.6-3,1.2-1.9,1.8-2.9l2-2.7,2.2-2.6,2.4-2.4a2,2,0,0,1,2.9,2.8h-0.1Z" fill="#31323d"></path></g><g id="warrior_defensive_01"><defs><linearGradient id="defense__a" x1="948.03" x2="1164.9" y1="1811.72" y2="1811.72" gradientUnits="userSpaceOnUse"><stop offset=".46" stop-color="#231f20" stop-opacity=".3"></stop><stop offset=".48" stop-color="#211d1e" stop-opacity=".28"></stop><stop offset="1" stop-opacity="0"></stop></linearGradient><linearGradient id="defense__k" x1="973.77" x2="1149.77" y1="2075.57" y2="1897.57" xlink:href="#defense__a"></linearGradient><linearGradient id="defense__l" x1="1108.59" x2="1269.74" y1="1939.53" y2="1939.53" xlink:href="#defense__a"></linearGradient><linearGradient id="defense__m" x1="1021.9" x2="1234.54" y1="2096.96" y2="2096.96" xlink:href="#defense__a"></linearGradient><linearGradient id="defense__n" x1="1049.37" x2="1207.44" y1="2248.59" y2="2248.59" xlink:href="#defense__a"></linearGradient><linearGradient id="defense__o" x1="1091.3" x2="1191.39" y1="2302.24" y2="2302.24" xlink:href="#defense__a"></linearGradient><linearGradient id="defense__p" x1="1026.03" x2="1120.77" y1="2300.36" y2="2300.36" xlink:href="#defense__a"></linearGradient><linearGradient id="defense__q" x1="973.56" x2="1059.75" y1="2292.52" y2="2292.52" xlink:href="#defense__a"></linearGradient><linearGradient id="defense__b" x1="1705" x2="887.07" y1="1579.1" y2="2116.6" gradientUnits="userSpaceOnUse"><stop offset="0" stop-color="#8b5e3c"></stop><stop offset=".74" stop-color="#78514e"></stop></linearGradient><linearGradient id="defense__r" x1="2511.69" x2="529.95" y1="1248.22" y2="2550.51" xlink:href="#defense__b"></linearGradient><linearGradient id="defense__c" x1="1042.94" x2="973" y1="1844.1" y2="1818.12" gradientUnits="userSpaceOnUse"><stop offset="0" stop-opacity="0"></stop><stop offset="1" stop-color="#231f20"></stop></linearGradient><linearGradient id="defense__s" x1="1048.24" x2="936.31" y1="1895.04" y2="1990.18" xlink:href="#defense__c"></linearGradient><linearGradient id="defense__t" x1="1094.79" x2="1173.29" y1="1884.5" y2="1891.65" xlink:href="#defense__c"></linearGradient><linearGradient id="defense__u" x1="922.13" x2="1304.8" y1="2152.15" y2="2063.6" xlink:href="#defense__c"></linearGradient><linearGradient id="defense__v" x1="1030.2" x2="1104.74" y1="2182.55" y2="2231.69" xlink:href="#defense__c"></linearGradient><linearGradient id="defense__w" x1="1076.01" x2="1217.6" y1="2168.84" y2="2168.84" xlink:href="#defense__c"></linearGradient><linearGradient id="defense__x" x1="1041.08" x2="1210.86" y1="2199.59" y2="2257.93" xlink:href="#defense__c"></linearGradient><linearGradient id="defense__y" x1="966.12" x2="1158.55" y1="2296.54" y2="2356.99" xlink:href="#defense__c"></linearGradient><linearGradient id="defense__z" x1="1877.75" x2="1459.66" y1="1973.27" y2="1817.75" xlink:href="#defense__c"></linearGradient><linearGradient id="defense__A" x1="1358.44" x2="1259.13" y1="1925.91" y2="2064.84" xlink:href="#defense__c"></linearGradient><linearGradient id="defense__B" x1="1778.56" x2="1983.35" y1="1956.84" y2="1646.7" xlink:href="#defense__c"></linearGradient><linearGradient id="defense__C" x1="1785.13" x2="1862.52" y1="2289.99" y2="2289.99" xlink:href="#defense__c"></linearGradient><linearGradient id="defense__D" x1="1867.39" x2="1575.39" y1="2075.97" y2="2465.97" xlink:href="#defense__c"></linearGradient><linearGradient id="defense__E" x1="900.85" x2="1024.65" y1="2063.11" y2="2063.11" xlink:href="#defense__c"></linearGradient><linearGradient id="defense__F" x1="1124.29" x2="955.85" y1="1763.34" y2="1886.53" xlink:href="#defense__c"></linearGradient><linearGradient id="defense__G" x1="1101.44" x2="987.98" y1="1870.22" y2="2017.77" xlink:href="#defense__c"></linearGradient><linearGradient id="defense__H" x1="1249.22" x2="801.44" y1="1897.8" y2="2148.18" xlink:href="#defense__c"></linearGradient><linearGradient id="defense__I" x1="1301.79" x2="899.1" y1="1878.88" y2="2104.05" xlink:href="#defense__c"></linearGradient><linearGradient id="defense__J" x1="1093.99" x2="1171.21" y1="2296.73" y2="2320.99" xlink:href="#defense__c"></linearGradient><linearGradient id="defense__K" x1="1875.8" x2="1913.85" y1="1898.84" y2="1841.21" xlink:href="#defense__c"></linearGradient><linearGradient id="defense__L" x1="1533.69" x2="1374.8" y1="1921.07" y2="2188.53" gradientUnits="userSpaceOnUse"><stop offset="0" stop-opacity="0"></stop><stop offset=".37" stop-color="#0d0b0c" stop-opacity=".37"></stop><stop offset="1" stop-color="#231f20"></stop></linearGradient><linearGradient id="defense__M" x1="1481.68" x2="1422.56" y1="1749.56" y2="2030.39" xlink:href="#defense__c"></linearGradient><linearGradient id="defense__N" x1="1404.17" x2="1296.18" y1="1840.81" y2="2038.05" xlink:href="#defense__c"></linearGradient><linearGradient id="defense__O" x1="1412.53" x2="1345.7" y1="1935.71" y2="2068.57" xlink:href="#defense__c"></linearGradient><linearGradient id="defense__d" x1="1136.75" x2="1064.37" y1="1742.4" y2="1793.42" gradientUnits="userSpaceOnUse"><stop offset="0" stop-color="#fff" stop-opacity=".8"></stop><stop offset=".15" stop-color="#fff" stop-opacity=".79"></stop><stop offset=".29" stop-color="#fff" stop-opacity=".74"></stop><stop offset=".43" stop-color="#fff" stop-opacity=".67"></stop><stop offset=".56" stop-color="#fff" stop-opacity=".56"></stop><stop offset=".7" stop-color="#fff" stop-opacity=".43"></stop><stop offset=".83" stop-color="#fff" stop-opacity=".27"></stop><stop offset=".95" stop-color="#fff" stop-opacity=".08"></stop><stop offset="1" stop-color="#fff" stop-opacity="0"></stop></linearGradient><linearGradient id="defense__P" x1="1106.44" x2="986.37" y1="1875.34" y2="1797.89" xlink:href="#defense__d"></linearGradient><linearGradient id="defense__Q" x1="1187.72" x2="1113.99" y1="1769.24" y2="1821.22" xlink:href="#defense__d"></linearGradient><linearGradient id="defense__R" x1="1158.86" x2="928.39" y1="1906.58" y2="1882.88" gradientUnits="userSpaceOnUse"><stop offset="0" stop-color="#fff" stop-opacity=".8"></stop><stop offset=".61" stop-color="#fff" stop-opacity=".3"></stop><stop offset="1" stop-color="#fff" stop-opacity="0"></stop></linearGradient><linearGradient id="defense__S" x1="1155.86" x2="925.4" y1="1935.69" y2="1911.99" xlink:href="#defense__d"></linearGradient><linearGradient id="defense__T" x1="1059.95" x2="1005.16" y1="1936.99" y2="1975.61" xlink:href="#defense__d"></linearGradient><linearGradient id="defense__e" x1="1311.84" x2="1106.08" y1="1861.92" y2="1963.01" gradientUnits="userSpaceOnUse"><stop offset=".34" stop-color="#fff" stop-opacity=".8"></stop><stop offset=".41" stop-color="#fff" stop-opacity=".76"></stop><stop offset=".52" stop-color="#fff" stop-opacity=".66"></stop><stop offset=".66" stop-color="#fff" stop-opacity=".49"></stop><stop offset=".83" stop-color="#fff" stop-opacity=".27"></stop><stop offset="1" stop-color="#fff" stop-opacity="0"></stop></linearGradient><linearGradient id="defense__U" x1="1282.31" x2="1090.56" y1="2039.81" y2="2134.02" xlink:href="#defense__e"></linearGradient><linearGradient id="defense__V" x1="938.38" x2="1112.55" y1="2131.32" y2="2148.38" xlink:href="#defense__d"></linearGradient><linearGradient id="defense__g" x1="1080.86" x2="1032.84" y1="2047.69" y2="2053.89" gradientUnits="userSpaceOnUse"><stop offset=".14" stop-color="#fff" stop-opacity=".8"></stop><stop offset=".3" stop-color="#fff" stop-opacity=".79"></stop><stop offset=".42" stop-color="#fff" stop-opacity=".75"></stop><stop offset=".54" stop-color="#fff" stop-opacity=".68"></stop><stop offset=".64" stop-color="#fff" stop-opacity=".59"></stop><stop offset=".74" stop-color="#fff" stop-opacity=".48"></stop><stop offset=".83" stop-color="#fff" stop-opacity=".33"></stop><stop offset=".92" stop-color="#fff" stop-opacity=".16"></stop><stop offset="1" stop-color="#fff" stop-opacity="0"></stop></linearGradient><linearGradient id="defense__f" x1="1224.95" x2="1175.73" y1="2193.47" y2="2170.4" gradientUnits="userSpaceOnUse"><stop offset=".47" stop-color="#fff" stop-opacity=".8"></stop><stop offset=".5" stop-color="#fff" stop-opacity=".75"></stop><stop offset=".68" stop-color="#fff" stop-opacity=".43"></stop><stop offset=".83" stop-color="#fff" stop-opacity=".2"></stop><stop offset=".94" stop-color="#fff" stop-opacity=".05"></stop><stop offset="1" stop-color="#fff" stop-opacity="0"></stop></linearGradient><linearGradient id="defense__W" x1="1225.69" x2="1163.62" y1="2250.91" y2="2248.97" xlink:href="#defense__f"></linearGradient><linearGradient id="defense__X" x1="1214.81" x2="1122.35" y1="2313.89" y2="2343.63" xlink:href="#defense__f"></linearGradient><linearGradient id="defense__Y" x1="1073.09" x2="995.43" y1="2278.45" y2="2303.43" xlink:href="#defense__f"></linearGradient><linearGradient id="defense__Z" x1="1137.35" x2="1038.19" y1="2276.01" y2="2307.91" xlink:href="#defense__f"></linearGradient><linearGradient id="defense__aa" x1="1198.41" x2="1115.86" y1="2258.72" y2="2317.55" xlink:href="#defense__f"></linearGradient><linearGradient id="defense__ab" x1="974.5" x2="999.1" y1="1946.49" y2="1934.72" xlink:href="#defense__g"></linearGradient><linearGradient id="defense__ac" x1="1018.91" x2="984.29" y1="2109.48" y2="1938.94" xlink:href="#defense__g"></linearGradient><linearGradient id="defense__ad" x1="1076.45" x2="1042.85" y1="2201.52" y2="2115.48" xlink:href="#defense__g"></linearGradient><linearGradient id="defense__ae" x1="1073.72" x2="1061" y1="2226.48" y2="2178.63" gradientUnits="userSpaceOnUse"><stop offset=".14" stop-color="#fff" stop-opacity=".8"></stop><stop offset=".21" stop-color="#fff" stop-opacity=".73"></stop><stop offset=".76" stop-color="#fff" stop-opacity=".21"></stop><stop offset="1" stop-color="#fff" stop-opacity="0"></stop></linearGradient><linearGradient id="defense__h" x1="1051.41" x2="1059.04" y1="2266.59" y2="2229.43" gradientUnits="userSpaceOnUse"><stop offset=".14" stop-color="#fff" stop-opacity=".8"></stop><stop offset="1" stop-color="#fff" stop-opacity="0"></stop></linearGradient><linearGradient id="defense__af" x1="1947.12" x2="1884.31" y1="1446.05" y2="1869.37" gradientUnits="userSpaceOnUse"><stop offset=".22" stop-color="#fff" stop-opacity=".8"></stop><stop offset=".27" stop-color="#fff" stop-opacity=".7"></stop><stop offset=".39" stop-color="#fff" stop-opacity=".45"></stop><stop offset=".49" stop-color="#fff" stop-opacity=".26"></stop><stop offset=".59" stop-color="#fff" stop-opacity=".12"></stop><stop offset=".67" stop-color="#fff" stop-opacity=".03"></stop><stop offset=".72" stop-color="#fff" stop-opacity="0"></stop></linearGradient><linearGradient id="defense__i" x1="1846.22" x2="2024.41" y1="1596.73" y2="1882.25" gradientUnits="userSpaceOnUse"><stop offset=".03" stop-color="#fff" stop-opacity=".8"></stop><stop offset=".14" stop-color="#fff" stop-opacity=".78"></stop><stop offset=".28" stop-color="#fff" stop-opacity=".73"></stop><stop offset=".43" stop-color="#fff" stop-opacity=".64"></stop><stop offset=".58" stop-color="#fff" stop-opacity=".51"></stop><stop offset=".73" stop-color="#fff" stop-opacity=".35"></stop><stop offset=".89" stop-color="#fff" stop-opacity=".15"></stop><stop offset="1" stop-color="#fff" stop-opacity="0"></stop></linearGradient><linearGradient id="defense__ag" x1="971.5" x2="1021.95" y1="1860.79" y2="1836.66" xlink:href="#defense__g"></linearGradient><linearGradient id="defense__ah" x1="1260.4" x2="1092.17" y1="1974.45" y2="1954.82" xlink:href="#defense__d"></linearGradient><linearGradient id="defense__ai" x1="1070.69" x2="1015.82" y1="2299.54" y2="2317.19" xlink:href="#defense__h"></linearGradient><linearGradient id="defense__aj" x1="979.21" x2="1063.59" y1="2392.63" y2="2308.25" xlink:href="#defense__g"></linearGradient><linearGradient id="defense__ak" x1="1842.39" x2="1938.74" y1="1876.25" y2="1848.11" xlink:href="#defense__i"></linearGradient><linearGradient id="defense__al" x1="1911.52" x2="1904.8" y1="1847.68" y2="1867.84" xlink:href="#defense__i"></linearGradient><linearGradient id="defense__am" x1="1905.69" x2="1885.53" y1="1845.01" y2="1905.5" xlink:href="#defense__i"></linearGradient><linearGradient id="defense__an" x1="1909.36" x2="1896.7" y1="1845.69" y2="1883.68" xlink:href="#defense__i"></linearGradient><linearGradient id="defense__j" x1="1342.19" x2="1279.24" y1="1745.04" y2="2080.29" gradientUnits="userSpaceOnUse"><stop offset=".02" stop-color="#fff" stop-opacity=".6"></stop><stop offset=".38" stop-color="#fff" stop-opacity=".59"></stop><stop offset=".51" stop-color="#fff" stop-opacity=".57"></stop><stop offset=".6" stop-color="#fff" stop-opacity=".52"></stop><stop offset=".67" stop-color="#fff" stop-opacity=".45"></stop><stop offset=".74" stop-color="#fff" stop-opacity=".37"></stop><stop offset=".79" stop-color="#fff" stop-opacity=".26"></stop><stop offset=".84" stop-color="#fff" stop-opacity=".14"></stop><stop offset=".89" stop-color="#fff" stop-opacity="0"></stop></linearGradient><linearGradient id="defense__ao" x1="1645.62" x2="1569.12" y1="1542.63" y2="1950.05" xlink:href="#defense__j"></linearGradient><linearGradient id="defense__ap" x1="1492.23" x2="1420.78" y1="1656.75" y2="2037.33" xlink:href="#defense__j"></linearGradient><linearGradient id="defense__aq" x1="1368.48" x2="1381.11" y1="1866.92" y2="1962.29" xlink:href="#defense__j"></linearGradient><linearGradient id="defense__ar" x1="1390.73" x2="1327.56" y1="1876.44" y2="1915.97" xlink:href="#defense__j"></linearGradient><linearGradient id="defense__as" x1="1439.91" x2="1335.34" y1="1944.82" y2="2010.26" xlink:href="#defense__j"></linearGradient><linearGradient id="defense__at" x1="1409.46" x2="1514.6" y1="2065.41" y2="1993.16" xlink:href="#defense__j"></linearGradient><linearGradient id="defense__au" x1="908.97" x2="907.36" y1="2006.21" y2="2126.3" xlink:href="#defense__j"></linearGradient><linearGradient id="defense__av" x1="1935.58" x2="1766.41" y1="2034.9" y2="2154.15" xlink:href="#defense__i"></linearGradient><linearGradient id="defense__aw" x1="1990.02" x2="1766.45" y1="2168.51" y2="2326.1" xlink:href="#defense__i"></linearGradient></defs><g style="isolation:isolate"><path fill="none" d="M0 0H3000V3000H0z"></path><g><path fill="#d1d3d4" d="M1038.8,1688.2s30,15.2,43.3,30.2l45.1,12.4,44.4,50.8s71.4,7,98.1,82.1c0,0-35.4,51.7-47.8,115.9l-7.8,12.8s21.2,30.8,17.4,82.6-20.2,83.8-24.9,129.1l-10.1,97.2s-21,43.5-54,71.5c0,0-125.2,20.8-170.6-21,0,0-19.7-89.7,78.8-90.2l.2-39-6.2-10.1,1.1-47-17.4-21.7-3.4-54.6s-69.1-54.6-77.6-109.6l15-47.8s-11.2-20.7-.9-50.4c0,0-29.5-41.2-.4-87.1S1038.8,1688.2,1038.8,1688.2Z"></path><path fill="url(#defense__a)" d="M1038.8,1688.2s-96.6,97.5-90.5,145.2,29.9,83.3,60.6,101.6c0,0,21.4,8.7,75.7-71.3,0,0,32.2,24.3,52.1,17.3s32.7-47.4,26.7-58.2S1081.8,1698.6,1038.8,1688.2Z"></path><path fill="#cf5be8" d="M1027.4,1989.8s51.8-12.8,84.2-87.4l51.8,8.2s29.3-21.5,37.7-83.3c0,0-53.8-89.3-73.9-96.5,0,0-29.7-10.9-45.1-12.4,0,0,73.9,81.5,81.3,104.4s-11.1,53.7-22.1,56.7-56.7-15.8-56.7-15.8-48.4,73.3-75.7,71.3-47.4-53.6-47.4-53.6S935.4,1964.3,1027.4,1989.8Z"></path><path fill="url(#defense__k)" d="M1193.1,1862.4s-14.8,65.8,3.3,103.4c0,0-79.9,150.2-129.5,148.9,0,0-85.2-30.1-119.5-135.1,0,0,2.1-33.3,14.1-43.9,0,0,20.5,54.4,65.9,54.1s84.2-87.4,84.2-87.4l51.8,8.2S1187.5,1887.9,1193.1,1862.4Z"></path><path fill="url(#defense__l)" d="M1171.6,1781.6s78.1,15.9,98.1,82.1c0,0-35.4,31.7-47.8,115.9,0,0-62.8,104.4-113.3,117.8l6.8-12.8s62.9-74.2,81-118.8c0,0-19.1-39.2,0-126.2l4.7-12.3S1178.3,1785.9,1171.6,1781.6Z"></path><path fill="url(#defense__m)" d="M1096,2204.1s-56.5-34.5-67.6-60.3l-6.5-51.6,45,22.5s75.3-7.7,148.6-124.9c0,0,37.5,62.8,7.3,117.9S1096,2204.1,1096,2204.1Z"></path><path fill="#6d6e71" d="M1222.8,2107.7l-15.4,88.2s-65.1,55.1-119.2,46.2c0,0-36.9-15.8-43.5-29.6v-41.1l51.3,32.7S1186.6,2163.6,1222.8,2107.7Z"></path><path fill="url(#defense__n)" d="M1207.4,2195.9l-10.9,105.4s-18.9-35.2-42.5-32.4-30.3,5.3-30.3,5.3-18-14.6-33.9-12.5a131.6,131.6,0,0,0-30.1,7.9l-10.3-7.9v-39.1s27.5,22.5,38.8,19.5C1088.2,2242.1,1153.8,2243.7,1207.4,2195.9Z"></path><path fill="url(#defense__o)" d="M1191.4,2293.2s-40.7,46.1-73.1,40.5-32.4-25.5-17.2-40.5S1159.4,2250.1,1191.4,2293.2Z"></path><path fill="url(#defense__p)" d="M1091.3,2320.2s-28,22.5-46.6,15.6-28.6-35.5-4.2-51.8,56-31.9,80.3-8.4C1120.8,2275.6,1093.4,2281.2,1091.3,2320.2Z"></path><path fill="url(#defense__q)" d="M1021.9,2321.4s-51.3,6.9-48.2-7.8,34.3-72,86-44c0,0-29.8,11.1-30.1,31.7S1021.9,2321.4,1021.9,2321.4Z"></path><path fill="#e6e1e3" d="M1671.5,2118.4c-1.6,5.5-10.8,13.7,1.8,27.9s18.9,205.5,55.4,215.1,110.8,22.7,148.9,7.6,49.5-17.8,46.2-39.6-26.3-34-46.2-37.5-17.2-16.5-17.2-16.5,25.5-10.7,4.2-18.7l-9.7-8.1s15.1-1.4,16.2-9.2-10.1-33.1-3.2-59.7l19.4-56.8s-68.2,22.8-106.3,18.2S1671.5,2118.4,1671.5,2118.4Z"></path><path fill="#6d6e71" d="M1189.2,2295.6l7.3,5.7-52,72.8s-129.1,26.5-172.6-22.3c0,0-5.2-23.5-1.3-35.6,0,0,41.1,10.1,55.4,0,0,0,14.9,48.8,62.2-2.7,0,0,11.7,34.5,56.8,12.8S1189.2,2295.6,1189.2,2295.6Z"></path><path fill="url(#defense__b)" d="M953.3,2005.4,893,2021.5s-65.5,50.1,4.2,101.4l127.8-5.7v-28S981.9,2056.8,953.3,2005.4Z"></path><path fill="#cd6c42" d="M2103.2,1759s-59.7-23.7-80-71.9-63.7-138.1-113.7-120.6l-7.2,7.7s-165.2,131.6-195,137.8c0,0,31.2,172.2,164.7,201.1S2082.8,1886.4,2103.2,1759Z"></path><path fill="url(#defense__r)" d="M1574.7,1969.8c82.5-30.1,222.5-97.9,222.5-97.9-41.5-23.5-86.6-136.6-86.6-136.6l-128,61.4-176.4,75.2-169.3,59.9-19.3,61.9c14.4,12.3,14.9,86.2,14.9,86.2l38.3-9,20.3-6.8c7-1.7,10.5-3.1,19.9-6.2l29.2,5.9c7-2.8,21.1-5.7,27.3-10.1l24.9-16.1,172.2-63.9a45.6,45.6,0,0,0,6.5-2.6Z"></path><path fill="#cf5be8" d="M1897.8,2070.7s-63.5,24.4-116.8,22.3-102.6-13.1-110.2-16.9-2.2,20.7,2.1,35.6,70.8,31,116.1,31.6,91.4-15.3,103.2-31.6l11.1-34.6Z"></path><circle cx="1905.3" cy="1858.7" r="33.5" fill="#cf5be8"></circle><path fill="#cf5be8" d="M1510.6,1830.5s-104.8-51.2-167.5,54.3c0,0-10.6,33.1,19.7,44.9,0,0-30.3,29.7-3.6,62.7s44.2,24.4,44.2,24.4-5.7,54.6,56.4,47.3,102.7-50.8,111.3-93l-88.3,30.2s-33-54.4-40.2-60.7-15.4-68.7-15.4-68.7l17.6-13.2Z"></path><g><path style="mix-blend-mode:multiply" fill="url(#defense__c)" d="M1002.4,1735.4c12.6-24.8-63.1,107.4-1.7,175.2,0,0-2.5,1.8,9,18,0,0-61.4-12.2-58.7-117.1Z" opacity=".4"></path><path style="mix-blend-mode:multiply" fill="url(#defense__s)" d="M961.5,1891.7l47.3,43.6s-10.3,31,18.6,54.5C1027.4,1989.8,942.2,1966.2,961.5,1891.7Z" opacity=".4"></path><path style="mix-blend-mode:multiply" fill="url(#defense__t)" d="M1084.6,1863.7l27,38.7,51.8,8.2-22.1-31.1S1126.7,1889.6,1084.6,1863.7Z" opacity=".4"></path><path style="mix-blend-mode:multiply" fill="url(#defense__u)" d="M1201.1,2019l13-26.6s-68.1,110.8-148.7,122.3l-40.7-22.3-.8,15.3,4.1,3.3v31.3s28.9,52.1,68,61.8c0,0-21.8-33.2-28.6-68.6l1.3.3C1083.6,2139.2,1175.8,2102,1201.1,2019Z" opacity=".4"></path><path style="mix-blend-mode:multiply" fill="url(#defense__v)" d="M1047,2172.9l46.2,33.8s-6.7,24.7-5,35.4l-43.5-29.6-2.5-43.4Z" opacity=".4"></path><path style="mix-blend-mode:multiply" fill="url(#defense__w)" d="M1217.6,2120.9V2136s-37.6,43.7-121.6,80.8c0,0-7.4,1.2-16.4-11.2s1.8-9.7,1.8-9.7l12,8.2S1153.5,2183.5,1217.6,2120.9Z" opacity=".4"></path><path style="mix-blend-mode:multiply" fill="url(#defense__x)" d="M1101.6,2261.6c55.5-4.8,93.2-51.7,93.2-51.7l13.2-16.5c-56,50.3-119.7,48.7-119.7,48.7h-.1l-36.1-17.3-5.6,34.3,13.2,10.5,28.5-10.4,3.1-.6Z" opacity=".4"></path><path style="mix-blend-mode:multiply" fill="url(#defense__y)" d="M1028,2261.7s-49.3,41.4-2.2,58.6c0,0,7-46.9,43.6-52,3.5-.5-12.9,9.9-17,23.2-5.9,18.7,2.9,34.3,35.8,29.9,0,0,45.3,37.3,92.2-15.6,0,0-44.6,23.8-39.1,65.2,0,0-112.5,27-169.4-19.2C971.9,2351.8,960.9,2283.2,1028,2261.7Z" opacity=".4"></path><path style="mix-blend-mode:multiply" fill="url(#defense__z)" d="M1482.6,2003.3l14.6-4.8c3.7-1.3,116.7-47,120.3-48.5l181.3-73.7s-61.6-54.3-84.7-141l-17.9,9.1s11.1,54.5,38.9,123.4c-43,22.8-130.5,66.7-228.9,101.7h0l-35.4,12.5" opacity=".4"></path><path style="mix-blend-mode:multiply" fill="url(#defense__A)" d="M1309,2057l-38.2,13.9-39.3,9c4.2-51.3-17.4-87.5-17.4-87.5l7.8-12.8,12.8-47.1,2.8,2.5a36.6,36.6,0,0,1,4.4,10.8,54.5,54.5,0,0,1-2.9,33.6l-4.3,10.4c5.8,4.6,12.5,22.7,12.5,22.7,1.2,3.4,5.4,17.9,7.1,20.6l7.5-2.2.3-7.4a84.2,84.2,0,0,1,31.8-62.9h0l-16.9,34.7,2.6,30.3s19.1,32.5,60.4,10.2c20.1-10.9,10.6-20.4,10.6-20.4s-32.3-17.8-2.3-54.8l1.5-8.2-17.6-22.7,17.6-19.1,17.6,19.1s-27.2,23.1-8,52.7c0,0,7.3,31.2,44,34.4v12.8s-24.8,21-55.7,31C1331.2,2066,1322.4,2066.2,1309,2057Z" opacity=".4"></path><path style="mix-blend-mode:multiply" fill="url(#defense__B)" d="M1920.8,1899.1c10.1-7.2,10-20.6,10-20.6s-12.6,15-31.8,10.3-24.5-19.8-27.6-31.1l-2.6,7.5c-67.7,2-125.1-121.2-144.1-160.2l-16.4,10.4s60.5,222.6,242.3,208.2c147.3-11.6,148.4-144.5,148.4-144.5-59.8,124.7-120.5,122.1-178.1,120" opacity=".4"></path><path style="mix-blend-mode:multiply" fill="url(#defense__C)" d="M1854.9,2279.1s-25.1,7-38.2,5.3-31.6-5.3-31.6-5.3,17.2,22.5,34.9,21.7,42.5-15.6,42.5-15.6Z" opacity=".4"></path><path style="mix-blend-mode:multiply" fill="url(#defense__D)" d="M1842.2,2374.4s-70-18.4-94.7-39.9c-29.9-26.1-9.9-163.3-28-200.6-.8-1.6-3.5-5.6-2.2-4.7,39,25.4,33-28.3,32.6-34.9-.6-11.1-37.1-8.4-37.1-8.4l-45.2-8.8-2.4,9.4,6.3,31.9-6.3,17.7,12.6,16.6s19.7,139.8,22.4,151.7,5.5,59.5,52.3,64.6S1843,2382.8,1842.2,2374.4Z" opacity=".4"></path><path style="mix-blend-mode:multiply" fill="url(#defense__E)" d="M953.3,2005.4s34.6,69.2,71.4,87v24.9l-22.4,1.8-81.1,1.8s-52.5-68.1,11.2-111.5Z" opacity=".4"></path><path style="mix-blend-mode:multiply" fill="url(#defense__F)" d="M1028.8,1706.4s-12.4,122.7,6,142.5,26.9-1.9,34.9-7,16-6.2,29.3,8,31.6,28,57.5,4.2l-19.7,26.9s-29.3-.5-52.2-17.3c0,0-41.7,63.2-68.1,68.1l-7.7,3.5S961.5,1822.9,1028.8,1706.4Z" opacity=".4"></path><path style="mix-blend-mode:multiply" fill="url(#defense__G)" d="M1074.6,1880.4s-11.2,39.6-34.1,54.9a19.4,19.4,0,0,0-5.1,23c6.1,14.2,63.6-35.1,63.6-35.1s-28.3,59.5-67.8,65.3c0,0-31.3-13.2-22.4-53.2C1008.8,1935.3,1036.4,1940,1074.6,1880.4Z" opacity=".4"></path><path style="mix-blend-mode:multiply" fill="url(#defense__H)" d="M1067.7,2052.6c-8.2-5.7-16.2-29.8-20.3-43.6,35.2-14.3,70.8-65.6,73.6-80.4,0,0,19.9,8.1,26.7,6.4,9.6-2.5,20.5-18.5,28.1-37.4l-12.4,13-51.8-8.2s-38.1,82.1-84.2,87.4c0,0-45.9-9.2-64.2-50.3,0,0-23.6,21-14.9,45.2,38.9,107.7,117.1,130,117.1,130a35.5,35.5,0,0,1-4.5-5.3l9.5,4.4c54.7-18.2,83.4-78.5,83.4-78.5C1113.9,2073.1,1079.4,2060.8,1067.7,2052.6Zm-81.5-37.5c-2.4-4.3-10.7-21.5.2-13.6,0,0,7.6,5.9,38.3,10.8l1.3.2c.3,13.3,3.1,26.8,6.8,39.2C1003.8,2036.5,992.5,2026.5,986.2,2015.1Z" opacity=".4"></path><path style="mix-blend-mode:multiply" fill="url(#defense__I)" d="M1207.4,1828s-11,75.3.6,136.6c1,5-44.6,99.2-104.5,128.6,0,0,44.4-36.9,91.2-123.6C1194.7,1969.6,1177.3,1880.4,1207.4,1828Z" opacity=".4"></path><path style="mix-blend-mode:multiply" fill="url(#defense__J)" d="M1128.4,2275.1s-18.9,25.2-7.6,37.5,36.8.3,59.6-13.5c0,0-18.6,34.1-63.2,35.1S1102.8,2281.3,1128.4,2275.1Z" opacity=".4"></path><path style="mix-blend-mode:multiply" fill="url(#defense__K)" d="M1885.2,1832.7s-8.8,14.4,3.1,26c0,0,2.6-11.7,9.1-14.4,0,0-3.3,10.5,3.1,18.4,4,5,10,7.1,20.1,1.7,0,0-11.9,14.1,3.6,20.2,0,0-3.7,8.3-21.6,8.1s-33.8-16.7-30.9-38.7S1885.2,1832.7,1885.2,1832.7Z" opacity=".4"></path><path style="mix-blend-mode:multiply" fill="url(#defense__L)" d="M1575.4,1968.9l-75.4,27,16.5,5.2h16.3s-34.3,32.9-71.3,32c-39.7-1.1-30.3-31.8-30.3-31.8l-25,12.5s-7.5,34.6,20.6,46.2c26.2,10.7,71.7,12.9,123.8-45.5Z" opacity=".4"></path><path style="mix-blend-mode:multiply" fill="url(#defense__M)" d="M1465 1850.1L1445 1877.8 1450 1919.6 1463.1 1973.9 1439.8 1935.7 1427.2 1871.9 1465 1850.1z" opacity=".4"></path><path style="mix-blend-mode:multiply" fill="url(#defense__N)" d="M1352.7,1874.5c2.3-2,5.1,37.4,23.1,36.1s21.7,7.1,21.7,7.1-31.4,11.9-36.5,17.3C1361,1935,1324.6,1899.4,1352.7,1874.5Z" opacity=".4"></path><path style="mix-blend-mode:multiply" fill="url(#defense__O)" d="M1355.6,1941.4s-4.8,36.2,31.8,46.9c20.9,6,18.8-2.8,47.7,10,0,0-21.9,23.7-48.4,17.1S1344.4,1975.7,1355.6,1941.4Z" opacity=".4"></path></g><g><path style="mix-blend-mode:overlay" fill="url(#defense__d)" d="M1037.1,1691s12.9,93.7,76.8,148.6c59.4,51.1,58.1-36.4,17.3-64C1131.2,1775.6,1092.2,1714.6,1037.1,1691Z" opacity=".8"></path><path style="mix-blend-mode:overlay" fill="url(#defense__P)" d="M1013.8,1935s43.6-18.6,63.2-70.6c0,0-28.9,32.6-51.2,22.8S993.3,1834,1029,1706C1029,1706,958.2,1839.4,1013.8,1935Z" opacity=".6"></path><path style="mix-blend-mode:overlay" fill="url(#defense__Q)" d="M1092,1720.1l35.2,10.7s69.8,78.8,73.9,96.5c0,0-15.6,53.4-25.3,66.9l-21.1-30.5a35.2,35.2,0,0,0,8.4-36.8C1155.5,1804.2,1092,1720.1,1092,1720.1Z" opacity=".6"></path><path style="mix-blend-mode:overlay" fill="url(#defense__R)" d="M1088.2,1866.7s24.9,34.3,24.6,41c0,0-2.7,20.1-12.3,25.5l-28.3-46.3Z" opacity=".6"></path><path style="mix-blend-mode:overlay" fill="url(#defense__S)" d="M1064.4 1899.9L1088.2 1943.5 1081.5 1954.4 1056.4 1905.6 1064.4 1899.9z" opacity=".6"></path><path style="mix-blend-mode:overlay" fill="url(#defense__T)" d="M1065.4,1971s-51.4,8.6-56.6-35.7c0,0-13.1,33.8,18.6,54.5Z" opacity=".6"></path><path style="mix-blend-mode:overlay" fill="url(#defense__e)" d="M1187.4,1786.3s57.9,38.5,62.9,67.8c0,0-43.4,74-41.3,115.2,0,0-47.5,103.6-95.1,114.7l3.3,10.4s93.3-72.8,104.7-114.8c0,0,18.7-87,47.8-112.9C1269.7,1866.7,1253.6,1804.8,1187.4,1786.3Z" opacity=".6"></path><path style="mix-blend-mode:overlay" fill="url(#defense__U)" d="M1220.6,1999.9s-10.9-7.7-15.3,9.5c-.9,3.7,4.3,25.5-1,42.3-18.3,58-51.5,142.8-143.2,123.7,0,0,10.2,19.8,34.9,28.7,0,0,182.3-55.5,126.8-204.2" opacity=".8"></path><path style="mix-blend-mode:overlay" fill="url(#defense__V)" d="M1120.8,2091.8s-60.4,34.2-17.1,106.4l-7.7,5.9s-40.1-66.8-25.6-90.3Z" opacity=".6"></path><path style="mix-blend-mode:overlay" fill="url(#defense__g)" d="M1032.9,1991.6s20.2,140.2,81,88.1l-49.9,35s-47.3-73.7-36.6-124.9Z" opacity=".4"></path><path style="mix-blend-mode:overlay" fill="url(#defense__f)" d="M1201.1,2135.9s-20.2,74.6-59.8,95.6c0,0,40-5.7,66.1-35.6l14.2-81.2Z" opacity=".6"></path><path style="mix-blend-mode:overlay" fill="url(#defense__W)" d="M1181.4,2217.9l-10.6,52.4s21.7,12.4,28.5,28.8l13-95-5.7-2.8Z" opacity=".6"></path><path style="mix-blend-mode:overlay" fill="url(#defense__X)" d="M1190.1 2292.5L1159.3 2324.1 1151 2363.7 1196 2306.5 1190.1 2292.5z" opacity=".6"></path><path style="mix-blend-mode:overlay" fill="url(#defense__Y)" d="M1055.3,2266.3s-37.6-4.3-41.5,25.2c-2.9,22.4,12.2,24.7,12.2,24.7S1022.6,2297.8,1055.3,2266.3Z" opacity=".6"></path><path style="mix-blend-mode:overlay" fill="url(#defense__Z)" d="M1119,2273.8s-26.9-20.6-49.2,2.9-4.4,44.7,20,40.6l5.7-3.8S1100.6,2287.5,1119,2273.8Z" opacity=".6"></path><path style="mix-blend-mode:overlay" fill="url(#defense__aa)" d="M1189.3,2290.9s-9.2-25.9-41.2-20.2-24.4,46.8,32.3,28.4Z" opacity=".6"></path><path style="mix-blend-mode:overlay" fill="url(#defense__ab)" d="M961.5,1891.7s3.4,59.3,49.8,77.6l10.6,15.5s-40.3-3.8-58.7-45.3S961.5,1891.7,961.5,1891.7Z" opacity=".6"></path><path style="mix-blend-mode:overlay" fill="url(#defense__ac)" d="M959.7,1939.5l9.2,13.1s-9.1,18.3-7.4,26.7,17.8,59.9,87.9,108.8l16,25.8s-92.1-48.7-118-132C947.4,1981.9,950,1954.6,959.7,1939.5Z" opacity=".4"></path><path style="mix-blend-mode:overlay" fill="url(#defense__ad)" d="M1035.4,2100s4.1,34.8,6.8,41.2,34.2,52.1,58.4,56.9l-7.4,4.1s-58.2-35.2-65.2-59.9-3.4-48.8-3.4-48.8Z" opacity=".6"></path><path style="mix-blend-mode:overlay" fill="url(#defense__ae)" d="M1053.4,2180s.1,24.8,1.9,29.3,28,31.3,48.8,33l-32.2-4.5s-29.2-25.6-28.3-26.2,1.1-40.2,1.1-40.2Z" opacity=".6"></path><path style="mix-blend-mode:overlay" fill="url(#defense__h)" d="M1061.7 2229.4L1059.7 2264.6 1049.4 2257.7 1052.1 2224.8 1061.7 2229.4z" opacity=".6"></path><path style="mix-blend-mode:overlay" fill="url(#defense__af)" d="M2081,1747.6s-65.4-51.2-86.8-117.4-74.5-65.9-74.5-65.9l-19.1,14.1-169.8,122S1890.9,1939.6,2081,1747.6Z" opacity=".6"></path><path style="mix-blend-mode:overlay" fill="url(#defense__i)" d="M2101.6,1757.6s-47.8-19.5-74-64.3-65.4-146.7-112.2-125.7l-13.1,6.6s-101.1,91-153.9,114c0,0,96.3-8.1,167.3-70.2,24-20.9,44.1,32.6,82.4,100.4,36.7,65.1,100.6,63.5,100.6,63.5Z" opacity=".6"></path><path style="mix-blend-mode:overlay" fill="url(#defense__ag)" d="M1008.8,1935.3l-4.1-18.9c-24.1-13.8-35.4-46.1-40.7-72.1-2.9-50,20.1-81.8,20.1-81.8s-33.8,51.6-35.8,61.6c-1,5.3,3.3,22.3,7.7,30.8C965.2,1902.8,1008.8,1935.3,1008.8,1935.3Z" opacity=".4"></path><path style="mix-blend-mode:overlay" fill="url(#defense__ah)" d="M1175.8,1903.3s-7.4,28,0,57.3c0,0,0,5.4-10.9,25.5-.5.9-16.6-8.7-28.2-21s-19.1-27.8-19.4-26.8-17.2,25.5-20.4,30.1c-.8,1,8.6,22.1,23.9,37.7s32.5,25.8,32,27c-4.4,9.5-2.3,11.9-8.5,18.6,0,0,36.4-52.7,52.1-85.9,0,0-11.4-15.6-5.7-90.3Z" opacity=".8"></path><path style="mix-blend-mode:overlay" fill="url(#defense__ai)" d="M1052.4,2273s-32,56.4,17.4,54.9a26.1,26.1,0,0,1-26.2,8.7C1026.7,2332.9,1020.1,2298.1,1052.4,2273Z" opacity=".4"></path><path style="mix-blend-mode:overlay" fill="url(#defense__aj)" d="M1009.8,2269.6s-28.2,29.3-13.6,46.6l-8.3,6.8s-6.7,20.4,1.2,25.3,28.6,15.4,28.6,15.4-3.6-20.9,4.2-42.3l4.1-5.2,8,13.6s-3.6,26.7.4,33.9l39.6,3.5s5.1-32.8,17.3-43.5l9.3,6.8s-16.9,32.9-10.3,50.2c0,0-100,1.1-118.4-28.9S985.8,2277.5,1009.8,2269.6Z" opacity=".4"></path><path style="mix-blend-mode:overlay" fill="url(#defense__ak)" d="M1883.2,1836.1s26-9.7,39.7,5.1,4.3,38.9-5,46.3c0,0,22.8-5,18.1-38.5S1894,1822.6,1883.2,1836.1Z" opacity=".6"></path><circle style="mix-blend-mode:overlay" cx="1908.7" cy="1856.2" r="7.3" fill="url(#defense__al)" opacity=".6"></circle><path style="mix-blend-mode:overlay" fill="url(#defense__am)" d="M1878.5,1841.2s-7.4,50.7,42.4,46.3c0,0-23.6,12.9-41.2-1.8S1878.5,1841.2,1878.5,1841.2Z" opacity=".6"></path><path style="mix-blend-mode:overlay" fill="url(#defense__an)" d="M1895.3,1844.3s-11.5,34.9,23.2,26c0,0-8.5,10.8-24.3,2.2S1895.3,1844.3,1895.3,1844.3Z" opacity=".6"></path><path style="mix-blend-mode:overlay" fill="url(#defense__j)" d="M1346.7,1912c-9.3,4.3-26.6,10.2-41.9,17.7.3,9.5,3.2,15.8,4.2,24.7.1.6,47.4-37.2,43.5-32-36.4,48.5-33.6,49-33.2,56.6,3.4,55,40.3,78,40.3,78l-18.3,4.8c-14.3-10.1-29.7-33.5-40.6-69.4-.4-1.6-19.5,28.6-19.9,27-.7-3.3-6.2-21.6-1.1-29.6.5-.9,18.6-25.1,18.4-26.2-3.2-16.1-6.4-23.4-7.8-28.6-17.8,4.5-56.1,11.2-62.2,13l7.6-17.3s68.7-14.9,110.4-37C1346.1,1893.7,1339.1,1902.2,1346.7,1912Z" opacity=".6"></path><path style="mix-blend-mode:overlay" fill="url(#defense__ao)" d="M1437.4,1858.1c34.1-12.8,67.1-25.6,94.1-36.5l-5.4,1.2c3.7-1.1,8-2.5,12.7-4.2,28.7-11.8,49.5-21.2,55.7-26l1.7,1.5,27.5-13.1-1.1-1.2s4.4-1.3,10.9-3.6c43-21,80.6-40.9,80.6-40.9l5,19.7c-13.5,7.6-28.3,18.8-42.5,25.3,2.9,29.3,14.4,82.1,58.5,126.4l-54.6,25.1s12.2-57.9-35.7-134.1c-15.9,6.3-36.5,17.3-36.5,17.3s-60.7,28.4-178,72.3l-4.8-12.8Z" opacity=".6"></path><path style="mix-blend-mode:overlay" fill="url(#defense__ap)" d="M1403.4,1871.9c.2,9.9,16.1,76.1,16.1,76.1s4.8,15.6,20.6,32.1,30.7,32.4,30.7,32.4l59.5-9.2-49-4.1-38.4-58.4s-19.5-63.5-17.4-66.3,20.6-18.3,20.6-18.3l63.8-26s-52.1-21-104.6-2.2c0,0-55.5,22.1-59.3,59.2,0,0,14.9-27.2,47.8-29.6,5-.4,9.6,2.4,9.6,7.4Z" opacity=".6"></path><path style="mix-blend-mode:overlay" fill="url(#defense__aq)" d="M1352.7,1957.3s14.1-22.1,36-21.6,16.3-16,8.8-18S1359.5,1925.3,1352.7,1957.3Z" opacity=".6"></path><path style="mix-blend-mode:overlay" fill="url(#defense__ar)" d="M1352.7,1863.7s-11.3,46.8,25.7,56.9l-15.6,9.1S1328.7,1909,1352.7,1863.7Z" opacity=".4"></path><path style="mix-blend-mode:overlay" fill="url(#defense__as)" d="M1353.8,1948s-1.1,44.4,38.6,51.6c24.8,4.5,31.8-1,34.4,3.9,0,0-27.3,20.3-43.6,10.2S1340.2,1971.6,1353.8,1948Z" opacity=".6"></path><path style="mix-blend-mode:overlay" fill="url(#defense__at)" d="M1419.5,2010.1c.5,1.5-6,35.4,30.9,36.8s72.7-13.4,104.6-45.6c0,0-28.9,62-92.6,64.5-3.5.1-58.3,9.2-60-50.4Z" opacity=".6"></path><path style="mix-blend-mode:overlay" fill="url(#defense__au)" d="M938.1,2012.5s-34,11.4-43.5,29.2c-7.5,13.9-27,68.2,56.4,76.7,0,0-82.4,25.5-86.3-49.9C864.7,2068.5,863.7,2019.3,938.1,2012.5Z" opacity=".6"></path><path style="mix-blend-mode:overlay" fill="url(#defense__av)" d="M1781,2093s20,.3,13,4.6c-10.8,6.7-14.3,38.6-13,43.5h13s10.9-44.3,14.4-46.8,16.3-2.1,16.3-2.1-21.2,30.8-14.2,51.1l10.9-2.7,2.7-7.8a214.9,214.9,0,0,1,21.8-45h0l15.4-6.4-2.4,4.3a174.2,174.2,0,0,0-21.9,51.8l3.9-.2,10.6-4.3s18.8-51.9,28.2-53.1h5.9l-.5,1.8a212.7,212.7,0,0,1-15,37.5l-6.4,12.3,25.5-13.1,14.5-47.7Z" opacity=".6"></path><path style="mix-blend-mode:overlay" fill="url(#defense__aw)" d="M1834.1,2142.6s-17.6,62.8-.3,78.3c0,0-26.6,13.5-16.6,28s23,12.6,10,14.6-35.6,17.2-23.1,19.1,50.8-3.5,50.8-3.5,6.7,13.4,15.9,18.9c6.4,3.8,47.3,52.1-44,69.2,0,0,70.9,32.3,97.4-28.2,0,0,8-32.6-46.6-47.1,0,0-21.4-15.4-14.9-19.9s10-11.6-2-18.6-4.5-5.4.2-7.4,13.7-1.1,10.7-19.8-5.9-68.7,13.6-97.2l-2-4.8" opacity=".8"></path></g><g><path fill="none" stroke="#31323d" stroke-linecap="round" stroke-linejoin="round" stroke-width="12.5" d="M1708.3,1715.4c3.1-1,182.7-119.4,196.6-142.3,10.3-16.9,58.2-17.1,95.8,71.3,38.3,90.3,100.9,113.2,100.9,113.2s-7.2,204.4-217.3,159.6C1746.9,1887.9,1708.3,1715.4,1708.3,1715.4Z"></path><path fill="none" stroke="#31323d" stroke-linecap="round" stroke-linejoin="round" stroke-width="12.5" d="M1143.9,1877.3c1.4-1.8,32.2-33.8,13.5-65.3s-72.8-106.6-118.6-123.8c0,0-90.5,100.5-90.5,145.2s48.9,113,72.8,99.7,63.5-69.4,63.5-69.4S1132.4,1891.5,1143.9,1877.3Z"></path><path fill="none" stroke="#31323d" stroke-linecap="round" stroke-linejoin="round" stroke-width="12.5" d="M1077,1713l50.2,17.8s63.5,69.1,73.9,96.5c0,0-15,71.1-37.7,83.3l-51.8-8.2s-28.1,69.1-84.2,87.4c0,0-49.8-7.5-66.5-62.7,0,0-8.3-13.6,0-47.1"></path><path fill="none" stroke="#31323d" stroke-linecap="round" stroke-linejoin="round" stroke-width="8" d="M1038.8,1688.2s-81.6,129.6-28,242.2c0,0-17,30.8,16.6,56.3,0,0-12.2,53.9,38,128"></path><path fill="none" stroke="#31323d" stroke-linecap="round" stroke-linejoin="round" stroke-width="12.5" d="M962.9,1933.1s-19.8,37.4-14.6,51.6c0,0,26,86.3,118.6,130,0,0,84.8-16.1,155-135.1,0,0,20.8-91.6,47.8-115.9,0,0-16.4-64.3-99.2-82.3"></path><path fill="none" stroke="#31323d" stroke-linecap="round" stroke-linejoin="round" stroke-width="12.5" d="M1023.9,2088.3s-.7,37.8,4.5,55.5c0,0,21.8,37.5,67.6,60.3,0,0,120.1-54.1,132.6-117.6,0,0,12.9-70.6-14.5-94.1"></path><path fill="none" stroke="#31323d" stroke-linecap="round" stroke-linejoin="round" stroke-width="12.5" d="M1044.7,2165v47.5s18.5,22.4,43.5,29.6c0,0,55.8,4.7,119.2-46.2l16.6-95.3"></path><path fill="none" stroke="#31323d" stroke-linecap="round" stroke-linejoin="round" stroke-width="12.5" d="M1049.4 2261.7L1052.4 2220.4"></path><path fill="none" stroke="#31323d" stroke-linecap="round" stroke-linejoin="round" stroke-width="12.5" d="M1207.4,2195.9,1196,2306.5s-33.6,46.4-53.5,66.3c-5.2.6-120,23-170.6-21,0,0-7.7-23.3,1.8-45.1"></path><path fill="none" stroke="#31323d" stroke-linecap="round" stroke-linejoin="round" stroke-width="12.5" d="M1189.3,2293.7s-21.8,30.6-50.9,37.7-53.9-1.6-42.3-29.1c9.8-22.9,34.3-36.9,62.7-32.7S1189.3,2293.7,1189.3,2293.7Z"></path><path fill="none" stroke="#31323d" stroke-linecap="round" stroke-linejoin="round" stroke-width="12.5" d="M1123.7,2274.2c1.4-1.2-27.4-23.5-62-5.7-29.7,15.4-41,39.9-29,57.9,18.8,28.4,58-11.3,58-11.3"></path><path fill="none" stroke="#31323d" stroke-linecap="round" stroke-linejoin="round" stroke-width="12.5" d="M1026.1,2316.2s-66.2,18.9-50.5-14.9c14.9-32.1,62.7-51.5,84.1-31.7"></path><path fill="none" stroke="#31323d" stroke-linecap="round" stroke-linejoin="round" stroke-width="12.5" d="M1093.4,2317.5s-24.8,29.1-18.3,61.5"></path><path fill="none" stroke="#31323d" stroke-linecap="round" stroke-linejoin="round" stroke-width="12.5" d="M1026.1,2316.2s-16,24.3-3.9,57.9"></path><path fill="none" stroke="#31323d" stroke-linecap="round" stroke-linejoin="round" stroke-width="12.5" d="M1489.8,1999.6c129.7-46.6,259.2-99.7,307.4-127.7"></path><path fill="none" stroke="#31323d" stroke-linecap="round" stroke-linejoin="round" stroke-width="12.5" d="M1232.5,2079.9c10.1-2.3,64.9-19.8,76.5-22.9"></path><path fill="none" stroke="#31323d" stroke-linecap="round" stroke-linejoin="round" stroke-width="12.5" d="M956.4,2004.7c-13.7,2.7-26.5,5.3-40.3,7.6,0,0-48.4,8.2-51.4,56.2-1.1,17,6,54.4,59.6,54.4,0,0,37,.3,100.4-5.6"></path><path fill="none" stroke="#31323d" stroke-linecap="round" stroke-linejoin="round" stroke-width="12.5" d="M1436.7,1862.1c145.1-60.2,277.4-126.8,277.4-126.8"></path><path fill="none" stroke="#31323d" stroke-linecap="round" stroke-linejoin="round" stroke-width="12.5" d="M1235.7,1935.5c33-9.7,68.7-21.9,105.3-35.5"></path><path fill="none" stroke="#31323d" stroke-linecap="round" stroke-linejoin="round" stroke-width="8" d="M1196.4,1839.6s-17.5,102.1,0,126.2c0,0-56.2,113.1-119.4,145.9"></path><path fill="#31323d" d="M1803.9,2281.3c4.5-.1,8.8-.2,12.8-.7a69,69,0,0,0,11.7-2.9c3.9-1.3,7.9-2.9,12-4.4s8.4-2.9,12.7-4.1l6.5-1.8,1.4-.4,1.3-.4,2.3-1,1.3-.8c.1-.1-.2.1-.3.8s.1.9-.1.7a3.2,3.2,0,0,0-.9-1.2,22.6,22.6,0,0,0-3.9-3.4c-1.6-1.1-3.3-2.1-5.1-3.1a56.1,56.1,0,0,0-5.4-2.9l-5.6-2.6a6.4,6.4,0,0,1,2.3-12.3,73.1,73.1,0,0,0,11.8-1,17.1,17.1,0,0,0,4.5-1.3l1.2-.7a2.1,2.1,0,0,0,.6-.8,6.3,6.3,0,0,0,.6-3.1,34.5,34.5,0,0,0-.3-5.4c-.5-3.9-1.3-8.1-2-12.3s-1.4-8.6-2-13l-.4-3.3-.2-1.6v-1.8a57.7,57.7,0,0,1-.1-7.2c.4-9.4,2.4-18.2,4.7-26.7,4.9-17,11.6-33,18.5-48.8l5.1-11.7c1.7-3.9,3.4-7.8,4.9-11.5.3-1,.7-1.9,1-2.8l.8-2.5a32.3,32.3,0,0,0,.8-5,10.3,10.3,0,0,0-.2-3.1l.2.2.4.2h1.1l2.5-.4-7.1,2.4-7.1,2.2c-4.7,1.5-9.4,2.8-14.2,4.1-9.4,2.5-19,4.7-28.6,6.6a426,426,0,0,1-58.4,7.5,317,317,0,0,1-59.2-2.1,229.2,229.2,0,0,1-57.8-15.1l1.8.5h1.3l.8-.3a5.9,5.9,0,0,0,1.1-.9c.2-.4-.1,0-.1.9a12.5,12.5,0,0,0,.1,3.3c.2,1.2.4,2.6.7,3.9a16,16,0,0,1,.5,2.1l.6,2.3,1.3,4.5,1.4,4.7c.4,1.6.9,3.2,1.3,5.1a27,27,0,0,1,.6,6.6,23.9,23.9,0,0,1-1,6.4c-.5,1.9-1.1,3.5-1.6,5.1l-1.6,4.3a26.2,26.2,0,0,0-.6,3,3.9,3.9,0,0,0,.2,1.7,4.5,4.5,0,0,0,1.1,1.7,42.8,42.8,0,0,0,3.1,3.2,29.8,29.8,0,0,1,3.8,4.9,17.8,17.8,0,0,1,1.7,3,22.8,22.8,0,0,1,1.2,3.3l1.3,5.2.9,4.9c1.3,6.4,2.4,12.8,3.4,19.1,2,12.8,3.9,25.5,5.7,38.2s3.4,25.5,4.9,38.4c.4,3.2.7,6.5,1,9.6l.9,9.5c.7,6.3,1.5,12.5,2.6,18.6,2,12.3,4.9,24.4,9.5,35.5a73.9,73.9,0,0,0,8.3,15.2,34.5,34.5,0,0,0,11.8,10.5,20.7,20.7,0,0,0,3.4,1.5,12.7,12.7,0,0,0,1.8.6l.9.3,1,.2c3.1.6,6.1,1.3,9.2,1.8,6.2,1.1,12.4,2.1,18.6,2.9,12.5,1.5,25,2.5,37.6,2.9,25.1.6,50.4-1,74.6-6.7l9-2.3,4.3-1.3,4-1.5c5.2-2.1,9.8-5.1,12.8-8.9a20.2,20.2,0,0,0,4.3-13.5,34,34,0,0,0-4.6-15.1,45.2,45.2,0,0,0-10.8-12.6,33,33,0,0,0-6.7-4,20.2,20.2,0,0,0-6.9-1.6h-2.5l-3-.2a47.8,47.8,0,0,1-5.7-1.2,36.2,36.2,0,0,1-10.4-4.7,40.1,40.1,0,0,1-8.6-7.2,54.7,54.7,0,0,1-6.5-8.9h0a6.2,6.2,0,0,1,2.3-8.5,6.4,6.4,0,0,1,8.6,2.3c5.6,9.7,15,16.2,25.8,15.5a32.8,32.8,0,0,1,11.9,2.4,46.7,46.7,0,0,1,9.7,5.7,56,56,0,0,1,14.4,16.3,46.7,46.7,0,0,1,6.5,21.3,35.9,35.9,0,0,1-1.5,11.7,33.2,33.2,0,0,1-5.6,10.7,37.3,37.3,0,0,1-8.5,7.9,48.3,48.3,0,0,1-9.7,5.3l-5,1.9-4.8,1.5c-3.2.9-6.4,1.8-9.6,2.5-25.7,6.2-52.1,8.1-78.1,7.5-13.1-.2-26.1-1.2-39.1-2.7-6.5-.8-13-1.7-19.4-2.9l-9.7-1.9a39.5,39.5,0,0,1-10.9-3.9,50.2,50.2,0,0,1-16.8-14.8,89.5,89.5,0,0,1-10.2-18.3c-5.2-12.7-8.2-25.7-10.5-38.7-1.1-6.5-2-13-2.7-19.4-.4-3.3-.7-6.5-1-9.7s-.6-6.3-1-9.4c-1.5-12.6-3.1-25.4-4.9-38s-3.6-25.3-5.6-37.9c-1-6.3-2.1-12.5-3.2-18.7-.3-1.5-.6-3-1-4.5a37.2,37.2,0,0,0-1-4.2,1.2,1.2,0,0,0-.2-.7l-.2-.6-.6-1.1a15.2,15.2,0,0,0-2.2-2.6c-.9-1.1-2.2-2.2-3.5-3.8a22.4,22.4,0,0,1-3.9-6.5,21.2,21.2,0,0,1-1-7.7,28.7,28.7,0,0,1,1.3-6.5c.3-.9.7-1.9.9-2.6l.8-2.1c.5-1.5,1-2.9,1.3-4.1a13.3,13.3,0,0,0,.5-3,8.2,8.2,0,0,0-.3-3c-.3-1.2-.6-2.6-1.1-4.1l-1.3-4.6-1.3-4.7-.7-2.4-.6-2.6a48.6,48.6,0,0,1-1-5.5,32.4,32.4,0,0,1-.2-6.3,19.2,19.2,0,0,1,.7-3.8,15.5,15.5,0,0,1,2-4.4,12,12,0,0,1,4.6-4,11.5,11.5,0,0,1,3.1-1.1l1.6-.2h2.1l1.7.4h.1a220.6,220.6,0,0,0,54,14.3,312.1,312.1,0,0,0,56.4,2.1,411.9,411.9,0,0,0,56.4-7c9.3-1.8,18.6-3.9,27.8-6.3,4.6-1.3,9.2-2.5,13.7-3.9l6.8-2.1,6.5-2.2h.2a6.6,6.6,0,0,1,2.3-.4h1.4l1,.2,1.8.6a11.3,11.3,0,0,1,3.2,1.9,12.5,12.5,0,0,1,3.9,5.4,14.5,14.5,0,0,1,1.2,5.1,20.9,20.9,0,0,1,.1,4.3,43,43,0,0,1-1.3,7.6c-.4,1.4-.8,2.5-1.2,3.6a32.1,32.1,0,0,1-1.2,3.3c-1.6,4.2-3.4,8.1-5.1,12l-5.3,11.7c-6.9,15.5-13.5,31.1-18.1,46.9-2.2,7.9-4,15.9-4.4,23.6a52.3,52.3,0,0,0,0,5.6l.2,1.4v1.6l.4,3.1c.5,4.1,1.1,8.2,1.8,12.4s1.4,8.4,2,12.9a43.5,43.5,0,0,1,.4,7.4,24.3,24.3,0,0,1-.6,4.4,16.7,16.7,0,0,1-1.8,4.8,15.7,15.7,0,0,1-3.5,4.2,23.3,23.3,0,0,1-4.1,2.6,37.6,37.6,0,0,1-7.8,2.3,94.4,94.4,0,0,1-13.8,1l2.4-12.3c2.3.9,4.2,1.9,6.3,2.9s4.1,2.1,6.2,3.3a67.9,67.9,0,0,1,6,3.9,28.7,28.7,0,0,1,6,5.2,19.6,19.6,0,0,1,2.9,4.1,19.8,19.8,0,0,1,1.1,3.2,10.2,10.2,0,0,1,0,3.9,8.8,8.8,0,0,1-1.5,3.7,11.3,11.3,0,0,1-2.1,2.6,21.8,21.8,0,0,1-4.2,2.8,38.9,38.9,0,0,1-3.8,1.6l-1.9.5-1.7.5-6.2,1.7-12.5,3.6a102,102,0,0,1-13.2,3.1,43.3,43.3,0,0,1-27.6-3.7,1.4,1.4,0,0,1-.7-2,1.4,1.4,0,0,1,1.3-.9Z"></path><path fill="none" stroke="#31323d" stroke-linecap="round" stroke-linejoin="round" stroke-width="12.5" d="M1890.5,2115.4s-58.7,59-219,3"></path><path fill="none" stroke="#31323d" stroke-linecap="round" stroke-linejoin="round" stroke-width="8" d="M1877.6,2077.1s-23.1,43.2-26.1,59"></path><path fill="none" stroke="#31323d" stroke-linecap="round" stroke-linejoin="round" stroke-width="8" d="M1847,2084.6s-20.7,28.8-25.9,57.5"></path><path fill="none" stroke="#31323d" stroke-linecap="round" stroke-linejoin="round" stroke-width="8" d="M1810.5,2090.6s-17.6,27.1-15.8,52.7"></path><path fill="none" stroke="#31323d" stroke-linecap="round" stroke-linejoin="round" stroke-width="8" d="M1775.4,2093.2s-13.6,25.4-11.2,47.9"></path><path fill="none" stroke="#31323d" stroke-linecap="round" stroke-linejoin="round" stroke-width="8" d="M1738.9,2092.2s-6.3,19-2.7,43.9"></path><path fill="none" stroke="#31323d" stroke-linecap="round" stroke-linejoin="round" stroke-width="8" d="M1703.2,2086.5s-2.2,15.8,1.9,42.5"></path><circle cx="1905.3" cy="1858.7" r="33.5" fill="none" stroke="#31323d" stroke-linecap="round" stroke-linejoin="round" stroke-width="8"></circle><circle cx="1905.3" cy="1858.7" r="17.6" fill="none" stroke="#31323d" stroke-linecap="round" stroke-linejoin="round" stroke-width="6"></circle><path fill="none" stroke="#31323d" stroke-linecap="round" stroke-linejoin="round" stroke-width="12.5" d="M1510.6,1828.4s-43.8-16.1-89.4-5.7c-25.2,5.8-47.5,21-64,39.9s-23.7,47,5.6,67.1"></path><path fill="#31323d" d="M1397.8,1920.2l-5.4,1.8-5.4,2.1a90.1,90.1,0,0,0-10.4,4.9,58.4,58.4,0,0,0-9,6.4,35,35,0,0,0-7,8,30.2,30.2,0,0,0-4.1,9.4,20.5,20.5,0,0,1-.5,2.4l-.3,2.5v2.3a24.5,24.5,0,0,0,.2,2.7,55.8,55.8,0,0,0,1.9,10.7,58,58,0,0,0,3.7,10.1,64.7,64.7,0,0,0,12.4,17.8l2,2,1.7,1.4,2.1,1.4,2.2,1.2a29.2,29.2,0,0,0,9.8,2.8,34.4,34.4,0,0,0,10.6-.2,58.5,58.5,0,0,0,10.7-2.9,97.2,97.2,0,0,0,10.4-4.7c1.8-.9,3.4-1.9,5.1-2.9s3.4-2,4.9-3h.1a2.5,2.5,0,0,1,3.2,3.9,60.8,60.8,0,0,1-9.5,8.1,74.1,74.1,0,0,1-10.9,6.4,63,63,0,0,1-12.2,4.3,48.2,48.2,0,0,1-13.2,1.4,39.4,39.4,0,0,1-13.5-2.9l-3.2-1.4-1.5-.8-.7-.5-.4-.2h-.4l-3.1-2.3-2.4-2.2a68.2,68.2,0,0,1-15.5-21,70.5,70.5,0,0,1-4.4-12.4,72.6,72.6,0,0,1-1.9-13.1c0-1.1-.1-2.1-.1-3.3s.1-2.2.2-3.7v-.9l.2-.9.3-1.7.9-3.3a43.2,43.2,0,0,1,6.5-12.2,49.6,49.6,0,0,1,9.6-9.3,62.8,62.8,0,0,1,11.2-6.5,72.5,72.5,0,0,1,11.8-4.3,57.3,57.3,0,0,1,12.4-2,2.5,2.5,0,0,1,2.7,2.3,2.7,2.7,0,0,1-1.8,2.6Z"></path><path fill="none" stroke="#31323d" stroke-linecap="round" stroke-linejoin="round" stroke-width="12.5" d="M1576.2,1968.9s-15.8,43.9-53.1,72.2c-20.5,15.6-46.5,22.9-71.6,23.5s-51.3-12-47.9-47.4"></path><path fill="none" stroke="#31323d" stroke-linecap="round" stroke-linejoin="round" stroke-width="12.5" d="M1349.8,1917.2s-107.3,68.4-61.4,123.2,115-10.8,115-10.8"></path><path fill="#31323d" d="M1538.9,2002.6c-5.3.7-10.5,1.4-15.9,1.9l-7.9.7-8,.6-8.1.4a75.1,75.1,0,0,1-8.2-.1l-4.2-.4a28.6,28.6,0,0,1-4.6-.9l-.7-.2-.7-.2-.9-.4-1-.5-.5-.4-.7-.6-.4-.4h0l-.2-.2-.7-.9-2.5-3.2c-6.5-8.7-12.5-17.5-18.3-26.5s-11.3-18.2-16.3-27.8l-.3-.6h0c-3.4-9.8-6.4-19.9-8.9-30s-4.8-20.3-6.7-30.6c-.5-2.6-1-5.1-1.3-8a11,11,0,0,1,.2-2.8,16.2,16.2,0,0,1,.6-1.7l1.3-2.2a25.3,25.3,0,0,1,2.5-3.6,53.9,53.9,0,0,1,5.3-6.2c1.8-1.9,3.7-3.7,5.7-5.5,3.8-3.6,7.7-7,11.8-10.3s8-6.5,12.3-9.6a2.5,2.5,0,0,1,3.3,3.7h0l-10.4,11.4c-3.4,3.8-6.9,7.6-10.2,11.4l-5,5.8c-1.6,1.9-3.3,3.7-4.8,5.6l-2,2.6a6.4,6.4,0,0,0-.6,1.1v.2h0v-.2s.1-.6,0-.7c.3,2.3.8,4.9,1.2,7.3,1.8,10,4.1,20,6.6,29.9s5.3,19.7,8.6,29.3l-.3-.7q7.3,13.8,15.9,27c5.7,8.8,11.6,17.5,17.8,25.8l2.4,3.1.5.7h.2v-.2c-.1-.1-.3-.2-.3-.3h.3l3.2.5,3.7.3,7.6.5,7.9.4,7.8.3,7.9.2,15.9.3h0a2.5,2.5,0,0,1,2.5,2.5A2.6,2.6,0,0,1,1538.9,2002.6Z"></path></g></g></g></g><g id="item_d"></g><g id="item_c"></g><g id="item_b"></g><g id="item_a"></g></svg>